<svg xmlns="http://www.w3.org/2000/svg" fill="none" viewBox="0 0 27 28"><g fill-rule="evenodd" clip-rule="evenodd"><g fill="#E8BE90"><path d="M3.95.34h19.1A3.96 3.96 0 0 1 27 4.29v19.09a3.95 3.95 0 0 1-3.95 3.96H3.95A3.95 3.95 0 0 1 0 23.38V4.3A3.95 3.95 0 0 1 3.95.34Z"/><path d="M25.62 1.3C21.77 7.8 14.2 19.53 1.25 26.25a3.9 3.9 0 0 0 2.7 1.08h19.1A3.97 3.97 0 0 0 27 23.38V4.3c0-1.2-.54-2.27-1.38-3Z"/></g><path fill="#67657C" d="M16.95 10.98a.21.21 0 0 1-.15-.36l2.97-2.97a.21.21 0 0 1 .3.3L17.1 10.9a.21.21 0 0 1-.15.07Zm.78 12.98H16.7a.21.21 0 1 1 0-.42h.8v-5.12a.21.21 0 1 1 .43 0v5.12h.8a.21.21 0 1 1 0 .42h-1.01Zm-3.3 0h-.89a.21.21 0 1 1 0-.42h.68v-4.4a.21.21 0 1 1 .42 0v4.4h.67a.21.21 0 1 1 0 .42h-.88ZM9.9 11.62H8.62a.21.21 0 0 1-.2-.2v-.87a2.99 2.99 0 0 1-1.23-.7l-.74.43a.21.21 0 0 1-.29-.08l-.64-1.11a.21.21 0 0 1 .08-.29l.74-.43a3 3 0 0 1 0-1.41l-.74-.43a.21.21 0 0 1-.08-.29l.64-1.1c.06-.1.19-.14.29-.09l.74.43a3 3 0 0 1 1.22-.7v-.86c0-.11.1-.2.21-.2h1.29c.11 0 .2.09.2.2v.86c.47.13.88.37 1.23.7l.74-.42a.21.21 0 0 1 .3.07L13 6.25c.06.1.03.23-.07.28l-.75.43a3 3 0 0 1 0 1.41l.74.43a.21.21 0 0 1 .08.29l-.64 1.11a.21.21 0 0 1-.29.08l-.74-.43a3 3 0 0 1-1.22.7v.86c0 .12-.1.21-.21.21Zm-1.07-.42h.86v-.8c0-.1.06-.2.16-.21.5-.12.94-.38 1.3-.75a.21.21 0 0 1 .25-.04l.7.4.43-.74-.7-.4a.21.21 0 0 1-.1-.25 2.6 2.6 0 0 0 0-1.49c-.02-.1.02-.2.1-.24l.7-.4-.43-.75-.7.4a.21.21 0 0 1-.26-.04c-.35-.37-.8-.63-1.29-.74a.21.21 0 0 1-.16-.21v-.8h-.86v.8a.2.2 0 0 1-.17.2c-.5.12-.94.38-1.29.75a.21.21 0 0 1-.26.04l-.7-.4-.43.74.7.4c.09.06.13.16.1.25a2.6 2.6 0 0 0 0 1.5.23.23 0 0 1-.1.24l-.7.4.43.75.7-.4a.2.2 0 0 1 .26.03c.35.37.8.63 1.3.75.09.02.16.1.16.2v.81Zm.43-1.86a1.67 1.67 0 1 1 0-3.35 1.67 1.67 0 0 1 0 3.35Zm0-2.92a1.25 1.25 0 1 0 0 2.5 1.25 1.25 0 0 0 0-2.5ZM7.35 23.96a.21.21 0 0 1-.15-.06l-3.65-3.66a.21.21 0 0 1 0-.3l8.48-8.48a.21.21 0 0 1 .3 0l.28.28 1.15-1.15a.22.22 0 0 1 .3 0l.53.53 5.17-5.16.2-.53a.22.22 0 0 1 .07-.1l1.7-1.35a.21.21 0 0 1 .2-.04l1.03.37c.06.02.1.06.12.12l.42 1.07c.03.07.02.15-.03.2L22.1 7.43a.21.21 0 0 1-.09.06l-.53.2-5.17 5.17.54.54c.08.08.08.21 0 .3l-1.15 1.14.28.28a.21.21 0 0 1 0 .3L7.5 23.9a.21.21 0 0 1-.15.06Zm5.56-11.92 2.5 2.5 1-1-2.5-2.5-1 1Zm-8.92 8.05 3.36 3.36 8.19-8.19-3.36-3.35L4 20.09Zm3.44 1.87a.21.21 0 0 1-.15-.06l-1.74-1.74a.21.21 0 0 1 0-.3l2.53-2.52a.21.21 0 0 1 .3 0l1.74 1.73c.08.09.08.22 0 .3L7.58 21.9a.21.21 0 0 1-.15.06ZM6 20.01l1.44 1.44 2.23-2.23-1.44-1.44L6 20.01Zm8.9-8.59 1.14 1.14 5.2-5.2a.2.2 0 0 1 .07-.05l.51-.2 1.25-1.57-.33-.87-.82-.29-1.57 1.25-.2.52a.2.2 0 0 1-.05.07l-5.2 5.2Z"/><path fill="#FFE57F" d="m15.54 15.26-3.36-3.35L4 20.09l3.35 3.36 8.19-8.19Zm-7.17 2.08 1.74 1.74c.08.08.08.21 0 .3L7.58 21.9a.21.21 0 0 1-.3 0l-1.74-1.74a.21.21 0 0 1 0-.3l2.53-2.52a.21.21 0 0 1 .3 0Zm4.53-5.3 2.5 2.5 1-1-2.5-2.5-1 1Zm1.99-.62 1.14 1.14 5.2-5.2a.2.2 0 0 1 .07-.05l.51-.2 1.25-1.57-.33-.87-.82-.29-1.57 1.25-.2.52a.2.2 0 0 1-.05.08l-5.2 5.2Zm2.06-.44a.21.21 0 0 1-.15-.36l2.97-2.97a.21.21 0 0 1 .3.3L17.1 10.9a.21.21 0 0 1-.15.07Z"/><path fill="#1E2F68" d="M9.86 10.19c.5-.12.94-.38 1.3-.75a.21.21 0 0 1 .25-.04l.7.4.43-.74-.7-.4a.21.21 0 0 1-.1-.25 2.6 2.6 0 0 0 0-1.49c-.02-.1.02-.2.1-.24l.7-.4-.43-.75-.7.4a.21.21 0 0 1-.26-.04c-.35-.37-.8-.63-1.3-.74a.21.21 0 0 1-.15-.21v-.8h-.86v.8a.2.2 0 0 1-.17.2c-.5.12-.94.38-1.29.75a.21.21 0 0 1-.26.04l-.7-.4-.43.74.7.4c.08.06.12.16.1.25a2.6 2.6 0 0 0 0 1.5.23.23 0 0 1-.1.24l-.7.4.43.75.7-.4a.2.2 0 0 1 .26.03c.35.37.8.63 1.3.75.09.02.16.1.16.2v.81h.86v-.8c0-.1.06-.2.16-.21Zm1.08-2.52a1.67 1.67 0 1 1-3.35 0 1.67 1.67 0 0 1 3.35 0Z"/></g></svg>