<svg xmlns="http://www.w3.org/2000/svg" xml:space="preserve" viewBox="0 0 512 512"><circle cx="256" cy="256" r="256" fill="#1B9BAA"/><path d="M511 281 323 93h-67v419c133 0 242-101 255-231z" opacity=".1"/><path fill="#FFD0AE" d="M350 360c-75 0-58-36-63-73h-62c-5 37 12 73-63 73-47 0-64 21-64 67v31a255 255 0 0 0 316 0v-31c0-46-17-67-64-67z"/><path d="m288 308-1-19h-62l-1 19c9 6 19 9 32 9s23-3 32-9z" opacity=".1"/><path fill="#EFF0F0" d="M350 360c-10 0-18 0-25-2l-69 8-69-8c-7 2-15 2-25 2-47 0-64 21-64 67v31a255 255 0 0 0 316 0v-31c0-46-17-67-64-67z"/><path fill="#BE1E2D" d="M288 366h-64l22 29-6 117a261 261 0 0 0 32-1l-6-116 22-29z"/><path fill="#314B5A" d="M350 360c-10 0-18 0-25-2l-69 138-69-138c-7 2-15 2-25 2-47 0-64 21-64 67v31a255 255 0 0 0 316 0v-31c0-46-17-67-64-67z"/><path d="M246 395h20l-10 2-10-2z" opacity=".2"/><path fill="#EFF0F0" d="M221 332h-4l-30 26 32 46 37-38zm70 0h4l30 26-32 46-37-38z"/><ellipse cx="181.2" cy="223.4" fill="#FFD0AE" rx="13.8" ry="16.3"/><ellipse cx="330.9" cy="223.4" fill="#FFD0AE" rx="13.8" ry="16.3"/><path fill="#FFD0AE" d="M270 107h-28c-36 0-65 42-65 78 0 0 2 127 79 127s79-127 79-127c0-36-29-78-65-78z"/><path fill="#414042" d="M338 209c11-17 25-125-41-122-58-50-162 16-123 122l8 5s-1-12 4-24 20-23 24-48 76 21 87-11c8 36 30 43 33 59 4 16 0 24 0 24l8-5z"/><path d="M330 190c-3-16-25-23-33-59-11 32-83-15-87 11s-18 36-24 48c-5 12-4 24-4 24 0-5 1-11 4-18 6-12 20-23 24-48s76 21 87-11c8 36 30 43 33 59l2 10c0-4 0-9-2-16zM219 408l37-39 37 39 35-49-3-1-32 46-37-38-37 38-32-46-3 1 35 49z" opacity=".1"/><path fill="#314B5A" d="m208 339-46 21 39 35-19 13 74 88zm96 0 46 21-39 35 19 13-74 88z"/><path d="m350 360-39 35 2 2 41-37h-4zm-188 0 39 35-2 2-41-37h4zm166 50-72 86-72-86-2 2 74 88 74-88z" opacity=".1"/></svg>