<svg xmlns="http://www.w3.org/2000/svg" fill="none" viewBox="0 0 84 87"><path fill="#C5A17C" d="M41.76 24.78H23.49v8.35h18.27v-8.35Z"/><path fill="#fff" d="M41.76 36.41h-4.5v2.32h4.5V36.4Z"/><path fill="#E8BE90" d="M15.56 85.53h34.6V52.62H35v16.44a.4.4 0 0 1-.39.4h-3.46a.4.4 0 0 1-.39-.4V52.62h-15.2v32.9ZM34.6 51.86h10.1V33.91H18.76v17.95H34.6Zm1.88-15.84c0-.2.18-.4.39-.4h5.28c.2 0 .39.2.39.4v3.1a.4.4 0 0 1-.4.39h-5.27a.4.4 0 0 1-.4-.4v-3.09Z"/><path fill="#C5A17C" d="M17.98 51.86V39.61H1.07v45.95h13.68v-33.3c0-.21.19-.4.4-.4h2.83Z"/><path fill="#FFDA87" d="M34.19 52.62H31.5v16.05h2.68V52.62Z"/><path fill="#1A1A1A" d="M50.55 86.31a.4.4 0 0 0 .4-.4V52.24a.4.4 0 0 0-.4-.4h-5.07V33.5a.4.4 0 0 0-.4-.4h-2.54v-8.7a.4.4 0 0 0-.4-.39H23.1a.4.4 0 0 0-.39.39v8.74h-4.34a.4.4 0 0 0-.4.4v5.3H.7a.4.4 0 0 0-.39.39v46.73c0 .2.19.39.4.39h49.84v-.03ZM23.5 24.78h18.27v8.35H23.49v-8.35Zm-4.73 9.1H44.7v17.96H18.76V33.89Zm15.45 18.74v16.05h-2.68V52.62h2.68Zm-15.84 0h12.38v16.44c0 .2.19.4.4.4h3.45a.4.4 0 0 0 .4-.4V52.62h15.16v32.9h-34.6v-32.9h2.8Zm-3.6-.4v33.3H1.1V39.59h16.92v12.26h-2.84c-.2.02-.4.18-.4.39Z"/><path fill="#1A1A1A" d="M36.87 39.5h5.28a.4.4 0 0 0 .39-.38v-3.1a.4.4 0 0 0-.4-.4h-5.27a.4.4 0 0 0-.4.4v3.1c0 .23.19.39.4.39Zm.39-3.09h4.5v2.32h-4.5V36.4Z"/><path fill="#FFDAE2" d="M71.97 13.58a5.9 5.9 0 0 0 1.48-2.63c.03-.1.1-.2.21-.23.7-.34 1.2-.91 1.33-1.54.08-.39 0-.75-.2-1.09-.22.26-.5.5-.84.63-.24.1-.5.15-.76.15-.3 0-.62-.08-.9-.2a8.33 8.33 0 0 0-3.55-.97c-1.32 0-2.65.52-3.53.96-.52.26-1.12.29-1.67.08a1.82 1.82 0 0 1-.83-.62c-.2.34-.26.73-.2 1.09.1.62.59 1.2 1.32 1.53.1.06.18.13.2.24a6.11 6.11 0 0 0 1.49 2.63c.8.78 1.98 1.25 3.22 1.3a4.97 4.97 0 0 0 3.23-1.33Zm-1.2-4.7c.34 0 .6.25.6.59 0 .34-.26.6-.6.6a.59.59 0 0 1-.6-.6c0-.34.27-.6.6-.6Zm-2.94 1.16.97-.96.54.55-.67.67.67.68-.54.55-.97-.97c-.13-.13-.13-.36 0-.52Zm-1.4 0a.59.59 0 0 1-.6-.6c0-.33.26-.6.6-.6.34 0 .6.27.6.6-.03.34-.29.6-.6.6Zm.52 2.5.55-.55a1.75 1.75 0 0 0 2.5 0l.54.55c-.47.47-1.12.75-1.8.75a2.73 2.73 0 0 1-1.79-.75Z"/><path fill="#1E2F68" d="M71.71 22.24c-.05.03-.1.03-.16.03-.05 0-.1 0-.13-.03l-2.2-.83.46 2.68 2.3-1.74a.52.52 0 0 1 .28-.08c.1.03.2.08.26.16l.96 1.4a.4.4 0 0 1-.08.52l-2.03 1.72c.44.36.73.86.86 1.22l6.74 2.79-.29.72-6.55-2.7-1.25 2.63-.03-.03.18 1.12 5.65 3.64a2.87 2.87 0 0 0 4.37-2.84l-1.4-9.67a4.44 4.44 0 0 0-3.13-3.6l-3.35-.98-1.25 3.67a.43.43 0 0 1-.2.2Z"/><path fill="#FFDA87" d="m72.1 23.23-2.29 1.75.08.52c.29.02.55.1.78.18L72.62 24l-.52-.78Z"/><path fill="#EC932D" d="M74.47 41.03c-1.25.02-2.55.05-3.83.05h-.2v1.12c0 .96-.68 1.74-1.6 1.92v1.2h1.52c.2 0 .36.16.39.37l2.6 31.66h6.32L77.85 44.1c-2.76-.57-3.23-2.37-3.38-3.07Z"/><path fill="#fff" d="M74.62 80.31v2.19h7.76c.15-.03.57-.6.52-1.33-.08-1.01-1.1-1.59-2.84-1.61-.26.18-.99.62-1.92.94-1.3.39-2.5.33-3.52-.19Z"/><path fill="#FFDAE2" d="M71.16 15.06c-.72.37-1.56.55-2.39.58a6.1 6.1 0 0 1-2.4-.58v2.3l2.45 3.32 2.37-3.33v-2.29h-.03Z"/><path fill="#1E2F68" d="m63.05 7.02.08.21a1.22 1.22 0 0 0 1.74.7 9.21 9.21 0 0 1 3.88-1.04 9.1 9.1 0 0 1 3.87 1.05c.31.15.7.18 1.04.05.34-.13.6-.4.7-.76l.08-.2c-.65-.37-2.6-1.3-5.7-1.3s-5.04.93-5.7 1.3Z"/><path fill="#1E2F68" d="M74.55 6.2a5.78 5.78 0 0 0-1.3-3.55c-1-1.14-2.5-1.77-4.5-1.87-2 .1-3.52.73-4.5 1.87a5.95 5.95 0 0 0-1.3 3.54 12.7 12.7 0 0 1 5.8-1.25c2.93 0 4.89.78 5.8 1.25Z"/><path fill="#fff" d="m69.68 20.79 1.64.6 1.1-3.26-.7-.2-2.04 2.86Z"/><path fill="#FFDAE2" d="M71.5 27.58c-.1-.31-.47-1.1-1.45-1.28l.54 3.15.91-1.87Z"/><path fill="#fff" d="M62.35 80.47a7.2 7.2 0 0 1-1.93-.94c-1.74.03-2.73.6-2.84 1.62-.05.72.37 1.3.52 1.32h7.73V80.3c-.99.54-2.18.6-3.48.18Z"/><path fill="#FFDAE2" d="M60.91 78.96c.63.42 3.05 1.77 4.92.44v-1.25h-4.92v.81Z"/><path fill="#EC932D" d="M66.59 45.35h1.5v-4.27c-1.58-.03-3.07-.08-4.29-.13a7 7 0 0 1-2.63 3.4l-.6 33.02h6.25l1.72-31.24H66.6v-.78h-.02Zm-1.7 16.67-.49-.6a5.77 5.77 0 0 0 1.4-1.66l.68.36a5.9 5.9 0 0 1-1.59 1.9Z"/><path fill="#FFDAE2" d="m58.68 34.52-.26-2.03a1.09 1.09 0 0 0-.63-.83 1 1 0 0 0-1.14.21 2 2 0 0 0-.57 1.9l.28 1.22c.08.29.26.55.52.68a1 1 0 0 0 .86.05l.23-.08c.47-.18.76-.65.7-1.12Zm16.05 6.51c-.03-.03-.08-.03-.1-.03.02.03.05.03.1.03Z"/><path fill="#EC932D" d="M62.97 40.9c-.73-.03-1.33-.08-1.74-.08l-.06 2.58a6.87 6.87 0 0 0 1.8-2.5Zm6.71 1.3v-1.12h-.8v2.26c.46-.15.8-.6.8-1.14Z"/><path fill="#1E2F68" d="M71.55 37.41H61.2l-.23 2.6c1.97.13 10.84.6 16.98.03l-.26-3.38a3.6 3.6 0 0 1-1.4-.55l-5.05-3.25.73 4.1c.03.11 0 .24-.08.32-.13.08-.23.13-.34.13Z"/><path fill="#EC932D" d="m77.82 43.32-.13-2.47c-.78.07-1.58.13-2.41.15.15.65.57 1.82 2.54 2.32Z"/><path fill="#FFDAE2" d="m79.54 78.99-.1-.84h-4.95l.1 1.25c1.9 1.33 4.28 0 4.95-.41Z"/><path fill="#fff" d="m68.04 20.97-2.26-3.04-1.04.23 1.33 2.81h1.97ZM57.92 31.18c.58.26 1 .81 1.07 1.46l.26 2.03c.1.78-.31 1.53-1.01 1.87l.05.37h12.59L68.28 22h-12.6l1.6 9.05c.23 0 .44.06.64.13Z"/><path fill="#1E2F68" d="m63.96 18.34-2.3.52a4.47 4.47 0 0 0-2.85 2.1h6.4l-1.25-2.62Z"/><path fill="#1A1A1A" d="M70 11.97a1.75 1.75 0 0 1-2.5 0l-.55.57c.47.47 1.12.75 1.8.75.67 0 1.32-.26 1.79-.75l-.55-.57Zm-1.2-.42.54-.55-.67-.67.67-.68-.54-.54-.97.96a.38.38 0 0 0 0 .54l.97.94Zm-2.37-2.68c-.34 0-.6.26-.6.6 0 .34.26.6.6.6.34 0 .6-.26.6-.6-.03-.34-.29-.6-.6-.6Zm4.34 1.17c.34 0 .6-.26.6-.6a.6.6 0 0 0-.6-.6.6.6 0 0 0-.6.6c0 .34.27.6.6.6Z"/><path fill="#1A1A1A" d="M55.11 21.1c-.08.08-.1.2-.08.31l1.67 9.5c-.2.08-.4.2-.57.36-.7.68-1.02 1.7-.78 2.63l.28 1.22a1.77 1.77 0 0 0 1.77 1.4c.1 0 .18 0 .29-.02l.1.57c.03.19.18.32.4.32h2.26l-.26 2.91c0 .1.02.2.07.29.06.05.13.1.21.13l-.67 37c0 .1.02.2.1.28.08.08.16.1.26.1v.65c-1.9.08-2.7.8-3.04 1.4-.5.87-.29 1.83.05 2.4.26.44.62.7.96.7h8.12a.4.4 0 0 0 .39-.39V78.1h.54a.4.4 0 0 0 .4-.36l1.71-31.66h.73l2.6 31.66c.03.2.18.36.4.36h.72l.13 1.48v3.28c0 .21.18.4.4.4h8.1c.37 0 .71-.27.97-.71.34-.57.55-1.53.05-2.4-.36-.6-1.17-1.32-3.1-1.4l-.07-.67c.05-.03.13-.06.15-.1a.4.4 0 0 0 .1-.3l-2.02-36.96c.18-.06.31-.21.29-.42l-.3-3.67a3.66 3.66 0 0 0 3.4-4.16l-1.44-9.68a5.22 5.22 0 0 0-3.67-4.24l-4.81-1.4v-2.53a6.3 6.3 0 0 0 2.21-3.28 2.99 2.99 0 0 0 1.59-2.03 2.5 2.5 0 0 0-.57-2.03l.1-.28c0-.03.03-.05.03-.1 0-.11.26-2.76-1.49-4.77C72.65.81 70.96.1 68.72 0h-.03c-2.23.1-3.93.83-5.07 2.13-1.72 2-1.48 4.63-1.48 4.76 0 .03 0 .06.02.1l.1.3c-.49.6-.7 1.3-.57 2.02.16.84.73 1.56 1.6 2.03a6.3 6.3 0 0 0 1.63 2.81c.18.19.36.34.57.47v2.55l-4.06.91a5.29 5.29 0 0 0-3.56 2.86h-2.52a.9.9 0 0 0-.24.16ZM58 35.62l-.23.07c-.29.1-.6.08-.86-.05a1.06 1.06 0 0 1-.52-.67l-.29-1.23a2 2 0 0 1 .57-1.9 1.1 1.1 0 0 1 1.15-.2c.34.15.57.46.62.83l.26 2.03c.03.5-.26.96-.7 1.12Zm7.83 46.88H58.1c-.15-.03-.6-.6-.52-1.33.08-1.01 1.1-1.59 2.84-1.61.26.18.99.62 1.93.94 1.3.41 2.5.33 3.5-.19v2.19h-.02Zm0-3.1c-1.9 1.33-4.3-.02-4.92-.44v-.83h4.92v1.27Zm.96-2.03h-6.24l.6-33.01a7 7 0 0 0 2.63-3.41c1.22.05 2.7.1 4.29.13v4.27h-1.51v.78h1.92L66.8 77.37Zm5.16-40.4-.73-4.11 5.04 3.25c.45.29.91.47 1.4.55l.27 3.38c-6.11.57-15.01.1-16.99-.03l.23-2.6h10.36a.4.4 0 0 0 .29-.13c.1-.08.13-.2.13-.31Zm5.87 6.35c-1.97-.5-2.39-1.64-2.57-2.32.83-.02 1.66-.1 2.42-.15l.15 2.47Zm-3.1-2.3c-.04 0-.07 0-.1-.02.03.03.06 0 .1.03Zm-5.04.06v1.12c0 .52-.34.96-.8 1.12v-2.27c.26.03.52.03.8.03Zm-6.71-.18a6.42 6.42 0 0 1-1.8 2.47l.06-2.58c.41.03 1.01.08 1.74.1Zm11.55 37.23h4.94l.1.83c-.67.42-3.04 1.74-4.9.42l-.14-1.25Zm8.38 3.04c.05.73-.37 1.3-.52 1.33h-7.76v-2.2a4.6 4.6 0 0 0 3.52.19 7.2 7.2 0 0 0 1.92-.94c1.75.02 2.73.6 2.84 1.61Zm-3.2-3.8h-6.32l-2.6-31.66a.4.4 0 0 0-.4-.36h-1.5v-1.2a1.98 1.98 0 0 0 1.58-1.93v-1.11h.21c1.28 0 2.55-.03 3.8-.06v.03c.18.68.62 2.47 3.4 3.07l1.83 33.22Zm-3.18-58.01c1.64.5 2.9 1.9 3.13 3.59l1.43 9.67a2.86 2.86 0 0 1-4.37 2.84l-5.65-3.64-.18-1.12.02.03 1.25-2.63 6.56 2.7.29-.72-6.74-2.79a2.72 2.72 0 0 0-.86-1.22l2.03-1.72a.4.4 0 0 0 .08-.52l-.97-1.4c-.05-.08-.15-.16-.26-.16a.3.3 0 0 0-.28.08l-2.3 1.74-.46-2.68 2.21.83c.05.03.08.03.13.03s.1 0 .16-.03c.1-.05.15-.13.2-.23l1.25-3.67 3.33 1.02Zm-5.02 8.22-.88 1.87-.55-3.15c.96.21 1.33 1 1.43 1.28Zm-1.58-2.08-.08-.52 2.29-1.75.54.78-1.95 1.67a2.8 2.8 0 0 0-.8-.18Zm-1.12-4.82-2.45-3.33v-2.29c.73.37 1.56.55 2.4.58a6.1 6.1 0 0 0 2.39-.58v2.3l-2.34 3.32Zm3.61-2.55-1.09 3.26-1.64-.6 2.03-2.86.7.2ZM64.27 2.65c.99-1.14 2.5-1.77 4.5-1.87 2 .1 3.51.73 4.5 1.87a5.95 5.95 0 0 1 1.3 3.54 12.7 12.7 0 0 0-5.8-1.25c-2.91 0-4.86.78-5.8 1.25.03-.83.26-2.34 1.3-3.54Zm10.17 4.37-.08.21c-.1.37-.36.63-.7.76-.34.13-.7.1-1.01-.05a9.21 9.21 0 0 0-3.88-1.05 9.1 9.1 0 0 0-3.88 1.05c-.3.15-.7.18-1.04.05-.36-.13-.6-.4-.72-.76l-.08-.2c.65-.37 2.6-1.3 5.7-1.3s5.04.93 5.7 1.3Zm-8.9 6.56a5.9 5.9 0 0 1-1.48-2.63.31.31 0 0 0-.2-.23c-.7-.34-1.2-.91-1.33-1.54-.08-.39 0-.75.2-1.09a2.02 2.02 0 0 0 2.5.55 8.33 8.33 0 0 1 3.54-.97c1.33 0 2.65.53 3.54.97.29.13.6.2.91.2.26 0 .52-.05.75-.15.34-.13.63-.34.84-.62.2.33.26.72.2 1.09-.1.62-.6 1.2-1.32 1.53a.37.37 0 0 0-.21.24A6.05 6.05 0 0 1 72 13.55a4.68 4.68 0 0 1-6.45.03Zm.24 4.35 2.24 3.04h-1.95l-1.33-2.81 1.04-.23Zm-4.11.9 2.29-.51 1.25 2.62h-6.4a4.55 4.55 0 0 1 2.86-2.1Zm6.81 2.92 2.6 14.9H58.5l-.05-.36a1.8 1.8 0 0 0 1.02-1.87l-.26-2.03c-.08-.62-.5-1.2-1.07-1.46a1.5 1.5 0 0 0-.65-.15l-1.59-9.06h12.6v.03Z"/><path fill="#1A1A1A" d="m64.4 61.43.5.6a6.2 6.2 0 0 0 1.58-1.9l-.67-.37a5.11 5.11 0 0 1-1.41 1.67ZM51.7 6.95h3.75a.4.4 0 0 0 .4-.4v-1.7h-.79v1.33h-2.97V4.84h-.78v1.72c0 .2.19.39.4.39Z"/><path fill="#1A1A1A" d="M53.58 5.39c.1 0 .2-.03.28-.1l3.57-3.57-.55-.55-3.3 3.3-1.59-1.58-.55.54 1.88 1.88c.05.05.15.08.26.08Zm-1.88 9.47h3.75a.4.4 0 0 0 .4-.4v-1.74h-.79v1.33h-2.97v-1.33h-.78v1.72c0 .23.19.42.4.42Z"/><path fill="#1A1A1A" d="m51.96 10.77-.54.55 1.87 1.87c.08.08.18.1.29.1.1 0 .2-.05.28-.1l3.57-3.56-.55-.55-3.3 3.3-1.62-1.6Z"/></svg>