<svg xmlns="http://www.w3.org/2000/svg" width="32" height="29" fill="#1e2f68"><path d="M4.668 12.716c-.018-.372-.244-.71-.598-.897-.373-.196-.748-.243-1.143-.238a1.85 1.85 0 0 0-.405.054l-.056.012c-.935.187-1.596.967-1.621 1.902l.004 4.872a1.98 1.98 0 0 0 1.811 1.891c1.073.068 1.986-.464 2.058-1.582.126-1.937-.009-3.888-.043-5.833l-.006-.181zm23.588-1.029l-.872.193.046.664c.043 1.585-.081 3.182-.272 4.76-.097.802-.365 1.638-.791 2.341-.504.832-1.189 1.596-1.923 2.285-.898.843-3.088 2.429-3.55 1.816-.634-.841-1.566-.856-2.535-.847a80.78 80.78 0 0 1-2.994-.032c-1.014-.028-2.113.729-2.189 1.536-.118 1.255.459 2.081 1.72 2.172 1.44.104 2.895.083 4.341.044.781-.021 1.444-.309 1.747-1.079.071-.18.418-.298.663-.388a11.37 11.37 0 0 0 4.771-3.339c.49-.575.881-1.22 1.313-1.826 2.284.773 3.454.026 3.456-2.172l.002-3.503c0-1.239-.162-1.839-.857-2.29-.599-.387-1.363-.5-2.075-.335zM7.142 20.29c.269.729.727 1.337 1.816 1.187l1.116 5.006c.032.148.017.385-.086.464L7.266 29h17.422c-.729-.596-1.506-.972-2.434-1.625-.487-.343-.652-.74-.413-1.305.042-.099.067-.204.084-.311l-.054.02-.259.103c-.395.871-1.227 1.365-2.356 1.396l-2.018.032a33.34 33.34 0 0 1-2.401-.078c-.744-.054-1.359-.32-1.779-.772-.476-.511-.685-1.241-.603-2.111.105-1.118 1.466-2.137 2.854-2.137l.077.001 2.336.034.628-.003.24-.001c.676 0 1.904 0 2.758.962.273-.079.765-.351 1.297-.714l.311-1.062c1.019.155 1.491-.435 1.769-1.131.375-.937.668-1.906.934-2.874.138-.504.204-1.04.184-1.558-.012-.301-.254-.597-.399-.892-.113-.231-.328-.454-.338-.686-.041-1.026.092-2.069-.062-3.078-.137-.897-.375-1.877-.92-2.601-.713-.947-1.713-1.744-2.695-2.492-3.221-2.453-7.119-2.589-10.517-.338-1.008.667-1.812 1.583-2.757 2.335-.74.589-1.159 1.322-1.239 2.17-.123 1.305-.128 2.62-.188 3.93-.009.207.037.535-.082.602-1.008.569-.746 1.416-.554 2.183.278 1.112.65 2.208 1.05 3.291zm3.875-17.83c.273.288.687.393 1.063.266 2.12-.716 4.431-.849 6.767-.3l.321.079c.34.088.7-.008.955-.25l.053-.05c.58-.552.33-1.529-.443-1.733a14.26 14.26 0 0 0-8.305.313c-.704.243-.922 1.134-.409 1.675zm14.112 1.5a12.71 12.71 0 0 0-2.501-1.892.93.93 0 0 0-1.06.092c-.415.358-.338.977.154 1.244 2.408 1.309 4.069 3.384 5.069 6.025a10.2 10.2 0 0 1 .5 1.801l1.609-.37a13.11 13.11 0 0 0-3.771-6.9zM9.92 2.545c-.294-.281-.771-.323-1.117-.096a12.77 12.77 0 0 0-1.419 1.08c-2.323 2.038-3.707 4.519-4.242 7.399a2.88 2.88 0 0 1 1.2.277l.347.189C5 9.634 5.696 8 6.819 6.503a11.51 11.51 0 0 1 2.979-2.78c.426-.274.49-.827.13-1.171l-.008-.007z"/></svg>