<svg xmlns="http://www.w3.org/2000/svg" fill="#1e2f68" viewBox="0 0 32 29"><path d="M4.7 12.7a1 1 0 0 0-.6-.9 2.3 2.3 0 0 0-1.2-.2 1.9 1.9 0 0 0-.4 0 2 2 0 0 0-1.7 2v4.8a2 2 0 0 0 1.9 2c1 0 2-.5 2-1.7v-6zm23.6-1-1 .2.1.6c0 1.6 0 3.2-.2 4.8a6 6 0 0 1-.8 2.3c-.5.9-1.2 1.6-2 2.3-.9.9-3 2.5-3.5 1.9-.6-.9-1.6-1-2.5-.9a80.8 80.8 0 0 1-3 0c-1 0-2.1.7-2.2 1.5-.1 1.3.4 2 1.7 2.2h4.3c.8 0 1.5-.3 1.8-1 0-.2.4-.4.6-.5a11.4 11.4 0 0 0 4.8-3.3l1.3-1.8c2.3.8 3.5 0 3.5-2.2v-3.5c0-1.2-.2-1.8-.9-2.3-.6-.4-1.3-.5-2-.3zM7 20.3c.3.7.8 1.3 1.9 1.2l1 5v.5l-2.7 2h17.4c-.7-.6-1.5-1-2.4-1.6-.5-.4-.7-.8-.5-1.3l.1-.3h-.3c-.4 1-1.2 1.5-2.3 1.5h-2a33.3 33.3 0 0 1-2.5 0 2.6 2.6 0 0 1-1.7-.8 2.6 2.6 0 0 1-.6-2.1c0-1.2 1.4-2.2 2.8-2.2h3.3c.7 0 1.9 0 2.7 1 .3 0 .8-.3 1.4-.7l.3-1c1 0 1.5-.5 1.7-1.2l1-2.9c.1-.5.2-1 .1-1.5 0-.3-.2-.6-.4-1l-.3-.6v-3a5.8 5.8 0 0 0-1-2.7 13.7 13.7 0 0 0-2.7-2.5A8.7 8.7 0 0 0 11 5.8L8.1 8A3.1 3.1 0 0 0 7 10.3l-.2 3.9v.6c-1 .6-.8 1.4-.6 2.2a33 33 0 0 0 1 3.3zm4-17.8a1 1 0 0 0 1 .2 12.2 12.2 0 0 1 6.7-.3l.4.1c.3 0 .7 0 1-.2a1 1 0 0 0-.5-1.8 14.3 14.3 0 0 0-8.3.3 1 1 0 0 0-.4 1.7zM25 4a12.7 12.7 0 0 0-2.5-2 1 1 0 0 0-1 .2c-.5.3-.4 1 .1 1.2a11 11 0 0 1 5 6 10.2 10.2 0 0 1 .6 1.8l1.6-.3a13.1 13.1 0 0 0-3.8-7zM10 2.5a1 1 0 0 0-1 0 12.8 12.8 0 0 0-1.5 1A12.7 12.7 0 0 0 3 11a2.9 2.9 0 0 1 1.2.3l.4.2C5 9.6 5.7 8 6.8 6.5a11.5 11.5 0 0 1 3-2.8.7.7 0 0 0 .1-1.1z"/></svg>