<svg xmlns="http://www.w3.org/2000/svg" fill="none" viewBox="0 0 126 103"><path fill="#FFDAE2" d="m33.23 97.65-.1-.82-6.13.14.12 1.2c2.33 1.65 5.28.01 6.11-.52Zm.57-41.79-3.16-.8a.48.48 0 0 1 .03-.94c.6-.11 1.34-.42 1.45-.67 0-.01.02-.04-.04-.14-.26-.43-1.92-.25-3.27.2L25 56c.57.53 2.08 1.55 5.5 1.96a6.4 6.4 0 0 0 3.5-.36.9.9 0 0 0 .52-.93.92.92 0 0 0-.7-.81Z"/><path fill="#fff" d="M27.15 99.3v2.73h9.61c.2-.03.73-.75.65-1.66-.11-1.26-1.36-1.97-3.51-2-.34.22-1.24.79-2.4 1.15-1.63.5-3.11.43-4.35-.21Z"/><path fill="#FFDA87" d="M86.1 28.87H75.45v3.76h10.67v-3.76Z"/><path fill="#EC932D" d="M30.4 58.92a12.85 12.85 0 0 1-5.2-1.56c-.48-.3-.8-.6-1.02-.81l-1.08.71a.48.48 0 0 1-.6-.06l-2.82-2.78-.54.01c-2.31 0-5.46-.61-7.3-1.02a23.55 23.55 0 0 0-1.18 5.56l-1.4 15.9-.02.1-5.27 17.56 7.13 2.78 5.64-15.94a37.7 37.7 0 0 0 1.64-6.34l2.29-13.68c.04-.24.24-.4.47-.4h4.1v.96h-3.2L26 96.02l7.63-.17-2.87-36.9-.36-.03ZM13.53 77.64a4.94 4.94 0 0 1-2.22-3l.94-.23c.25 1 .9 1.87 1.78 2.4l-.5.83Z"/><path fill="#E8BE90" d="M44.3 27.1h-3.2a2.4 2.4 0 0 1-2.26-1.56h-12.4v23.93l2.34 3.03c.33-.1.87-.23 1.45-.32 1.41-.21 2.3 0 2.68.63.26.44.2.8.1 1.03-.13.28-.36.5-.63.66l1.66.42c.35.09.65.26.89.5h54.25V25.54H46.54a2.41 2.41 0 0 1-2.25 1.55Zm30.18 1.29c0-.27.21-.48.48-.48h11.63c.26 0 .48.21.48.48v4.73c0 .26-.22.48-.48.48H74.96a.48.48 0 0 1-.48-.48v-4.73Z"/><path fill="#fff" d="M90.83 97.63a.48.48 0 0 1-.06-.65l.82-1.1-.6-.7-2.28.77c-.92.3-1.88.5-2.84.56a1.1 1.1 0 0 0-.9 1.6c.13.26.36.46.64.54l10.2 3.26.87-2.73c-1.71.05-4.75-.57-5.85-1.55Z"/><path fill="#C5A17C" d="M101.97 54.5a1.6 1.6 0 0 1-.63-.66c-.1-.23-.17-.6.1-1.03.3-.5.9-.73 1.82-.7V25.53H90.14v29.88h9.28c.24-.24.54-.41.89-.5l1.66-.42Z"/><path fill="#C5876D" d="M22.6 13.43a1.22 1.22 0 0 0 .57-1.71v-.02c-.48-.89-.35-2 .28-2.62.18-.17.39-.32.64-.44l.03-.01a2.14 2.14 0 0 1 2.98 2.13l-.03.54h.56l1.13-3.96a9.09 9.09 0 0 1-4.75-1.81l.63-.73c.15.13 3.77 3.14 8.97.6l.21.44-.18-.44c.26-.11.5-.6.43-1.28-.12-1.12-1.03-2.47-3.24-2.9-5.36-1.05-7.08 1.43-7.1 1.46a.48.48 0 0 1-.32.2 4.8 4.8 0 0 0-3.47 2.17 5.56 5.56 0 0 0-.36 4.56 30.5 30.5 0 0 0 1.79 4.32l1.23-.5Zm5.01-9.7h.06c1.23 0 2.49-.36 3.54-1.01l.5.81a7.73 7.73 0 0 1-4.04 1.17h-.06v-.97Z"/><path fill="#FFDAE2" d="m92.2 95.1.38.43c.15.17.16.43.02.61l-.76 1.02a11.4 11.4 0 0 0 5.18 1.04l.98-2.53-5.4-1.54-.4.98ZM41.1 26.13h3.2a1.44 1.44 0 0 0 .83-2.61l-.2-.14a4.9 4.9 0 0 0-4.26-.69c-.61.19-1.02.74-1.02 1.38v.62c0 .8.65 1.44 1.44 1.44ZM34.02 8.65a7.4 7.4 0 0 0-.45-2.16c-1.39.6-2.68.85-3.8.88l-1.31 4.55a.48.48 0 0 1-.46.34h-1.43a.48.48 0 0 1-.49-.5l.06-1.06a1.2 1.2 0 0 0-.52-1.09 1.1 1.1 0 0 0-1.1-.1h-.02a1.3 1.3 0 0 0-.36.25c-.34.34-.4.98-.13 1.49.31.57.36 1.23.15 1.82a2.1 2.1 0 0 1-1.2 1.25l-1.37.56-.52 4.53c1.55 1.91 3.05 2.88 4.34 2.82a2.8 2.8 0 0 0 2-1.12l.27-2.45a.48.48 0 0 1 .52-.43 4.46 4.46 0 0 0 3.87-1.75c-.8-.1-1.72-.54-2.13-1.81l.92-.3c.39 1.2 1.4 1.2 1.81 1.14a4.7 4.7 0 0 1 1.75-2.03c.23-.12.4-.26.51-.42.34-.5.23-.64-.09-1.04-.07-.1-.15-.18-.22-.29-.52-.76-.55-1.64-.58-2.5 0-.2 0-.4-.02-.59Zm-1.93 2.85a.73.73 0 1 1-.14-1.46.73.73 0 0 1 .14 1.46Z"/><path fill="#1E2F68" d="m22.9 56.24 5-3.3-10.13-13.11.76-.6.33.43 1.03-10.92.96.09-1.13 11.94 5.75 7.45V25.05c0-.26.22-.48.48-.48h7.57c-.4-.34-.86-.62-1.34-.84l-4.16-1.85a3.67 3.67 0 0 1-2.74 1.32c-1.54 0-3.17-1.02-4.84-3.03l-5.21 2.85a5.62 5.62 0 0 0-2.88 4.25l-1.68 13.87c-.2 1.71.38 3.4 1.61 4.61l10.61 10.5Z"/><path fill="#FFDAE2" d="m103.7 55.06-3.16.8a.92.92 0 0 0-.7.81.9.9 0 0 0 .51.93 6.4 6.4 0 0 0 3.48.37c3.42-.41 4.93-1.43 5.5-1.97l-3.8-2.5c-1.34-.44-3-.62-3.27-.19-.06.1-.04.13-.04.14.12.25.86.56 1.46.67a.48.48 0 0 1 .02.94Z"/><path fill="#fff" d="M118.3 99.46a.48.48 0 0 1-.27-.6l.45-1.3-.79-.47-1.94 1.42c-.78.57-1.63 1.04-2.53 1.4a1.1 1.1 0 0 0-.37 1.8c.2.2.48.32.78.32h10.71v-2.87c-1.62.57-4.7.9-6.05.3Z"/><path fill="#EC932D" d="m122.63 75.55.4-15.37c.06-2.3-.33-4.53-1.15-6.66h-6.3l-3.73 3.68a.48.48 0 0 1-.6.06l-1.1-.71c-.62.65-2.3 1.91-6.2 2.37-.45.06-.89.08-1.3.08-.8 0-1.53-.1-2.16-.31l-8.02 34.4 7.35 2.1 10.13-34.68h-1.6v-.96h4.97c.26 0 .47.2.48.46l.66 16.4 2.79 17.98h7.24l-1.86-18.78a.4.4 0 0 1 0-.06Zm-3.52 3.83-.73-.62a4.73 4.73 0 0 0 1.13-3.36l.96-.06a5.7 5.7 0 0 1-1.35 4.04Z"/><path fill="#FFDAE2" d="M119.1 98.71c1.4.3 4.14-.1 5.2-.57l-.3-2.78h-5.37l.24 1.31.44.27c.2.11.29.35.21.57l-.41 1.2ZM106.54 19.1l.3 2.06 1.67 4.02 4.95-5.45-.8-4.4-3.86-1.57a.48.48 0 0 1-.01-.89c.47-.2 1.1-.57 1.42-1.17.27-.51.22-1.15-.12-1.49a1.3 1.3 0 0 0-.37-.24 1.96 1.96 0 0 0-1.8.1l-.47 2a.48.48 0 0 1-.93.03l-.86-2.73a2.98 2.98 0 0 1-2.02-2.02l-.1-.37c-.53-.09-1.6-.3-2.54-.71a7.33 7.33 0 0 0-.82 3.41c-.03.86-.06 1.75-.58 2.5l-.21.3c-.32.4-.44.54-.1 1.03.12.16.29.3.52.43a4.7 4.7 0 0 1 1.74 2.03c.43.05 1.43.05 1.82-1.14l.91.3a2.45 2.45 0 0 1-2.13 1.8 4.46 4.46 0 0 0 3.87 1.75c.26-.02.48.16.52.41Zm-4.4-7.15a.73.73 0 1 1 .14-1.45.73.73 0 0 1-.14 1.45Z"/><path fill="#1E2F68" d="M104.22 25.05V52.2c.54.09 1.04.21 1.35.3l9.06-11.73-1.14-11.94.96-.1 1.04 10.93.33-.42.76.58-10.13 13.12 5 3.3 10.61-10.5a5.52 5.52 0 0 0 1.61-4.6L122 27.27a5.62 5.62 0 0 0-2.88-4.25l-2.85-1.56-4.3 6.6a.48.48 0 0 1-.64.16l-2.95-1.6-2.36 1.58a.49.49 0 0 1-.75-.32l-.96-5.34-1.58.56c-.9.33-1.7.83-2.4 1.47h3.4c.28 0 .5.22.5.48Zm4.08 2.9a.44.44 0 1 1 0 .88.44.44 0 0 1 0-.89Zm0 8.57a.44.44 0 1 1 0 .89.44.44 0 0 1 0-.89Zm0 8.58a.44.44 0 1 1 0 .89.44.44 0 0 1 0-.9Z"/><path fill="#C5876D" d="M101.02 5.21c1.19.62 2.93.86 2.95.86.19.03.35.16.4.35l.2.66a2 2 0 0 0 1.56 1.41.5.5 0 0 1 .37.33l.41 1.33.12-.49c.03-.11.1-.2.18-.28a2.9 2.9 0 0 1 2.92-.29c.25.12.47.27.64.44.63.63.76 1.73.3 2.62-.22.41-.56.78-.99 1.1l2.8 1.15a20 20 0 0 0 1.43-2.67c.93-2.12 1.17-3.82.72-4.94-1.12-2.71-3.36-2.93-3.46-2.94a.49.49 0 0 1-.35-.2c-.02-.02-1.56-2.14-4-2.4-1.94-.21-5.2.78-6.57 1.99-.38.33-.58.65-.58.91-.01.37.31.73.95 1.06Zm5.29.08a4.6 4.6 0 0 0 3.88-1.02l.63.72a5.6 5.6 0 0 1-4.7 1.25l.19-.95Z"/><path fill="#fff" d="m107.76 25.88-1.65-3.98-.88.31.86 4.78 1.67-1.1Z"/><path fill="#1E2F68" d="M116.55 52.55h6.13l-.78-5.28-5.35 5.28Z"/><path fill="#fff" d="m111.4 27.16 4.02-6.16-1.22-.66-5.07 5.6 2.27 1.22Z"/><path fill="#1A1A1A" d="M124 60.2a18 18 0 0 0-1.1-6.68h.34a.48.48 0 0 0 .48-.55l-.95-6.46-.12.02.1-.1a6.48 6.48 0 0 0 1.88-5.4l-1.67-13.87a6.59 6.59 0 0 0-3.38-4.99l-5.22-2.84-.77-4.23c.63-.97 3.55-5.71 2.33-8.68a5.45 5.45 0 0 0-4.05-3.5 7.13 7.13 0 0 0-4.55-2.63c-2.23-.24-5.71.82-7.3 2.23-.6.52-.9 1.06-.92 1.61 0 .65.34 1.21 1.05 1.69a8.29 8.29 0 0 0-.93 3.83c-.03.75-.05 1.46-.42 2l-.17.23c-.33.41-.88 1.1-.12 2.19.2.28.47.52.83.71.64.36 1 1 1.38 1.68.19.33.38.67.6.99a5.45 5.45 0 0 0 4.33 2.21l.19 1.3-3.43 1.24a7.96 7.96 0 0 0-3.4 2.37H46.69a2.4 2.4 0 0 0-1-1.83l-.2-.14a5.87 5.87 0 0 0-5.1-.83 2.4 2.4 0 0 0-1.7 2.3v.5h-3.8a6.63 6.63 0 0 0-2.32-1.72L28.4 21l.2-1.78a5.46 5.46 0 0 0 4.3-2.21c.23-.32.43-.66.61-1 .38-.67.74-1.31 1.38-1.67.36-.2.64-.43.84-.71.76-1.08.2-1.78-.13-2.2l-.17-.23c-.36-.53-.39-1.24-.41-1.99l-.03-.62a8.2 8.2 0 0 0-.56-2.57c.45-.42.69-1.16.6-1.99-.14-1.46-1.28-3.21-4.01-3.75-5.2-1-7.4 1.06-7.95 1.7a5.68 5.68 0 0 0-3.95 2.59 6.45 6.45 0 0 0-.45 5.36c.83 2.5 1.72 4.23 1.99 4.72l-.54 4.62-5.35 2.92a6.59 6.59 0 0 0-3.37 4.98L9.7 41.02a6.48 6.48 0 0 0 1.9 5.42l.08.08-1.7 5.93a.48.48 0 0 0 .33.6l.57.14a24.87 24.87 0 0 0-1.2 5.7L8.3 74.74 2.93 92.66l-.74 1.83-1.64 3.74c-.1.25 0 .53.25.64l9.25 4.05c.12.05.26.08.4.08.32 0 .69-.14 1.05-.4a3.03 3.03 0 0 0 1.24-2.7c-.1-.85-.66-2.06-2.74-3.1l.39-.74.83.33a.48.48 0 0 0 .38-.01.48.48 0 0 0 .25-.28l5.8-16.4c.75-2.12 1.32-4.3 1.69-6.5l1.93-11.53 3.82 34.9a.5.5 0 0 0 .48.43h.01l.46-.01.15 1.46v4.07c0 .26.22.48.48.48h10.1c.44 0 .88-.32 1.2-.88.4-.7.67-1.9.05-2.96-.43-.75-1.46-1.65-3.84-1.74l-.07-.61h.06a.48.48 0 0 0 .47-.52L31.73 59c1.04 0 1.94-.19 2.68-.54a1.87 1.87 0 0 0 1.03-2.08H98.9a1.86 1.86 0 0 0 .7 1.87l-8.2 35.07c-.05.21.05.43.24.53l-.18.45a.48.48 0 0 0-.5-.13l-2.58.87c-.84.28-1.71.45-2.6.51a2.05 2.05 0 0 0-1.7 3c.26.5.69.86 1.22 1.03l10.66 3.4.15.02a.48.48 0 0 0 .46-.34l1.24-3.88 1.1-2.84 1.08.31c.05.02.1.02.14.02.2 0 .4-.14.46-.35l10.34-35.4h1.9l.64 15.96v.05l2.87 18.42c.03.24.23.41.47.41h.82l.12.69a.48.48 0 0 0-.4.08l-2.19 1.6c-.71.53-1.5.96-2.32 1.29a2.05 2.05 0 0 0-.7 3.38c.4.38.92.6 1.47.6l11.2-.01a.48.48 0 0 0 .48-.48v-4.1l-.02-.05-.31-3h.04a.48.48 0 0 0 .48-.53l-1.9-19.29.4-15.34Zm-1.32-7.64h-6.13l5.35-5.3.78 5.3Zm-8.48-32.22 1.22.66-4.02 6.17-2.27-1.24 5.08-5.6ZM100.08 4.15c0-.26.2-.58.58-.9 1.38-1.22 4.63-2.21 6.57-2 2.44.26 3.98 2.38 4 2.4.08.12.21.19.35.2.1 0 2.34.23 3.46 2.94.46 1.12.2 2.83-.72 4.94a21.2 21.2 0 0 1-1.42 2.67l-2.8-1.15c.42-.32.76-.69.97-1.1.47-.89.34-1.99-.3-2.62a2.24 2.24 0 0 0-.63-.43 2.9 2.9 0 0 0-2.92.29.48.48 0 0 0-.18.27l-.11.49-.42-1.33a.48.48 0 0 0-.37-.33 2.02 2.02 0 0 1-1.56-1.41l-.2-.66a.48.48 0 0 0-.4-.34c-.02 0-1.76-.25-2.95-.87-.64-.33-.96-.69-.95-1.06Zm2.08 12.78c.8-.09 1.72-.54 2.13-1.8l-.91-.3c-.4 1.2-1.39 1.2-1.82 1.14a4.7 4.7 0 0 0-1.74-2.03c-.23-.12-.4-.27-.51-.43-.35-.49-.23-.64.09-1.03l.21-.3c.52-.75.55-1.64.58-2.5a7.32 7.32 0 0 1 .82-3.42c.95.42 2.02.63 2.53.72l.11.37a3 3 0 0 0 2.02 2.02l.86 2.73c.07.2.27.34.48.34.22 0 .4-.16.45-.37l.48-2a1.96 1.96 0 0 1 1.8-.1c.14.07.27.15.36.24.34.34.39.98.12 1.5-.31.59-.95.96-1.42 1.17a.48.48 0 0 0 0 .88l3.86 1.58.8 4.39-4.94 5.45-1.67-4.02-.3-2.06a.48.48 0 0 0-.52-.41 4.46 4.46 0 0 1-3.87-1.75Zm3.96 4.97 1.65 3.98L106.1 27l-.86-4.78.88-.31Zm-3.38 1.2 1.58-.56.96 5.35a.48.48 0 0 0 .75.31l2.37-1.57 2.94 1.6c.07.04.15.05.23.05.16 0 .31-.07.4-.22l4.3-6.6 2.86 1.56a5.62 5.62 0 0 1 2.88 4.25l1.67 13.87c.2 1.71-.38 3.4-1.6 4.61l-10.62 10.5-5-3.3 10.13-13.12-.76-.6-.33.43-1.03-10.92-.96.09 1.13 11.95-9.06 11.73c-.31-.1-.8-.22-1.35-.31V25.06a.48.48 0 0 0-.48-.49h-3.4a6.98 6.98 0 0 1 2.4-1.46Zm.95 31.02c-.6-.11-1.34-.42-1.45-.67-.01-.01-.03-.04.03-.14.27-.43 1.93-.25 3.28.2l3.8 2.5c-.58.53-2.1 1.55-5.5 1.96a6.4 6.4 0 0 1-3.48-.37.9.9 0 0 1-.52-.93.9.9 0 0 1 .7-.81l3.16-.8a.48.48 0 0 0-.02-.94ZM39.65 24.07c0-.64.41-1.19 1.02-1.38a4.83 4.83 0 0 1 4.26.7l.2.13a1.44 1.44 0 0 1-.84 2.61h-3.2c-.8 0-1.44-.65-1.44-1.44v-.62Zm-5.03-12.33.22.28c.31.4.43.55.09 1.04-.11.16-.28.3-.51.43a4.7 4.7 0 0 0-1.75 2.03c-.42.05-1.42.05-1.81-1.14l-.92.3a2.45 2.45 0 0 0 2.13 1.8 4.46 4.46 0 0 1-3.87 1.75.48.48 0 0 0-.52.43l-.27 2.45a2.8 2.8 0 0 1-2 1.13c-1.3.06-2.8-.91-4.34-2.83l.52-4.53 1.37-.56c.57-.23 1-.67 1.2-1.25.21-.59.16-1.24-.15-1.82-.27-.51-.21-1.15.12-1.49.1-.09.22-.17.37-.24l.02-.01a1.1 1.1 0 0 1 1.1.1c.36.25.55.65.51 1.1l-.05 1.05a.48.48 0 0 0 .49.5h1.42c.22 0 .4-.13.47-.34l1.3-4.55a10.2 10.2 0 0 0 3.81-.88 7.37 7.37 0 0 1 .47 2.75c.03.85.06 1.74.58 2.5ZM19.58 9.6c-.53-1.6-.4-3.31.36-4.56A4.8 4.8 0 0 1 23.4 2.9a.5.5 0 0 0 .32-.21c.02-.03 1.74-2.5 7.1-1.46 2.21.43 3.12 1.78 3.24 2.9.06.69-.17 1.17-.43 1.28l.18.44-.2-.43c-5.2 2.54-8.82-.48-8.98-.61l-.63.73c.05.04 1.08.92 2.84 1.45.54.17 1.18.3 1.91.36l-1.13 3.96h-.56l.03-.54a2.14 2.14 0 0 0-2.98-2.13l-.03.01a2.5 2.5 0 0 0-.64.44c-.63.63-.76 1.73-.29 2.62l.01.02c.17.32.2.7.08 1.02-.1.32-.34.56-.65.69l-1.23.5c-.35-.67-1.1-2.23-1.79-4.32Zm-8.9 31.53 1.67-13.87a5.62 5.62 0 0 1 2.88-4.25l5.21-2.85c1.67 2.01 3.3 3.03 4.84 3.03h.2a3.67 3.67 0 0 0 2.54-1.32l4.16 1.85c.48.22.94.5 1.34.84h-7.57a.48.48 0 0 0-.48.48v23.17l-5.75-7.45 1.13-11.94-.96-.1-1.04 10.93-.32-.42-.76.59L27.9 52.95l-5 3.3-10.62-10.5a5.51 5.51 0 0 1-1.6-4.61Zm1.79 6.15 6.24 6.17a45.15 45.15 0 0 1-7.66-1.22l1.42-4.95ZM3.65 93.44l5.83 2.27-.47.89c-.9.14-4.35.5-5.85-1.96l.49-1.2Zm8.03 7.33c-.29.87-1.06 1.31-1.25 1.26l-8.81-3.86 1.1-2.5a5.6 5.6 0 0 0 3.9 1.95 9.75 9.75 0 0 0 2.65-.09c1.96.9 2.82 2.04 2.41 3.24ZM27 96.97l6.13-.14.1.82c-.83.53-3.78 2.17-6.1.51l-.13-1.2Zm10.4 3.4c.09.91-.45 1.63-.64 1.66h-9.61v-2.72c1.24.64 2.72.72 4.35.21a9.69 9.69 0 0 0 2.4-1.15c2.15.03 3.4.74 3.5 2Zm-3.77-4.52-7.63.17-3.97-36.11h3.22v-.97h-4.1a.48.48 0 0 0-.48.4l-2.3 13.7a37.73 37.73 0 0 1-1.63 6.33L11.1 95.3l-7.13-2.78 5.27-17.57.02-.1 1.4-15.89c.17-1.9.56-3.76 1.17-5.56 1.85.4 5 1.02 7.31 1.02l.54-.01 2.81 2.78a.48.48 0 0 0 .6.06l1.1-.71c.2.22.53.5 1.02.8 1.26.79 3 1.32 5.2 1.57l.35.04 2.87 36.9ZM34 57.6a6.4 6.4 0 0 1-3.48.37c-3.42-.4-4.93-1.43-5.5-1.96l3.8-2.5c1.35-.45 3.01-.63 3.27-.2.06.1.05.13.04.14-.11.25-.85.56-1.45.67a.48.48 0 0 0-.03.94l3.17.8c.47.12.67.5.7.81a.9.9 0 0 1-.52.93Zm55.19-2.18H34.93a1.89 1.89 0 0 0-.89-.5l-1.66-.41c.27-.18.5-.4.62-.67.1-.23.17-.6-.1-1.03-.38-.64-1.26-.84-2.67-.63a12 12 0 0 0-1.45.32l-2.35-3.03V25.54h12.41a2.4 2.4 0 0 0 2.25 1.55h3.2c1.01 0 1.9-.63 2.25-1.55h42.64v29.88Zm10.24 0h-9.28V25.54h13.12V52.1c-.92-.02-1.52.22-1.82.71-.27.44-.2.8-.1 1.03.12.28.36.5.63.66l-1.67.42a1.9 1.9 0 0 0-.88.5Zm-3.6 46.49L85.6 98.66a1.1 1.1 0 0 1-.72-1.39c.14-.43.53-.73.98-.76.96-.07 1.92-.26 2.84-.56l2.27-.76.61.69-.82 1.1a.5.5 0 0 0 .06.65c1.1.98 4.14 1.6 5.86 1.55l-.87 2.73Zm1.2-3.71c-1.12.15-3.93-.32-5.18-1.04l.76-1.02a.48.48 0 0 0-.02-.6l-.38-.43.4-.98 5.4 1.55-.98 2.52Zm16.6 3.83a1.1 1.1 0 0 1-1.1-1.1c0-.45.28-.85.7-1.02.9-.36 1.75-.83 2.53-1.4l1.94-1.42.8.47-.46 1.3c-.08.24.03.5.26.6 1.34.6 4.43.27 6.05-.3v2.86l-10.71.01Zm5.7-5.1-.45-.26-.24-1.31H124l.3 2.78a11.4 11.4 0 0 1-5.2.57l.41-1.2a.48.48 0 0 0-.2-.57Zm5.17-2.54h-7.24l-2.8-17.98-.65-16.4a.48.48 0 0 0-.48-.46h-4.96v.96h1.58L99.82 95.2l-7.35-2.1 8.02-34.4c.63.2 1.36.31 2.17.31.4 0 .83-.02 1.28-.08 3.92-.46 5.6-1.72 6.22-2.37l1.09.71a.48.48 0 0 0 .6-.06l3.73-3.68h6.3a17.07 17.07 0 0 1 1.15 6.66l-.4 15.37a.6.6 0 0 0 0 .06l1.86 18.78Z"/><path fill="#1A1A1A" d="M119.5 75.4a4.72 4.72 0 0 1-1.12 3.36l.73.62a5.7 5.7 0 0 0 1.36-4.04l-.97.06Zm-11.2-46.57a.44.44 0 1 0 0-.89.44.44 0 0 0 0 .9Zm0 8.58a.44.44 0 1 0 0-.89.44.44 0 0 0 0 .9Zm0 8.58a.44.44 0 1 0 0-.89.44.44 0 0 0 0 .89ZM74.96 33.6h11.63c.26 0 .48-.22.48-.48v-4.73a.48.48 0 0 0-.48-.48H74.96a.48.48 0 0 0-.48.48v4.73c0 .26.21.48.48.48Zm.48-4.73h10.67v3.76H75.44v-3.76Z"/></svg>