<svg width="92" height="58" viewBox="0 0 92 58" fill="none" xmlns="http://www.w3.org/2000/svg">
<g id="Group">
<path id="Vector" d="M74.897 52.7987C75.1663 53.2115 76.2797 54.7727 77.8599 54.5035L78.1292 53.678L75.0765 52.386L74.897 52.7987Z" fill="#C5A17C"/>
<path id="Vector_2" d="M82.7621 11.7042L83.4624 12.6553L86.6767 10.8428L86.3714 10.3044L82.7621 11.7042Z" fill="white"/>
<path id="Vector_3" d="M88.3108 3.68271C88.0594 2.76751 87.395 1.99586 86.3176 1.38573C84.9708 0.632029 83.7318 0.434632 82.6902 0.793536C81.5769 1.17039 80.9484 2.0497 80.697 2.48039L88.0235 6.30271C88.221 5.85408 88.6161 4.79532 88.3108 3.68271Z" fill="#1E2F68"/>
<path id="Vector_4" d="M86.2278 41.2957V36.8633L83.4265 42.4263L82.5646 44.8848L82.6005 44.8668L85.4736 52.673L89.2805 51.2194L86.2458 41.3675C86.2278 41.3496 86.2278 41.3316 86.2278 41.2957Z" fill="#EC932D"/>
<path id="Vector_5" d="M85.9046 6.49991C85.7609 6.87676 85.4557 7.18183 85.0427 7.37923L86.4792 8.31238C86.7306 8.11498 87.2693 7.61251 87.7542 6.76909L85.9585 5.83594C85.9944 6.06923 85.9764 6.30251 85.9046 6.49991Z" fill="#BC9585"/>
<path id="Vector_6" d="M80.284 2.87517C80.2481 2.87517 80.2302 2.85722 80.1942 2.83927L78.9911 2.71366C78.8295 2.69571 78.7757 2.82133 78.7577 2.85722C78.7397 2.89311 78.7218 3.01873 78.8475 3.10845C79.8351 3.70064 81.4512 4.41845 83.9113 4.77736L80.284 2.87517Z" fill="#1E2F68"/>
<path id="Vector_7" d="M87.8619 29.4878H82.5286L81.7924 31.6233C81.7744 31.6951 81.7206 31.7489 81.6487 31.7848C81.6128 31.8027 81.5769 31.8027 81.541 31.8027C81.5051 31.8027 81.4692 31.8027 81.4512 31.7848L81.0382 31.6233L75.2202 51.8475L78.9552 53.4267L82.9237 42.2289C82.9237 42.2109 82.9237 42.2109 82.9417 42.193L87.395 33.3281C87.79 32.5385 87.9696 31.6592 87.9337 30.7798L87.8619 29.4878ZM79.1886 42.3007L78.8654 41.87C79.2964 41.547 79.7812 41.2957 80.2661 41.0983L80.4636 41.6008C80.0147 41.7803 79.5837 42.0135 79.1886 42.3007Z" fill="#EC932D"/>
<path id="Vector_8" d="M77.1775 31.085C77.375 31.2465 77.8958 31.2465 78.219 31.1927L78.3088 31.7131C78.2729 31.7131 78.1651 31.731 78.0215 31.749C77.806 32.1796 77.3391 32.4668 76.8363 32.4668H75.6691C75.7769 32.6462 75.9205 32.8077 76.1181 32.9513C76.6208 33.2743 77.3391 33.3461 78.1651 33.1487C79.3683 32.8616 80.1584 31.8925 80.4816 31.408L78.4165 30.6184C77.824 30.6543 77.2314 30.7979 77.1236 30.9235C77.1236 31.0132 77.1596 31.0491 77.1775 31.085Z" fill="#C5A17C"/>
<path id="Vector_9" d="M87.1615 14.4137L87.6644 14.5932L82.7262 28.9673H88.6161L88.4545 15.6699C88.4365 14.0907 87.9158 12.5474 86.964 11.2913L83.5163 13.2473C83.4804 13.2652 83.4265 13.2832 83.3906 13.2832C83.3008 13.2832 83.229 13.2473 83.1751 13.1755L82.385 12.0988C81.1998 14.3061 80.5713 16.8004 80.5354 19.3128L80.5175 20.6587L82.1875 13.7498L82.7082 13.8754L78.7577 30.2055L81.3974 31.1925L87.1615 14.4137Z" fill="#1E2F68"/>
<path id="Vector_10" d="M82.4927 10.1609L82.5825 11.2018L86.2098 9.78408V8.77915L84.2705 7.52298C84.1807 7.46915 84.1268 7.36148 84.1448 7.2538C84.1627 7.14613 84.2525 7.05641 84.3423 7.03846C84.5937 6.98463 85.1863 6.80517 85.3659 6.30271C85.4197 6.15915 85.4197 5.88997 85.3299 5.69257C85.294 5.56696 85.2042 5.49517 85.0785 5.45928C84.9529 5.44134 84.8092 5.44134 84.6835 5.42339L83.7677 6.71545C83.7138 6.78723 83.642 6.82312 83.5522 6.82312C83.5163 6.82312 83.4804 6.82312 83.4445 6.80517L82.7801 6.48216C82.6723 6.42833 82.6184 6.3386 82.6184 6.23093L82.6903 5.11832C81.6308 4.90298 80.7509 4.61586 80.0326 4.31079C80.0326 4.34668 80.0147 4.38257 80.0147 4.40052C79.9069 4.84915 79.7992 5.35161 79.4401 5.71052C79.3862 5.76435 79.3323 5.80024 79.2964 5.83613C79.0809 6.01559 79.0091 6.08737 79.1348 6.39243C79.1707 6.48216 79.2605 6.58983 79.3682 6.67956C79.7992 7.03846 79.9608 7.50504 80.1045 7.97161C80.3379 8.04339 80.8766 8.15106 81.2178 7.54093L81.6847 7.79216C81.3615 8.38435 80.8766 8.5638 80.4456 8.5638C80.4097 8.5638 80.3559 8.5638 80.3199 8.5638C80.6791 9.29956 81.4333 9.83791 82.2413 9.92764C82.385 9.92764 82.4748 10.0353 82.4927 10.1609ZM81.3435 5.56696C81.2717 5.7823 81.0562 5.90791 80.8407 5.83613C80.6252 5.76435 80.4995 5.54901 80.5713 5.33367C80.6432 5.11833 80.8587 4.99271 81.0741 5.06449C81.2896 5.11833 81.4153 5.35161 81.3435 5.56696Z" fill="#C5A17C"/>
<path id="Vector_11" d="M83.1751 6.06938L83.4624 6.21294L84.073 5.33362C83.7856 5.29773 83.4983 5.2439 83.211 5.20801L83.1751 6.06938Z" fill="#BC9585"/>
<path id="Vector_12" d="M72.6344 33.8665H74.4481L74.9149 32.4668H72.6344V33.8665Z" fill="#E8BE90"/>
<path id="Vector_13" d="M86.4254 53.5702C86.9461 53.6778 88.8136 53.9829 89.7115 52.6908L89.4242 51.7397L86.2637 52.9421L86.4254 53.5702Z" fill="#C5A17C"/>
<path id="Vector_14" d="M71.3235 18.0028V23.9068V24.14V31.1387C71.3235 31.5694 71.6826 31.9283 72.1136 31.9283H72.365H75.292H76.8363C77.0518 31.9283 77.2313 31.8385 77.375 31.7129C77.1775 31.677 76.9799 31.6052 76.8183 31.4796C76.6567 31.3361 76.5669 31.1387 76.5669 30.9054C76.5669 30.4926 77.0877 30.2773 77.6264 30.1696V23.6914C77.6264 22.3635 77.9676 21.0894 78.614 19.9947C79.0091 19.3307 79.2066 18.5591 79.1527 17.7695C79.045 15.7596 77.393 14.1446 75.3997 14.0548C74.3223 14.0189 73.2988 14.3958 72.5266 15.1495C71.7545 15.9211 71.3235 16.9261 71.3235 18.0028Z" fill="#C5A17C"/>
<path id="Vector_15" d="M17.4705 53.5703C17.9374 53.6779 19.8588 54.0368 20.7925 52.7268L20.5232 51.9731L17.1832 53.0857L17.4705 53.5703Z" fill="#C5A17C"/>
<path id="Vector_16" d="M69.438 22.561H28.3704C27.6342 22.561 27.0236 23.1712 27.0236 23.9069V24.1402V30.7441H70.7848V24.1402V23.9069C70.7848 23.1712 70.1922 22.561 69.438 22.561Z" fill="#C5A17C"/>
<path id="Vector_17" d="M23.7016 33.8665H25.5152V32.4668H23.2347L23.7016 33.8665Z" fill="#E8BE90"/>
<path id="Vector_18" d="M86.2278 54.0727C85.1145 54.5034 84.5937 55.0955 84.7733 55.7775C84.899 56.262 85.312 56.5312 85.4197 56.5132L90.4297 54.6828L89.909 53.2651C89.3882 53.8394 88.6161 54.1624 87.6823 54.1983C87.0179 54.2521 86.4433 54.1265 86.2278 54.0727Z" fill="white"/>
<path id="Vector_19" d="M75.3638 54.1804C74.861 53.7317 74.5378 53.2293 74.4121 53.0498C73.9273 52.8345 73.5143 52.7268 73.1551 52.7268C72.7062 52.7268 72.365 52.9063 72.1675 53.2472C71.9161 53.6958 72.0238 54.1804 72.1136 54.2342L76.98 56.4415L77.6085 55.0597C76.8363 55.1135 76.0642 54.8084 75.3638 54.1804Z" fill="white"/>
<path id="Vector_20" d="M17.2909 54.0907C16.1596 54.5035 15.6568 55.1136 15.8184 55.7955C15.9441 56.2801 16.3571 56.5492 16.4649 56.5492L21.4928 54.7547L21.008 53.3191C20.4693 53.8933 19.7151 54.1984 18.7634 54.2343C18.081 54.2702 17.5064 54.1446 17.2909 54.0907Z" fill="white"/>
<path id="Vector_21" d="M15.585 41.4931L15.7107 37.1504L12.1912 45.6385L16.4829 52.7448L20.4514 51.4348L15.6209 41.6187C15.603 41.5829 15.585 41.529 15.585 41.4931Z" fill="#EC932D"/>
<path id="Vector_22" d="M5.13407 53.8754C5.90622 54.4497 6.66041 54.6471 7.39664 54.4497L7.71987 53.8754L4.43374 52.386L4.21826 52.9602C4.36192 53.1397 4.68514 53.5345 5.13407 53.8754Z" fill="#C5A17C"/>
<path id="Vector_23" d="M8.50995 11.7758L9.17436 12.6372L12.5862 10.2685L12.0295 9.8916L8.50995 11.7758Z" fill="white"/>
<path id="Vector_24" d="M17.1832 32.2514C16.9497 32.0001 16.7881 31.7489 16.6983 31.6053L16.2135 31.7848C16.1776 31.8027 16.1596 31.8027 16.1237 31.8027C16.0878 31.8027 16.0339 31.7848 15.998 31.7668C15.9262 31.731 15.8903 31.6771 15.8543 31.6053L15.1181 29.1648V29.2904C14.6512 29.3084 14.1305 29.3263 13.5918 29.3263C12.1372 29.3263 10.557 29.2725 9.65918 29.2186L9.89262 34.0818L11.2574 29.9364L11.7601 30.0979L4.63123 51.8475L8.33036 53.5344L17.1832 32.2514Z" fill="#EC932D"/>
<path id="Vector_25" d="M4.81082 54.2882C4.25415 53.8575 3.87706 53.3909 3.73341 53.2114C3.28448 53.0499 2.90738 52.9602 2.58416 52.9602C2.09932 52.9602 1.75813 53.1397 1.57856 53.5165C1.36308 53.9831 1.52469 54.4855 1.61448 54.5394L6.60652 56.4595L7.14523 55.0418C6.37308 55.1316 5.58297 54.8803 4.81082 54.2882Z" fill="white"/>
<path id="Vector_26" d="M12.6939 2.74955C12.2809 1.88818 11.4728 1.2601 10.2877 0.883251C8.81521 0.39873 7.57618 0.434621 6.6065 0.990922C5.58295 1.56517 5.13403 2.5701 4.97241 3.01873L12.8914 5.3875C12.9992 4.90298 13.1967 3.79037 12.6939 2.74955Z" fill="#1E2F68"/>
<path id="Vector_27" d="M8.58181 4.66949L4.64922 3.50305C4.61331 3.50305 4.59535 3.50305 4.55944 3.48511L3.35632 3.57483C3.19471 3.59278 3.1588 3.7184 3.1588 3.75429C3.1588 3.79018 3.14084 3.93374 3.30245 3.98757C4.37987 4.38237 6.10374 4.77716 8.58181 4.66949Z" fill="#1E2F68"/>
<path id="Vector_28" d="M20.182 30.2056C20.6668 30.3133 21.0978 30.5287 21.0978 30.9055C21.0978 31.1388 21.008 31.3362 20.8464 31.4797C20.7207 31.5874 20.577 31.6413 20.4154 31.6771C20.5591 31.8207 20.7746 31.9284 20.9901 31.9284H22.8755H25.7127C26.1437 31.9284 26.5029 31.5695 26.5029 31.1388V24.1402V23.9069V18.0029C26.5029 16.9262 26.0719 15.9213 25.2997 15.1676C24.5276 14.4139 23.504 14.037 22.4266 14.0729C20.4154 14.1447 18.7634 15.7777 18.6736 17.7876C18.6377 18.5771 18.8173 19.3308 19.2303 20.0128C19.8767 21.0895 20.2179 22.3636 20.2179 23.7095V30.2056H20.182Z" fill="#C5A17C"/>
<path id="Vector_29" d="M14.9924 28.7699L10.5391 14.1984L11.0598 14.0369L16.2853 31.1746L18.907 30.1876L15.7825 15.0598C15.4234 13.3012 14.4537 11.722 13.0351 10.6094L9.26412 13.2294C9.21025 13.2653 9.15638 13.2832 9.12047 13.2832C9.03068 13.2832 8.95885 13.2473 8.90498 13.1755L8.22262 12.2962C7.57617 14.8803 7.46842 17.5183 7.86348 20.1562L9.17434 28.6802C10.0183 28.7161 13.0171 28.8596 14.9924 28.7699Z" fill="#1E2F68"/>
<path id="Vector_30" d="M10.8444 5.97965C10.7725 6.37444 10.5391 6.73335 10.162 7.00252L11.7602 7.64855C11.9577 7.39732 12.3887 6.80513 12.7298 5.88992L10.7905 5.31567C10.8623 5.53102 10.8803 5.7643 10.8444 5.97965Z" fill="#BC9585"/>
<path id="Vector_31" d="M8.20471 10.2684L8.33041 11.2734L11.7602 9.44297L11.5806 8.16886L9.44375 7.28954C9.33601 7.25365 9.28213 7.14598 9.28213 7.03831C9.28213 6.93064 9.33601 6.84091 9.44375 6.78708C9.67719 6.67941 10.2339 6.39228 10.3236 5.87187C10.3595 5.71036 10.3057 5.45913 10.162 5.27968C10.0722 5.17201 9.9645 5.10023 9.8388 5.10023C9.7131 5.11817 9.56945 5.13612 9.44375 5.13612L8.79729 6.57173C8.76138 6.66146 8.67159 6.73324 8.56385 6.73324H8.5459C8.45611 6.73324 8.36633 6.67941 8.31246 6.60762L7.50439 5.22584C6.39106 5.2079 5.43934 5.10023 4.64923 4.93872C4.64923 4.97461 4.64923 5.0105 4.64923 5.04639C4.63127 5.49502 4.61331 6.01543 4.326 6.42817C4.29009 6.48201 4.25417 6.53584 4.2003 6.58968C4.02073 6.80502 3.96686 6.89475 4.14643 7.16393C4.20031 7.25365 4.30805 7.32543 4.43375 7.39721C4.91858 7.66639 5.16998 8.09708 5.40343 8.52776C5.63687 8.56365 6.19353 8.56365 6.40901 7.89968L6.91181 8.06119C6.67837 8.76105 6.17558 9.01228 5.72665 9.06612C6.21149 9.73009 7.05546 10.1069 7.88148 10.0352C8.06105 10.0172 8.18675 10.1249 8.20471 10.2684ZM5.76256 6.28461C5.54708 6.26667 5.36751 6.06927 5.40343 5.83598C5.42138 5.62064 5.61891 5.44119 5.85235 5.47708C6.06783 5.49502 6.2474 5.69242 6.21148 5.92571C6.17557 6.14105 5.97804 6.30256 5.76256 6.28461Z" fill="#C5A17C"/>
<path id="Vector_32" d="M27.0236 18.003V22.5969C27.3648 22.256 27.8316 22.0227 28.3704 22.0227H69.438C69.9587 22.0227 70.4436 22.238 70.7848 22.5969V18.003C70.7848 16.7827 71.2696 15.6342 72.1495 14.7908C72.5625 14.396 73.0294 14.0909 73.5501 13.8756V9.26364C73.5501 6.85898 71.5928 4.88501 69.1686 4.88501H28.945C26.5387 4.88501 24.5635 6.84104 24.5635 9.26364V14.0191C24.9406 14.2165 25.2997 14.4678 25.6229 14.7728C26.5387 15.6342 27.0236 16.7827 27.0236 18.003ZM63.2967 9.47898L63.6738 9.85583L61.1419 12.3861L60.7827 12.0093L63.2967 9.47898ZM61.1598 15.4368L63.6917 17.9671L63.3147 18.3439L60.7827 15.8136L61.1598 15.4368ZM58.4124 13.086C58.6279 12.8706 58.9332 12.745 59.2384 12.745C59.5616 12.745 59.849 12.8706 60.0644 13.086C60.5313 13.5525 60.5313 14.2883 60.0644 14.7549C59.831 14.9882 59.5257 15.0958 59.2384 15.0958C58.9332 15.0958 58.6279 14.9882 58.4124 14.7549C58.1969 14.5395 58.0712 14.2345 58.0712 13.9294C58.0712 13.6064 58.1969 13.3013 58.4124 13.086ZM55.1981 9.47898L57.73 12.0093L57.3529 12.3861L54.821 9.85583L55.1981 9.47898ZM57.335 15.4368L57.7121 15.8136L55.1801 18.3439L54.803 17.9671L57.335 15.4368ZM42.9694 9.47898L43.3465 9.85583L40.8146 12.3861L40.4375 12.0093L42.9694 9.47898ZM40.8146 15.4368L43.3465 17.9671L42.9694 18.3439L40.4375 15.8136L40.8146 15.4368ZM38.0671 13.086C38.2826 12.8706 38.5879 12.745 38.8932 12.745C39.2164 12.745 39.5037 12.8706 39.7192 13.086C40.1861 13.5525 40.1861 14.2883 39.7192 14.7549C39.4857 14.9882 39.1805 15.0958 38.8932 15.0958C38.5879 15.0958 38.2826 14.9882 38.0671 14.7549C37.6182 14.2883 37.6182 13.5346 38.0671 13.086ZM34.8528 9.47898L37.3848 12.0093L37.0077 12.3861L34.4757 9.85583L34.8528 9.47898ZM36.9897 15.4368L37.3668 15.8136L34.8349 18.3439L34.4578 17.9671L36.9897 15.4368Z" fill="#C5A17C"/>
<path id="Vector_33" d="M8.52791 5.88981L8.85114 5.18994C8.6177 5.20789 8.3663 5.20789 8.15082 5.22583L8.52791 5.88981Z" fill="#BC9585"/>
<path id="Vector_34" d="M19.4996 33.1486C20.3077 33.346 21.0439 33.2742 21.5467 32.9512C21.7442 32.8255 21.9059 32.664 21.9956 32.4666H20.9721C20.4693 32.4666 20.0204 32.1795 19.7869 31.7488C19.5714 31.7488 19.3919 31.7129 19.338 31.7129L19.4278 31.1925C19.751 31.2464 20.2897 31.2464 20.4693 31.0849C20.5052 31.0669 20.5411 31.0131 20.5411 30.9413C20.4334 30.8157 19.8408 30.6721 19.2482 30.6362L17.1832 31.4258C17.5243 31.8744 18.3145 32.8614 19.4996 33.1486Z" fill="#C5A17C"/>
<path id="Vector_35" d="M59.7054 14.36C59.9568 14.1088 59.9568 13.6961 59.7054 13.4448C59.5797 13.3192 59.418 13.2654 59.2564 13.2654C59.0769 13.2654 58.9153 13.3372 58.8075 13.4448C58.6818 13.5704 58.6279 13.732 58.6279 13.8935C58.6279 14.0729 58.6998 14.2344 58.8075 14.3421C59.041 14.6113 59.454 14.6113 59.7054 14.36Z" fill="#FFDA87"/>
<path id="Vector_36" d="M39.3601 14.36C39.6115 14.1088 39.6115 13.6961 39.3601 13.4448C39.2344 13.3192 39.0728 13.2654 38.9112 13.2654C38.7316 13.2654 38.57 13.3372 38.4622 13.4448C38.2108 13.6961 38.2108 14.1088 38.4622 14.36C38.6957 14.6113 39.1087 14.6113 39.3601 14.36Z" fill="#FFDA87"/>
<path id="Vector_37" d="M81.0742 5.06447C80.8587 4.99269 80.6252 5.1183 80.5714 5.33364C80.4995 5.54899 80.6253 5.78227 80.8407 5.83611C81.0562 5.90789 81.2897 5.78227 81.3435 5.56693C81.4154 5.35159 81.2897 5.1183 81.0742 5.06447Z" fill="#1A1A1A"/>
<path id="Vector_38" d="M38.9112 15.0957C39.2164 15.0957 39.5217 14.988 39.7372 14.7547C40.2041 14.2882 40.2041 13.5524 39.7372 13.0858C39.5217 12.8705 39.2164 12.7449 38.9112 12.7449C38.5879 12.7449 38.3006 12.8705 38.0851 13.0858C37.6183 13.5524 37.6183 14.2882 38.0851 14.7547C38.3006 14.9701 38.6059 15.0957 38.9112 15.0957ZM38.4443 13.4627C38.57 13.3371 38.7316 13.2832 38.8932 13.2832C39.0728 13.2832 39.2344 13.355 39.3421 13.4627C39.5935 13.7139 39.5935 14.1267 39.3421 14.3779C39.0907 14.6291 38.6777 14.6291 38.4263 14.3779C38.1929 14.1087 38.1929 13.7139 38.4443 13.4627Z" fill="#1A1A1A"/>
<path id="Vector_39" d="M42.9558 9.48342L40.429 12.0085L40.8099 12.3892L43.3367 9.86409L42.9558 9.48342Z" fill="#1A1A1A"/>
<path id="Vector_40" d="M36.9916 15.4405L34.4648 17.9656L34.8457 18.3462L37.3725 15.8211L36.9916 15.4405Z" fill="#1A1A1A"/>
<path id="Vector_41" d="M40.8206 15.4421L40.4397 15.8228L42.9665 18.3479L43.3474 17.9672L40.8206 15.4421Z" fill="#1A1A1A"/>
<path id="Vector_42" d="M34.849 9.47065L34.4681 9.85132L36.9949 12.3764L37.3758 11.9958L34.849 9.47065Z" fill="#1A1A1A"/>
<path id="Vector_43" d="M59.2384 15.0957C59.5437 15.0957 59.849 14.988 60.0645 14.7547C60.5313 14.2882 60.5313 13.5524 60.0645 13.0858C59.849 12.8705 59.5437 12.7449 59.2384 12.7449C58.9152 12.7449 58.6279 12.8705 58.4124 13.0858C58.1969 13.3012 58.0712 13.6062 58.0712 13.9113C58.0712 14.2343 58.1969 14.5214 58.4124 14.7368C58.6459 14.9701 58.9511 15.0957 59.2384 15.0957ZM58.7895 13.4627C58.9152 13.3371 59.0768 13.2832 59.2384 13.2832C59.418 13.2832 59.5796 13.355 59.6874 13.4627C59.9388 13.7139 59.9388 14.1267 59.6874 14.3779C59.436 14.6291 59.0229 14.6291 58.7715 14.3779C58.6459 14.2523 58.592 14.0908 58.592 13.9293C58.6099 13.7498 58.6638 13.5883 58.7895 13.4627Z" fill="#1A1A1A"/>
<path id="Vector_44" d="M63.3 9.48172L60.7733 12.0068L61.1542 12.3875L63.681 9.86239L63.3 9.48172Z" fill="#1A1A1A"/>
<path id="Vector_45" d="M57.3354 15.438L54.8087 17.9631L55.1896 18.3438L57.7164 15.8187L57.3354 15.438Z" fill="#1A1A1A"/>
<path id="Vector_46" d="M61.1649 15.4401L60.7839 15.8208L63.3107 18.3459L63.6916 17.9652L61.1649 15.4401Z" fill="#1A1A1A"/>
<path id="Vector_47" d="M55.1807 9.48164L54.7998 9.8623L57.3266 12.3874L57.7075 12.0068L55.1807 9.48164Z" fill="#1A1A1A"/>
<path id="Vector_48" d="M78.8655 41.87L79.1887 42.3007C79.5838 42.0136 80.0147 41.7803 80.4816 41.6009L80.2841 41.0984C79.7813 41.2958 79.2964 41.547 78.8655 41.87Z" fill="#1A1A1A"/>
<path id="Vector_49" d="M6.76813 57.0696C6.87587 57.0696 6.98361 56.9978 7.01953 56.8901L7.82759 54.7906L8.22265 54.0907L8.3663 54.1625C8.40221 54.1804 8.43813 54.1804 8.47405 54.1804C8.50996 54.1804 8.54587 54.1804 8.56383 54.1625C8.63566 54.1445 8.68953 54.0907 8.70749 54.0189L11.9397 46.2486L16.1417 53.2114C16.1956 53.3011 16.2853 53.337 16.3751 53.337C16.411 53.337 16.429 53.337 16.4649 53.319L16.6804 53.2473L16.9138 53.66C15.7466 54.1445 15.3875 54.7906 15.2977 55.2571C15.172 55.9211 15.5311 56.4953 15.8723 56.8004C16.0698 56.9799 16.2853 57.0696 16.4829 57.0696C16.5547 57.0696 16.6086 57.0516 16.6624 57.0337L21.9418 55.1495C22.0854 55.0956 22.1573 54.9521 22.1034 54.8085L21.3312 52.673L21.008 51.7578C21.026 51.7399 21.0439 51.704 21.0619 51.686C21.0978 51.6142 21.0978 51.5425 21.0619 51.4707L16.1237 41.4393L16.3033 35.7507L17.5782 32.6641C18.0272 33.0769 18.6377 33.4716 19.3739 33.6511C19.7151 33.7408 20.0563 33.7767 20.3616 33.7767C20.9182 33.7767 21.421 33.6511 21.834 33.3819C22.1932 33.1486 22.4625 32.8256 22.5882 32.4488H22.678L23.2526 34.2074C23.2886 34.3151 23.3963 34.3869 23.504 34.3869H25.7846C25.9282 34.3869 26.0539 34.2612 26.0539 34.1177V32.3949C26.5747 32.2514 26.9697 31.8027 27.0236 31.2644H70.8028C70.8746 31.9284 71.4312 32.4308 72.1136 32.4488V34.1177C72.1136 34.2612 72.2393 34.3869 72.383 34.3869H74.6635C74.7712 34.3869 74.879 34.3151 74.9149 34.2074L75.3459 32.9153C75.4716 33.0948 75.6511 33.2563 75.8487 33.3819C76.2437 33.6332 76.7465 33.7767 77.3211 33.7767C77.6264 33.7767 77.9676 33.7408 78.3088 33.6511C79.1348 33.4537 79.7812 32.9871 80.2481 32.5205L74.6635 51.9193L74.466 52.4756C73.2629 51.9911 72.5625 52.2064 72.1675 52.4936C71.6108 52.8884 71.4672 53.5523 71.521 54.001C71.5569 54.3599 71.7006 54.629 71.934 54.7188L77.0338 57.0337C77.0697 57.0516 77.1057 57.0516 77.1416 57.0516C77.2493 57.0516 77.3391 56.9978 77.393 56.8901L78.3267 54.8264C78.3267 54.8085 78.3267 54.8085 78.3267 54.7906L78.632 53.8574L79.027 54.0368C79.063 54.0548 79.0989 54.0548 79.1348 54.0548C79.1707 54.0548 79.2066 54.0548 79.2425 54.0368C79.3144 54.001 79.3682 53.9471 79.3862 53.8753L82.3132 45.6026L85.0786 53.1037C85.0965 53.1755 85.1504 53.2293 85.2222 53.2473C85.2581 53.2652 85.294 53.2652 85.33 53.2652C85.3659 53.2652 85.4018 53.2652 85.4197 53.2473L85.7789 53.1037L85.9046 53.6062C84.6835 54.1086 84.3244 54.7726 84.2346 55.2392C84.1089 55.9031 84.486 56.4774 84.8272 56.7825C85.0247 56.9619 85.2402 57.0516 85.4377 57.0516C85.5095 57.0516 85.5634 57.0337 85.6173 57.0158L90.8966 55.0956C90.9685 55.0777 91.0223 55.0238 91.0403 54.9521C91.0762 54.8803 91.0762 54.8085 91.0582 54.7547L90.2861 52.6192L89.8731 51.2912L86.7845 41.2419V35.7866L87.8798 33.5793C88.3108 32.7179 88.5263 31.731 88.4724 30.7619L88.4186 29.4699H88.9034C88.9752 29.4699 89.0471 29.434 89.1009 29.3981C89.1548 29.3442 89.1728 29.2725 89.1728 29.2007L89.0111 15.6341C88.9932 13.8755 88.3827 12.1527 87.2873 10.771L86.7665 9.89165L86.7845 8.77904C87.0538 8.5637 87.7721 7.93562 88.3826 6.80507C88.4185 6.73329 89.3164 5.22589 88.8675 3.55699C88.5802 2.48028 87.826 1.60096 86.6049 0.936989C83.9832 -0.516572 82.2593 0.165346 81.2537 0.990825C80.8228 1.34973 80.5354 1.72658 80.3559 1.99576C80.2661 2.12137 80.2122 2.22904 80.1583 2.30083L79.045 2.17521C78.6859 2.13932 78.3626 2.33672 78.2549 2.67767C78.1472 3.01863 78.2729 3.37754 78.5781 3.55699C78.8475 3.7185 79.1707 3.89795 79.5298 4.05945C79.5119 4.13124 79.4939 4.18507 79.476 4.25685C79.3862 4.66959 79.2964 5.04644 79.045 5.29767C79.0091 5.33356 78.9732 5.36946 78.9193 5.40535C78.7038 5.60274 78.3267 5.92576 78.614 6.58973C78.6859 6.76918 78.8116 6.93069 78.9911 7.07425C79.2964 7.34343 79.4401 7.72028 79.5658 8.13302C79.6376 8.33041 79.7094 8.54576 79.7992 8.74315C80.1943 9.60452 81.0203 10.2326 81.954 10.4121L82.0438 11.5247C80.715 13.8934 79.9967 16.5673 79.9608 19.277L79.9249 22.9558L78.201 30.0979C78.1831 30.0979 78.1651 30.0979 78.1472 30.0979V23.6915C78.1472 22.4533 78.4704 21.2689 79.063 20.2819C79.5119 19.5282 79.7274 18.6489 79.6915 17.7516C79.5658 15.4726 77.6982 13.6242 75.4177 13.5345C74.9508 13.5166 74.5019 13.5704 74.0889 13.6781V9.26356C74.0889 6.55384 71.8802 4.34658 69.1687 4.34658H28.945C26.2335 4.34658 24.0248 6.55384 24.0248 9.26356V13.8037C23.504 13.6242 22.9294 13.5345 22.3548 13.5525C20.0743 13.6422 18.2067 15.4905 18.081 17.7696C18.0272 18.6669 18.2426 19.5282 18.7095 20.2999C19.3021 21.3048 19.6253 22.4892 19.6253 23.7095V30.1338C19.5535 30.1338 19.4996 30.1159 19.4278 30.1159L16.2853 14.9522C15.8903 12.9962 14.777 11.2734 13.1967 10.0711C13.1967 10.0711 13.1967 10.0711 13.1788 10.0711L12.2989 9.42507L12.1193 8.06124C12.3528 7.79206 12.9274 7.03836 13.3224 5.80014C13.3583 5.69247 13.933 4.05946 13.1788 2.51617C12.6939 1.51124 11.7781 0.793428 10.4673 0.362743C7.64802 -0.552462 6.08576 0.434524 5.25974 1.43946C4.91856 1.87014 4.68512 2.30083 4.55942 2.58795C4.50555 2.73151 4.45168 2.83918 4.43372 2.92891L3.32039 3.01863C2.96125 3.05452 2.69189 3.30576 2.63802 3.66466C2.58415 4.02356 2.78168 4.34658 3.12286 4.47219C3.41017 4.57987 3.76931 4.68754 4.14641 4.79521C4.14641 4.86699 4.14641 4.93877 4.12845 4.99261C4.11049 5.40535 4.09254 5.80014 3.89501 6.10521C3.8591 6.1411 3.82318 6.19493 3.80522 6.23083C3.62565 6.46411 3.32039 6.84096 3.7334 7.4511C3.84114 7.61261 4.00275 7.73822 4.20028 7.84589C4.55942 8.04329 4.75695 8.40219 4.97243 8.77904C5.08017 8.9585 5.18791 9.15589 5.31361 9.33535C5.85232 10.089 6.78609 10.5556 7.70189 10.5736L7.84555 11.6682C7.0734 14.4677 6.91179 17.3569 7.36071 20.2281L8.70749 28.9674C8.72545 29.093 8.83319 29.1827 8.95888 29.2007C8.95888 29.2007 9.03071 29.2007 9.13845 29.2186L9.42576 35.5533L4.05663 51.9373L3.75135 52.673C2.53028 52.2603 1.84792 52.5115 1.48878 52.7986C0.985982 53.2114 0.878241 53.8753 0.950069 54.306C1.00394 54.6829 1.18351 54.9521 1.41695 55.0418L6.66039 57.0516C6.6963 57.0696 6.73222 57.0696 6.76813 57.0696ZM21.008 53.319L21.5108 54.7367L16.4829 56.5312C16.3751 56.5492 15.9621 56.28 15.8364 55.7775C15.6568 55.0956 16.1776 54.4855 17.3089 54.0727C17.5244 54.1266 18.099 54.2522 18.7814 54.2342C19.7151 54.1984 20.4693 53.8933 21.008 53.319ZM20.7925 52.7269C19.8588 54.0548 17.9194 53.6959 17.4705 53.5703L17.2011 53.0678L20.5411 51.9552L20.7925 52.7269ZM20.4514 51.4348L16.4829 52.7448L12.1911 45.6385L15.7107 37.1504L15.585 41.4932C15.585 41.529 15.585 41.5829 15.6209 41.6188L20.4514 51.4348ZM25.5152 33.8664H23.7016L23.2347 32.4667H25.5152V33.8664ZM70.7848 24.1401V30.744H27.0236V24.1401V23.9069C27.0236 23.1711 27.6341 22.561 28.3704 22.561H69.438C70.1743 22.561 70.7848 23.1711 70.7848 23.9069V24.1401ZM74.448 33.8664H72.6344V32.4667H74.9149L74.448 33.8664ZM76.98 56.4415L72.1136 54.2342C72.0238 54.1804 71.9161 53.6779 72.1675 53.2473C72.365 52.9063 72.7062 52.7269 73.1551 52.7269C73.5143 52.7269 73.9273 52.8345 74.4121 53.0499C74.5198 53.2473 74.861 53.7318 75.3638 54.1804C76.0641 54.8085 76.8363 55.1136 77.6084 55.0777L76.98 56.4415ZM77.8419 54.5034C76.2796 54.7726 75.1663 53.2293 74.879 52.7986L75.0406 52.3679L78.0933 53.66L77.8419 54.5034ZM89.9269 53.2831L90.4477 54.7008L85.4377 56.5312C85.3299 56.5492 84.9169 56.28 84.7912 55.7955C84.6117 55.1136 85.1324 54.5034 86.2458 54.0907C86.4613 54.1445 87.0359 54.2701 87.7182 54.2342C88.634 54.1804 89.4062 53.8574 89.9269 53.2831ZM89.7115 52.691C88.8136 53.983 86.9461 53.6959 86.4253 53.5703L86.2637 52.9422L89.4241 51.7399L89.7115 52.691ZM89.2625 51.2374L85.4557 52.691L82.5825 44.8848L82.5466 44.9027L83.4086 42.4442L86.2098 36.8812V41.3137C86.2098 41.3316 86.2098 41.3675 86.2278 41.3855L89.2625 51.2374ZM87.395 33.346L82.9417 42.211C82.9417 42.2289 82.9237 42.2289 82.9237 42.2469L78.9552 53.4447L75.2202 51.8655L81.0382 31.6412L81.4513 31.7848C81.4872 31.8027 81.5051 31.8027 81.541 31.8027C81.5769 31.8027 81.6129 31.8027 81.6488 31.7848C81.7206 31.7489 81.7565 31.6951 81.7924 31.6233L82.5287 29.4878H87.8619L87.9337 30.7978C87.9696 31.6771 87.7901 32.5564 87.395 33.346ZM86.4792 8.31247L85.0426 7.37932C85.4557 7.18192 85.7609 6.87685 85.9046 6.5C85.9764 6.30261 85.9944 6.06932 85.9585 5.83603L87.7542 6.76918C87.2514 7.61261 86.7306 8.11507 86.4792 8.31247ZM86.6767 10.8427L83.4624 12.6552L82.7621 11.7041L86.3535 10.3044L86.6767 10.8427ZM82.6903 0.793428C83.7497 0.434524 84.9708 0.631921 86.3176 1.38562C87.395 1.97781 88.0774 2.74945 88.3108 3.68261C88.6161 4.79521 88.2031 5.85398 88.0055 6.30261L80.6791 2.48028C80.9305 2.06754 81.5769 1.17028 82.6903 0.793428ZM78.8654 3.1263C78.7218 3.03658 78.7577 2.91096 78.7757 2.87507C78.7936 2.83918 78.8475 2.71356 79.0091 2.73151L80.2122 2.85713C80.2481 2.87507 80.2661 2.87507 80.302 2.89302L83.9473 4.79521C81.4692 4.4363 79.8531 3.70055 78.8654 3.1263ZM84.0909 5.33357L83.4804 6.21288L83.1931 6.06932L83.247 5.20795C83.4984 5.26178 83.7857 5.29767 84.0909 5.33357ZM80.32 8.5637C80.3559 8.5637 80.3918 8.5637 80.4457 8.5637C80.8766 8.5637 81.3435 8.38425 81.6847 7.79206L81.2178 7.54082C80.8766 8.15096 80.3379 8.04329 80.1045 7.97151C79.9429 7.50493 79.7812 7.03836 79.3682 6.67946C79.2605 6.58973 79.1887 6.5 79.1348 6.39233C78.9911 6.08726 79.0809 6.01548 79.2964 5.83603C79.3503 5.80014 79.4042 5.7463 79.4401 5.71041C79.7992 5.35151 79.9249 4.84904 80.0147 4.40041C80.0147 4.36452 80.0327 4.32863 80.0327 4.31069C80.7509 4.61576 81.6308 4.90288 82.6903 5.11822L82.6184 6.23083C82.6184 6.3385 82.6723 6.44617 82.7801 6.48206L83.4445 6.78713C83.4804 6.80507 83.5163 6.80507 83.5522 6.80507C83.642 6.80507 83.7138 6.76918 83.7677 6.6974L84.6835 5.40535C84.8092 5.42329 84.9529 5.42329 85.0786 5.44124C85.2043 5.47713 85.294 5.54891 85.3659 5.67452C85.4736 5.87192 85.4736 6.1411 85.4018 6.28466C85.2222 6.76918 84.6117 6.96658 84.3782 7.02041C84.2705 7.03836 84.1987 7.12809 84.1807 7.23576C84.1628 7.34343 84.1987 7.4511 84.3064 7.50493L86.2458 8.7611V9.76603L82.6184 11.1837L82.5287 10.1429C82.5107 10.0173 82.4209 9.90959 82.2952 9.89165C81.4333 9.83781 80.6791 9.29945 80.32 8.5637ZM82.7082 13.8755L82.1875 13.7499L80.5175 20.6588L80.5354 19.3129C80.5714 16.8006 81.1999 14.3241 82.385 12.0989L83.1751 13.1756C83.229 13.2474 83.3008 13.2833 83.3906 13.2833C83.4445 13.2833 83.4804 13.2653 83.5163 13.2474L86.9641 11.2914C87.8978 12.5475 88.4365 14.0908 88.4545 15.67L88.6161 28.9674H82.7262L87.6644 14.5933L87.1616 14.4138L81.3794 31.1926L78.7397 30.2056L82.7082 13.8755ZM78.3986 30.6363L80.4636 31.4259C80.1404 31.8925 79.3503 32.8615 78.1472 33.1666C77.3391 33.364 76.6029 33.2922 76.1001 32.9692C75.9025 32.8436 75.7409 32.6821 75.6511 32.4847H76.8183C77.3211 32.4847 77.788 32.1975 78.0035 31.7669C78.1472 31.7489 78.2549 31.7489 78.2908 31.731L78.201 31.2106C77.8778 31.2644 77.3391 31.2644 77.1595 31.1029C77.1236 31.0849 77.0877 31.0311 77.0877 30.9593C77.2134 30.8158 77.806 30.6722 78.3986 30.6363ZM75.4177 14.0729C77.4289 14.1447 79.0809 15.7777 79.1707 17.7875C79.2066 18.5771 79.027 19.3308 78.632 20.0127C77.9855 21.0895 77.6444 22.3636 77.6444 23.7095V30.1877C77.1057 30.2953 76.5849 30.5107 76.5849 30.9234C76.5849 31.1567 76.6747 31.3541 76.8363 31.4977C76.9799 31.6233 77.1775 31.6951 77.393 31.731C77.2493 31.8745 77.0518 31.9463 76.8543 31.9463H75.31H72.383H72.1316C71.7006 31.9463 71.3415 31.5874 71.3415 31.1567V24.1581V23.9248V18.0208C71.3415 16.9441 71.7724 15.9392 72.5446 15.1855C73.3167 14.4138 74.3403 14.037 75.4177 14.0729ZM24.5994 9.26356C24.5994 6.85891 26.5567 4.88493 28.9809 4.88493H69.2046C71.6108 4.88493 73.5861 6.84096 73.5861 9.26356V13.8755C73.0653 14.0908 72.5984 14.3959 72.1854 14.7907C71.3055 15.6341 70.8207 16.7826 70.8207 18.0029V22.5969C70.4795 22.2559 70.0126 22.0226 69.4739 22.0226H28.3704C27.8496 22.0226 27.3648 22.2379 27.0236 22.5969V18.0029C27.0236 16.7826 26.5388 15.6341 25.6589 14.7907C25.3357 14.4856 24.9765 14.2344 24.5994 14.037V9.26356ZM19.1944 20.0127C18.7993 19.3488 18.6018 18.5771 18.6377 17.7875C18.7454 15.7777 20.3975 14.1626 22.3907 14.0729C23.4681 14.037 24.4917 14.4138 25.2638 15.1675C26.036 15.9212 26.4669 16.9262 26.4669 18.0029V23.9069V24.1401V31.1388C26.4669 31.5695 26.1078 31.9284 25.6768 31.9284H22.8396H20.9542C20.7387 31.9284 20.5232 31.8386 20.3795 31.6771C20.5411 31.6412 20.6848 31.5695 20.8105 31.4797C20.9721 31.3362 21.0619 31.1388 21.0619 30.9055C21.0619 30.5286 20.6309 30.3133 20.1461 30.2056V23.6915C20.182 22.3636 19.8408 21.0895 19.1944 20.0127ZM20.5591 30.9414C20.5591 31.0132 20.5232 31.049 20.4873 31.0849C20.2897 31.2464 19.769 31.2464 19.4458 31.1926L19.356 31.713C19.3919 31.713 19.5715 31.7489 19.8049 31.7489C20.0383 32.1796 20.4873 32.4667 20.9901 32.4667H22.0136C21.9059 32.6462 21.7622 32.8077 21.5647 32.9512C21.0619 33.2742 20.3436 33.346 19.5176 33.1486C18.3145 32.8615 17.5244 31.8925 17.2191 31.4079L19.2842 30.6184C19.8588 30.6722 20.4514 30.8158 20.5591 30.9414ZM12.5862 10.2685L9.17437 12.6373L8.50996 11.7759L12.0295 9.89165L12.5862 10.2685ZM11.7602 7.6485L10.162 7.00247C10.5391 6.73329 10.7725 6.37439 10.8444 5.97959C10.8803 5.76425 10.8623 5.53096 10.7725 5.31562L12.7119 5.88987C12.3887 6.80507 11.9577 7.41521 11.7602 7.6485ZM6.60652 0.990825C7.57619 0.434524 8.81522 0.398633 10.2877 0.883154C11.4549 1.26 12.263 1.88809 12.6939 2.74946C13.1967 3.79028 12.9992 4.90288 12.8915 5.3874L4.97243 3.01863C5.13404 2.55206 5.58297 1.56507 6.60652 0.990825ZM3.30243 3.98767C3.15877 3.93384 3.15878 3.79028 3.15878 3.75439C3.15878 3.7185 3.19469 3.57493 3.3563 3.57493L4.55942 3.48521C4.59534 3.48521 4.61329 3.50315 4.6492 3.50315L8.58179 4.66959C6.10372 4.77726 4.37985 4.38247 3.30243 3.98767ZM8.85114 5.19L8.52791 5.88987L8.13286 5.22589C8.36631 5.20795 8.59974 5.19 8.85114 5.19ZM5.76254 9.04822C6.21146 8.99439 6.71426 8.74315 6.9477 8.04329L6.4449 7.88178C6.22942 8.54576 5.67276 8.54576 5.43932 8.50987C5.20588 8.07918 4.95448 7.6485 4.46964 7.37932C4.34394 7.30754 4.25415 7.23576 4.18233 7.14603C3.9848 6.87685 4.05662 6.78713 4.23619 6.57178C4.27211 6.51795 4.32598 6.46411 4.36189 6.41028C4.6492 5.97959 4.66716 5.47713 4.68512 5.0285C4.68512 4.99261 4.68512 4.95672 4.68512 4.92083C5.47523 5.08233 6.42695 5.19 7.54028 5.20795L8.34835 6.58973C8.40222 6.67945 8.492 6.71535 8.58179 6.71535H8.59974C8.70749 6.71535 8.79727 6.64356 8.83319 6.55384L9.47964 5.11822C9.60534 5.10028 9.74899 5.10028 9.87469 5.08233C10.0004 5.10028 10.1081 5.15411 10.1979 5.26178C10.3416 5.44124 10.3775 5.69247 10.3595 5.85398C10.2697 6.37439 9.71308 6.66151 9.47964 6.76918C9.3719 6.80507 9.31803 6.91274 9.31803 7.02041C9.31803 7.12808 9.38985 7.21781 9.47964 7.27165L11.5806 8.16891L11.7602 9.44302L8.33039 11.2734L8.20469 10.2685C8.18673 10.1249 8.06103 10.0173 7.91738 10.0352C7.09135 10.089 6.24737 9.71219 5.76254 9.04822ZM9.19232 28.6803L7.88146 20.1563C7.46845 17.5184 7.59415 14.8804 8.2406 12.2963L8.92297 13.1756C8.97684 13.2474 9.04867 13.2833 9.13845 13.2833C9.19232 13.2833 9.2462 13.2653 9.28211 13.2295L13.0531 10.6095C14.4537 11.7221 15.4234 13.3012 15.8005 15.0599L18.925 30.1877L16.3033 31.1747L11.0778 14.037L10.5391 14.1985L14.9924 28.77C13.0172 28.8597 10.0183 28.7162 9.19232 28.6803ZM11.7602 30.1159L11.2574 29.9544L9.89265 34.0997L9.65921 29.2366C10.5571 29.2725 12.1373 29.3442 13.5918 29.3442C14.1305 29.3442 14.6513 29.3442 15.1181 29.3084V29.1827L15.8544 31.6233C15.8723 31.6951 15.9262 31.7489 15.998 31.7848C16.0339 31.8027 16.0698 31.8207 16.1237 31.8207C16.1596 31.8207 16.1956 31.8207 16.2135 31.8027L16.6804 31.6233C16.7881 31.7848 16.9497 32.0181 17.1652 32.2693L8.33039 53.5703L4.63125 51.8834L11.7602 30.1159ZM4.45168 52.3679L7.73781 53.8574L7.41458 54.4316C6.67835 54.629 5.92415 54.4316 5.152 53.8574C4.70307 53.5164 4.3619 53.1216 4.21824 52.9422L4.45168 52.3679ZM1.63243 54.5393C1.52469 54.4855 1.38103 53.983 1.59651 53.5164C1.77608 53.1575 2.11727 52.9601 2.60211 52.9601C2.92533 52.9601 3.32039 53.0499 3.75135 53.2114C3.87705 53.3908 4.25415 53.8574 4.82878 54.2881C5.60093 54.8803 6.39103 55.1315 7.18114 55.0418L6.64243 56.4595L1.63243 54.5393Z" fill="#1A1A1A"/>
<path id="Vector_50" d="M5.83438 5.47719C5.6189 5.45925 5.40341 5.62075 5.38546 5.8361C5.3675 6.05144 5.52911 6.26678 5.7446 6.28473C5.96008 6.30267 6.17557 6.14116 6.19352 5.92582C6.21148 5.69253 6.04987 5.49514 5.83438 5.47719Z" fill="#1A1A1A"/>
</g>
</svg>
