<svg xmlns="http://www.w3.org/2000/svg" fill="none" viewBox="0 0 29 29"><g fill-rule="evenodd" clip-rule="evenodd"><path fill="#C28F60" d="M13.55 8.97h1.34v18.9l-.64.5-.7-.26V8.97Z"/><path fill="#AA7950" d="M14.16.33.34 4.86c.04 0 .02.14.06.14.16 0 .24-.02.32.1l.13.07 1.24.17L14.4 9.2l.02.01L27.41 5.1l.63-.1c.06-.03.18-.15.24-.15L14.46.35a.4.4 0 0 0-.3-.02Z"/><path fill="#C28F60" d="M0 5.3v17.86c0 .2.13.37.32.43l13.81 4.73.06.03h.06l.15-19.14C12.9 8.73.8 4.74.33 4.86a.43.43 0 0 0-.28.22.28.28 0 0 0-.03.07l-.01.07-.01.07v.02Z"/><g fill="#654730"><path d="M1.83 21.86c.05.01.1.03.14.06v.84c.02.01.04.03.04.06v.38c0 .04-.02.07-.06.07h-.08c-.04 0-.08-.04-.09-.09l.01-.05v-.34c-.01-.03 0-.07.03-.07v-.86h.01Zm0-.81v-.11c0-.04.03-.06.07-.05.04.02.07.06.07.1v.11a.58.58 0 0 0-.14-.05Z"/><path d="M1.2 21.13a.64.64 0 0 0-.3.47c.13-.1.36-.03.53.13.06.06.1.11.13.17.07-.1.2-.1.35-.06h.02c.08.03.15.09.21.14.05.05.1.1.12.16.07-.1.2-.1.35-.06a.7.7 0 0 1 .3.24 1.44 1.44 0 0 0-.3-.69c-.4-.5-1.03-.74-1.42-.5Zm3.04 2.49v-.96l.3.11-.62-1-.62.56.3.1v.97l.64.22Zm1.34.48v-.97l.3.11-.62-.98-.62.55.3.1v.96l.64.23Zm-1.98-.44v.16l1.97.71v-.16l-1.96-.7Z"/></g><path fill="#D2A06D" d="m14.4 10.28-.15 18.08.18-.05 13.81-4.74a.44.44 0 0 0 .32-.43V5.27A.5.5 0 0 0 28.5 5a.44.44 0 0 0-.37-.2.47.47 0 0 0-.17.04L14.42 9.2h-.02v1.07Z"/><path fill="#654730" d="m20.06 10.56.16-.31.3.16.17-.31.31.16.16-.3.31.15.16-.3.31.15.16-.31.31.16.17-.3.3.15.17-.3.3.16.16-.31h.01l-.13-2.93-2.26-.72L9.6 1.9 6.4 2.94l13.53 4.5.14 3.12Zm3.76 11.24 3.3-1.01v1.31l-3.3 1.01V21.8Zm0-1.86 3.3-1v1.3l-3.3 1.02v-1.32Z"/></g></svg>