<svg xmlns="http://www.w3.org/2000/svg" fill="none" viewBox="0 0 29 34"><g clip-path="url(#a)"><path fill="#DFC09E" d="M1 1.688h23v26H1z"/><circle cx="22.018" cy="27.002" r="5.907" fill="#FFE57F"/><path fill="#3F3F3F" d="M7.297 13.01h9.599a.726.726 0 1 0 0-1.452H7.297a.726.726 0 1 0 0 1.451Zm0-5.12h9.599a.726.726 0 1 0 0-1.45H7.297a.726.726 0 1 0 0 1.45Z"/><path fill="#3F3F3F" d="M26.922 21.905a7.072 7.072 0 0 0-2.733-1.699V2.376a1.677 1.677 0 0 0-.497-1.193 1.7 1.7 0 0 0-1.197-.496H1.694A1.69 1.69 0 0 0 0 2.377V27.31a1.69 1.69 0 0 0 1.694 1.688h13.428a7.043 7.043 0 0 0 1.765 2.912 7.06 7.06 0 0 0 5.017 2.072 7.06 7.06 0 0 0 5.018-2.072A7.019 7.019 0 0 0 29 26.908a7.02 7.02 0 0 0-2.078-5.003Zm-12.085 5.64h-1.456v.003h-2.574v-.002h-9.11a.241.241 0 0 1-.17-.072.23.23 0 0 1-.071-.165V2.379a.23.23 0 0 1 .071-.166.24.24 0 0 1 .17-.072h9.11V2.14h2.575v.002h9.11a.24.24 0 0 1 .17.072.229.229 0 0 1 .071.166v17.5a7.231 7.231 0 0 0-.829-.048 7.06 7.06 0 0 0-5.017 2.072 7.019 7.019 0 0 0-2.05 5.64Zm7.067 5.1c-3.172 0-5.753-2.574-5.753-5.737 0-3.163 2.58-5.736 5.753-5.736 3.172 0 5.753 2.573 5.753 5.736s-2.58 5.736-5.753 5.736Z"/><path fill="#3F3F3F" d="M17.624 17.402a.727.727 0 0 0-.728-.726H7.297a.726.726 0 1 0 0 1.452h9.599a.727.727 0 0 0 .728-.726Zm.878 10.639a.593.593 0 0 1 .74-.925l1.803 1.427 3.433-4.186a.594.594 0 0 1 .918.75l-3.802 4.637a.594.594 0 0 1-.828.088l-2.264-1.791Z"/></g><defs><clipPath id="a"><path fill="#fff" d="M0 0h29v33.296H0z" transform="translate(0 .688)"/></clipPath></defs></svg>