<svg xmlns="http://www.w3.org/2000/svg" fill="none" viewBox="0 0 67 107"><path fill="#EC932D" d="M42.22 7.29c4.86.8 9.12 5.49 9.34 5.74l3.74 4.02c1.51-4.83 1.2-8.88-.88-11.73-2.13-2.9-6-4.53-10.67-4.42-3.12.07-5.66 1.49-7.54 4.22a14.07 14.07 0 0 0-1.66 3.32 13.8 13.8 0 0 1 7.67-1.15ZM41.2 4.8c.13-.8 1.2-1.24 2.47-1.03 1.28.2 2.14.97 2 1.77-.1.67-.86 1.09-1.85 1.09-.2 0-.4-.02-.62-.05-1.27-.22-2.13-.98-2-1.78Z"/><path fill="#667FA3" d="M49.69 33.48a4.15 4.15 0 0 1-1.38 2.72 22.29 22.29 0 0 1-7.02 4.1 14.7 14.7 0 0 1 2.89 3.05c3.25-3.2 6.46-6.89 6.37-7.73a5.7 5.7 0 0 0-.86-2.17v.03Z"/><path fill="#D1A981" d="M49.11 13.82h-.05c1 1.6 2 2.11 2.01 2.12.15.07.24.23.21.4l-.47 2.84.77-.59c.6-.46 1.38-.62 2.07-.41.46.14.83.37 1.12.67.1-.2.2-.5.29-.96l-3.92-4.21c-.75.1-1.42.14-2.03.14Z"/><path fill="#FFE07C" d="M43.33 5.83c.91.15 1.56-.15 1.6-.41.05-.27-.47-.76-1.38-.9a3.36 3.36 0 0 0-.49-.05c-.64 0-1.08.24-1.12.46-.04.26.48.75 1.4.9Z"/><path fill="#667FA3" d="m49.39 88.24-1.03 5.04a.36.36 0 0 1-.17.24.4.4 0 0 1-.2.06h-.09l-7-1.6-1.1.42-.15 3.37h.6c.21 0 .38.17.38.38v9.88h16.32c-.02-5.05-.18-9.25-.37-12.44-1.05-.02-4.67-.48-7.2-5.35ZM34.9 96.52v-.75h4l.14-3.13a2.92 2.92 0 0 1-1.38-.05l-5.73-1.51a1.02 1.02 0 0 1-.72-1.29l-3.56-.8c-.38.81-1.7 3.04-5.1 4.48l-2.86 12.56H34.9l2.69-9.5H34.9Z"/><path fill="#667FA3" d="M49.7 87.16c2.32 5.13 5.82 5.64 6.84 5.68a121.2 121.2 0 0 0-.47-5.82c-1.47.04-3.7.1-6.36.14Z"/><path fill="#FFE0DE" d="m11.03 86.12-.08.38c-.05.3.14.57.42.63l.13.02c.3.06.57-.13.63-.42l.12-.61-1.19-.2-.03.2Z"/><path fill="#9EB3CB" d="m56.88 82.44-6.3 3.95c3.44-.06 6.02-.15 6.99-.2l-.7-3.75Z"/><path fill="#FFE0DE" d="m63 74.22 1.12-8.48A115.03 115.03 0 0 1 54 65.65l-1.68 8.22c.19-.14.36-.27.52-.37l.43.61c-.32.23-.72.55-1.18.91v.01a219.82 219.82 0 0 0-10.46 9.67.4.4 0 0 1-.39.09c0-.01-1.27-.4-3.86-.43-2.59-.03-3.66.34-3.8.54l.02.04c.33.46 1.78.74 2.7.8.13 0 .24.08.3.2.07.11.07.26 0 .37l-1.7 2.74a.38.38 0 0 1-.23.17l-2.54.58a.27.27 0 0 0-.21.27c0 .05 0 .22.2.27l5.74 1.52c.48.13.98.1 1.45-.08l3.95-1.5 1.78-1.3 3.94-2.48v-.03h.05l10.21-6.4A8.14 8.14 0 0 0 63 74.22Zm-4.18-.44a9.36 9.36 0 0 0-4.53-.3l-.13-.73c1.63-.3 3.32-.19 4.9.32l-.24.71Z"/><path fill="#667FA3" d="M22.76 92.55a8.85 8.85 0 0 0 4.13-3.74l-3.12-.7-1.01 4.44Z"/><path fill="#E8BE90" d="m34.35 88.52 1.29-2.1c-.8-.1-2.16-.37-2.65-1.04-.26-.36-.17-.66-.1-.81.43-.83 2.7-.99 4.5-.97 2.12.02 3.38.28 3.87.4 1.05-1.02 6.79-6.61 10.15-9.39l3.27-16.01-9.23-2.73-3.25 14.6a.37.37 0 0 1-.36.3l-.09-.01-3.6-.86a.38.38 0 0 1-.27-.45l3.38-14.82-10.2-3.01c-.8 3.96-7.36 31.76-8.24 35.49l8.95 2.02.2-.07 2.38-.54Z"/><path fill="#FFE0DE" d="M12.96 86.47c-.06.29.13.57.42.63l.13.02c.29.06.57-.13.63-.42l.05-.27-1.2-.2-.03.24Zm2.09.37c.07.12.2.2.34.23l.13.02c.26.05.52-.1.6-.34l-1.15-.2c0 .1.02.2.08.29Z"/><path fill="#C5A17C" d="M7.64 53.1.98 83.48l21.1 3.48c2.68-11.39 7.52-32 8.23-35.41L7.64 53.1Z"/><path fill="#FFE0DE" d="M9.23 85.84c0 .28.17.51.43.56.3.06.57-.13.63-.42l.04-.18-1.1-.19v.23Z"/><path fill="#667FA3" d="m39.82 39.92-1.04-6.07a4.23 4.23 0 0 1 0-1.38l.06-.39a6.57 6.57 0 0 0-1.77 2.11c-.5 1.1-.46 4.73-.37 6.6 1.14-.5 2.47-.77 3.12-.87Z"/><path fill="#EC932D" d="m25.66 41.27.73.2c-.02.08-1.97 6.9-2.12 9.74l6.47-.44h.14l21.24 6.28c-.1-12.05 5.05-13.45 5.28-13.5l.09.37.09.36c-.06.02-4.87 1.4-4.71 13l2.35.69c.18.05.3.25.26.44l-1.32 6.5c4.88.33 10.6.07 12.08-.02l-.53-16.53a8.38 8.38 0 0 0-4.6-7.2l-9.9-5.02c-.24.64-1 1.87-3.34 4.44-1.7 1.88-3.46 3.58-3.47 3.6a.37.37 0 0 1-.27.11h-.03a.4.4 0 0 1-.27-.16c-.92-1.3-2.68-3.37-3.58-3.51-.35.05-2.37.35-3.7 1.08a.37.37 0 0 1-.18.04.37.37 0 0 1-.38-.35c-.01-.21-.27-4.73.2-6.86l-7.83 1.6a7.04 7.04 0 0 0-5.14 4.27l-4.53 11.2 4.82-.34c.13-2.9 2.07-9.7 2.15-10Zm13.99 1.26a.49.49 0 1 1 0 .98.49.49 0 0 1 0-.98Z"/><path fill="#FF8379" d="m42.87 23.65-4.54-.6c.16.65.62 1.81 2.04 2.09 1.15.22 2.06-.84 2.5-1.5Z"/><path fill="#819CBB" d="M39.73 9.6c1.74.28 2.89 1 4 1.7a9.02 9.02 0 0 0 6.75 1.7c-1.26-1.27-4.7-4.37-8.38-4.97-3.83-.63-7.75.8-9.53 2.7a13.5 13.5 0 0 1 5.48-1.27c.55 0 1.11.04 1.68.13Z"/><path fill="#FFE0DE" d="m48.3 26.05.34.67c-3.11 1.65-5.69 2.47-7.84 2.47a6.6 6.6 0 0 1-.72-.04l-.56 3.44c-.07.37-.07.76 0 1.14l1.03 6.02a22 22 0 0 0 7.26-4.12 3.4 3.4 0 0 0 1.12-2.22l.8-8.42a.39.39 0 0 1 .25-.32c.04-.02 4.52-1.54 4.62-4.07.04-.9-.35-1.45-1.18-1.7a1.56 1.56 0 0 0-1.4.28l-1.52 1.17a.38.38 0 0 1-.6-.35l.59-3.53a7.52 7.52 0 0 1-2.34-2.69 9.8 9.8 0 0 1-4.83-1.83 9.4 9.4 0 0 0-3.71-1.61l-.5-.07c.2.48.73 1.3 2.2 2.14l-.38.66c-1.95-1.12-2.49-2.27-2.64-2.85-1.05-.02-2.04.13-2.92.34-.07.27-.12.54-.14.82a67.03 67.03 0 0 1-.62 5.58c-.75 3.9-.93 7.86 2.68 10.42 2.5 1.75 6 1.33 11-1.33Zm3.62-4.28a1.46 1.46 0 0 1-.4-.25c-.32-.31-.39-.85-.15-1.31.18-.34.46-.57.76-.78l.45.6a1.7 1.7 0 0 0-.54.53c-.07.15-.07.34 0 .41l.22.13c.2.1.48.24.58.57.06.2.04.41-.06.58-.22.4-.76.52-1.23.63a2.1 2.1 0 0 0-.39.11l-.37-.65c.14-.09.35-.14.58-.19.2-.05.69-.17.76-.27l-.21-.1Zm-6.02-3.76c-.08.5-.43.87-.77.82-.35-.06-.56-.52-.47-1.03.08-.5.43-.88.77-.82.35.06.56.52.47 1.03Zm1.22-2.52-.33.68c-1.2-.6-2.74-.4-2.75-.4l-.1-.74a6.23 6.23 0 0 1 3.18.46Zm-7 5.04-.4.63a2.63 2.63 0 0 1-1.1-1.43l.73-.22c.12.42.41.79.78 1.02Zm-3-5.97-.14-.74a5 5 0 0 1 2.83.45l-.33.68c-1.2-.58-2.36-.39-2.36-.39Zm.22 2.03c.08-.5.43-.88.78-.82.34.06.55.52.47 1.03-.08.5-.43.87-.78.82-.34-.06-.55-.52-.47-1.03Zm.17 6.04a.4.4 0 0 1 .12-.3c.09-.07.2-.1.3-.09l5.62.74c.12.01.23.09.29.2a.4.4 0 0 1 0 .34c-.05.1-1.23 2.4-3.14 2.4-.15 0-.3 0-.46-.04-2.05-.4-2.68-2.3-2.73-3.25Z"/><path fill="#FFDA87" d="m41.55 69.94 3.16-14.28-2.73-.81-3.3 14.4 2.87.7Z"/><path fill="#E8BE90" d="M43.66 90.92a.4.4 0 0 1-.09.05l-1.4.53 5.53 1.25 1.07-5.23-3.31 2.08-1.8 1.32Z"/><path fill="#452C1A" d="M37.82 17.62c.34.05.7-.32.77-.82.09-.51-.12-.97-.47-1.03-.34-.06-.7.31-.77.82-.1.51.12.97.47 1.03Zm7.61-.64c-.34-.06-.7.31-.77.82-.09.51.12.97.47 1.03.34.05.7-.32.77-.82.09-.51-.12-.97-.47-1.03Zm-1.59 6.54a.37.37 0 0 0-.01-.34.39.39 0 0 0-.29-.2l-5.6-.74a.36.36 0 0 0-.31.1.37.37 0 0 0-.12.29c.05.95.67 2.86 2.71 3.25.16.03.32.05.47.05 1.91 0 3.1-2.3 3.15-2.41Zm-3.46 1.62c-1.42-.28-1.89-1.44-2.04-2.1l4.54.6c-.45.66-1.36 1.72-2.5 1.5Zm10.4-2.8.38.66c.05-.03.24-.08.38-.11.47-.12 1.01-.24 1.23-.63.1-.18.13-.38.06-.59-.1-.32-.37-.46-.58-.56a.8.8 0 0 1-.2-.13c-.09-.08-.09-.27-.01-.41.1-.2.3-.36.53-.53l-.44-.6c-.3.21-.58.44-.76.77-.24.46-.18 1 .15 1.32.12.12.27.19.39.25l.2.1c-.07.12-.55.23-.76.28-.22.05-.42.1-.57.18Zm-3.99-6.17.33-.68a6.1 6.1 0 0 0-3.18-.46l.1.74c.01 0 1.54-.2 2.75.4Zm-7.31-1.21.33-.68a4.93 4.93 0 0 0-2.83-.46l.14.75s1.16-.2 2.36.39Zm-.85 4.77c.17.59.58 1.1 1.1 1.43l.4-.63c-.37-.23-.65-.6-.78-1.02l-.72.22Zm4.58-13.15c.22.03.42.05.62.05.99 0 1.74-.42 1.85-1.09.14-.8-.73-1.56-2-1.77-1.28-.21-2.35.23-2.47 1.03-.14.8.72 1.56 2 1.78Zm-.15-2.11c.16 0 .32.01.49.04.9.15 1.43.63 1.39.9-.05.27-.7.56-1.6.41-.92-.15-1.44-.63-1.4-.9.04-.22.48-.45 1.12-.45Zm-2.43 101.56h-.75v.73h.75v-.73Zm-21.86.65.74.16.18-.81h-.77l-.15.65Zm15.95-.02.73.2.23-.83h-.78l-.18.63Zm22.23.1h.75v-.73h-.75v.73Z"/><path fill="#452C1A" d="M58.03 86.94a.37.37 0 0 0 .36-.45L57.56 82l2.08-1.3a8.89 8.89 0 0 0 4.1-6.39l1.15-8.6 1.76-.09c.2-.01.36-.18.35-.39l-.54-16.9a9.12 9.12 0 0 0-5-7.85l-10.2-5.15a7.86 7.86 0 0 0-1.47-3.06l.67-6.97c1-.38 4.8-1.97 4.9-4.66.01-.4-.04-.76-.17-1.08.2-.26.48-.75.63-1.7 1.8-5.33 1.53-9.83-.8-13C52.82 1.85 48.87.14 44.15.14h-.42c-7.43.16-9.8 7.57-10.14 8.8a5.94 5.94 0 0 0-2.5 2.66.37.37 0 0 0 .1.43c.13.11.31.12.45.03.02-.01 1.18-.75 2.91-1.28a67.13 67.13 0 0 1-.67 6.03c-.75 3.95-.99 8.36 2.98 11.17.75.53 1.58.88 2.48 1.06l-.33 1.95a8.48 8.48 0 0 0-2.54 2.7l-8.28 1.7a7.8 7.8 0 0 0-5.69 4.72l-4.66 11.53-10.54.72a.39.39 0 0 0-.34.3L.15 83.7c-.02.1 0 .2.06.3.05.08.14.14.24.16l8 1.31.02.35a1.28 1.28 0 0 0 1.8 1.22 1.27 1.27 0 0 0 .96.81l.12.03a1 1 0 0 0 .25.03c.37 0 .72-.17.96-.44.18.18.4.3.66.35l.13.03c.08.02.17.02.25.02a1.29 1.29 0 0 0 .96-.43c.18.18.4.3.66.36l.13.02a1.29 1.29 0 0 0 1.5-.96l5.4.9.76.17-4.12 18.1h.77l2.86-12.57c3.41-1.44 4.72-3.66 5.1-4.48l3.56.8c-.02.09-.04.18-.04.27 0 .49.3.9.77 1.02l5.73 1.52a3.15 3.15 0 0 0 1.37.04l-.14 3.13h-4v.75h2.7l-2.7 9.51h.79l2.69-9.5h1.5v9.5h.76v-9.88a.37.37 0 0 0-.38-.38h-.6l.15-3.37 1.1-.4 7 1.58h.09a.4.4 0 0 0 .2-.05.38.38 0 0 0 .17-.25l1.03-5.03c2.52 4.87 6.14 5.32 7.2 5.35.18 3.19.35 7.39.36 12.44h.75a190.29 190.29 0 0 0-.88-19.04l1.23-.05Zm-7.48-51.32c.1.84-3.11 4.52-6.37 7.73a14.92 14.92 0 0 0-2.9-3.05 22.53 22.53 0 0 0 7.03-4.1 4.17 4.17 0 0 0 1.38-2.72v-.03c.36.58.77 1.39.86 2.17Zm4.21-16.77a2.5 2.5 0 0 0-1.12-.67 2.3 2.3 0 0 0-2.07.41l-.76.59.47-2.84a.38.38 0 0 0-.21-.4c-.01-.01-1.01-.51-2.02-2.12h.06c.6 0 1.28-.04 2.02-.14l3.92 4.21c-.08.46-.2.76-.29.96ZM36.2 5.12C38.1 2.4 40.63.97 43.75.9 48.4.8 52.28 2.41 54.4 5.32c2.09 2.85 2.4 6.9.89 11.73l-3.75-4.02c-.22-.25-4.47-4.94-9.33-5.74-2.39-.4-5.36.05-7.68 1.15.28-.8.8-2.06 1.66-3.32Zm-3.62 5.6c1.77-1.89 5.7-3.32 9.52-2.7 3.68.62 7.12 3.71 8.39 4.97-3.54.35-5.1-.64-6.76-1.68-1.1-.7-2.25-1.43-3.99-1.72a9.77 9.77 0 0 0-1.69-.13c-2.25 0-4.24.7-5.47 1.26Zm4.72 16.65c-3.61-2.55-3.42-6.51-2.68-10.42a67 67 0 0 0 .63-5.57c.01-.28.06-.56.13-.82.88-.22 1.88-.36 2.92-.34.15.57.7 1.73 2.64 2.84l.37-.65c-1.45-.84-2-1.66-2.2-2.15l.51.07c1.59.26 2.62.92 3.71 1.61a9.73 9.73 0 0 0 4.83 1.84 7.52 7.52 0 0 0 2.34 2.68L49.92 20c-.03.15.04.3.17.38.14.08.3.07.42-.02l1.53-1.17c.41-.32.93-.43 1.4-.29.82.25 1.21.8 1.17 1.7-.1 2.53-4.57 4.05-4.62 4.07a.37.37 0 0 0-.25.32l-.8 8.42a3.38 3.38 0 0 1-1.12 2.22 22 22 0 0 1-7.26 4.12l-1.03-6.02a3.42 3.42 0 0 1 0-1.14l.57-3.43c.23.02.47.04.71.04 2.15 0 4.73-.83 7.84-2.47l-.35-.67c-5.02 2.66-8.5 3.08-11 1.32Zm-.23 6.82a6.49 6.49 0 0 1 1.77-2.1l-.06.38a4 4 0 0 0 0 1.38l1.04 6.07c-.64.11-1.97.36-3.11.86-.09-1.86-.13-5.5.36-6.59Zm-13.86 6.2c.9-2.2 2.8-3.79 5.14-4.26l7.84-1.6c-.48 2.13-.22 6.65-.2 6.86 0 .13.08.24.19.3.05.04.12.05.18.05s.12-.01.18-.04a12.8 12.8 0 0 1 3.7-1.08c.9.14 2.67 2.22 3.58 3.51a.4.4 0 0 0 .28.16h.03a.4.4 0 0 0 .26-.1c.02-.03 1.77-1.73 3.48-3.6 2.34-2.58 3.09-3.81 3.33-4.45l9.9 5.01a8.38 8.38 0 0 1 4.6 7.21l.54 16.53c-1.49.08-7.2.35-12.09.02l1.32-6.5a.38.38 0 0 0-.26-.44l-2.35-.7c-.16-11.6 4.66-12.98 4.7-12.99l-.08-.36-.09-.37c-.22.05-5.38 1.45-5.28 13.5l-21.24-6.27c-.04-.01-.09-.02-.13-.01l-6.48.44c.15-2.85 2.1-9.66 2.12-9.73l-.72-.21c-.09.3-2.03 7.09-2.16 10l-4.82.32 4.53-11.2Zm21.5 15.27-3.16 14.28-2.86-.68 3.3-14.41 2.72.8ZM10.3 85.98a.54.54 0 0 1-.63.42.54.54 0 0 1-.43-.57v-.22l1.1.18-.04.19Zm1.85.75a.53.53 0 0 1-.63.42l-.13-.03a.53.53 0 0 1-.42-.63l.08-.37.04-.21 1.19.2-.13.62Zm2-.03a.53.53 0 0 1-.63.42l-.12-.03a.53.53 0 0 1-.42-.63l.04-.23 1.2.2-.07.27Zm1.38.4-.13-.03a.53.53 0 0 1-.34-.23.53.53 0 0 1-.08-.28l1.15.19a.54.54 0 0 1-.6.34Zm6.55-.14L.97 83.48 7.64 53.1l22.66-1.55c-.7 3.42-5.54 24.02-8.23 35.41Zm.69 5.6 1.01-4.46 3.12.71c-.4.76-1.53 2.5-4.13 3.74Zm.05-5.45c.88-3.72 7.44-31.53 8.25-35.5l10.2 3.02-3.4 14.82c-.04.2.09.4.29.45l3.6.86.09.01c.07 0 .14-.02.2-.06a.37.37 0 0 0 .16-.23l3.24-14.6 9.23 2.72-3.28 16c-3.36 2.78-9.1 8.37-10.15 9.4-.48-.13-1.74-.38-3.86-.4-1.81-.03-4.07.13-4.5.96-.08.15-.17.45.1.81.49.67 1.84.95 2.64 1.05l-1.28 2.09-2.39.54-.21.08-8.94-2.03Zm24.89 5.64-5.52-1.25 1.4-.53a.25.25 0 0 0 .08-.05l1.8-1.32 3.31-2.08-1.07 5.23Zm1.32-6.28h-.04v.03l-3.95 2.48-1.77 1.3-3.96 1.5c-.46.18-.97.2-1.45.08l-5.73-1.52a.27.27 0 0 1-.21-.27c0-.05.02-.22.22-.27l2.54-.58a.4.4 0 0 0 .23-.17l1.69-2.74a.37.37 0 0 0 .01-.37.38.38 0 0 0-.31-.2c-.92-.06-2.37-.34-2.7-.8l-.03-.04c.15-.2 1.23-.57 3.82-.54 2.58.02 3.84.42 3.86.43.13.04.28 0 .38-.1.08-.07 6.9-6.75 10.46-9.66.46-.37.86-.69 1.19-.92l-.44-.61c-.16.1-.33.23-.51.37L54 65.65a83 83 0 0 0 5.6.17c1.71 0 3.29-.03 4.51-.08L63 74.22a8.14 8.14 0 0 1-3.76 5.85l-10.2 6.4Zm.69.7c2.67-.05 4.89-.1 6.36-.16.09.84.29 2.84.47 5.82-1.02-.03-4.52-.54-6.83-5.67Zm.86-.78 6.3-3.95.7 3.76c-.98.04-3.55.14-7 .19Z"/><path fill="#452C1A" d="m54.15 72.74.13.74a9.35 9.35 0 0 1 4.54.3l.23-.72a10.2 10.2 0 0 0-4.9-.32Zm-14.5-29.23a.5.5 0 1 0 0-.98.5.5 0 0 0 0 .98Z"/></svg>