<svg xmlns="http://www.w3.org/2000/svg" fill="none" viewBox="0 0 53 107"><path fill="#9A9589" d="M14.92 12.65c-.22.1-.43.23-.63.34.14.92.48 1.63.8 2.12l-.14-1.9a5.43 5.43 0 0 1-.03-.56Z"/><path fill="#667FA3" d="M15.58 86.05a55.3 55.3 0 0 1-3.3-.48l-.8 6.79c2.89-1.59 3.85-5.13 4.1-6.31Z"/><path fill="#FFE0DE" d="m16.2 53.64-.05-.77c.03 0 2.48-.14 3.8-.6.98-.33.8-1.15.76-1.3a.38.38 0 0 1 .13-.41c.7-.58.28-1.52.28-1.52a.4.4 0 0 1 .02-.38c.73-1.12-.05-1.72-.21-1.82a.4.4 0 0 1-.14-.5c.07-.14.12-.27.14-.41a.84.84 0 0 0-.17-.68.94.94 0 0 0-.71-.36l-3.86-.1a.39.39 0 0 1-.37-.43c.12-1.43-.06-2.6-.23-3.32-.05-.2-.22-.31-.42-.32a.42.42 0 0 0-.38.3l-1.3 4.49a7.08 7.08 0 0 0-.06 3.66.4.4 0 0 1-.05.31L4.52 63.27l-.64-.42 2.99-4.65a9.66 9.66 0 0 1-4.26-2.02c-.73 3.41-1.38 6.95-1.8 10.17a5.06 5.06 0 0 0 9.67 2.6l6.3-15.36-.59.05Z"/><path fill="#667FA3" d="m25.07 41.3-2.05-5.98a4.32 4.32 0 0 1-.24-1.4v-.7c-.53.35-1.3 1-1.55 1.96-.32 1.21.42 5.4.86 7.52a13.7 13.7 0 0 1 2.98-1.4Z"/><path fill="#EC932D" d="M45.4 85.75v-3.3a5.97 5.97 0 0 1-1.86-.56 46.15 46.15 0 0 1-3.65-2.02l-.54 2.34a.39.39 0 0 1-.38.3h-.1l-20.14-5.17a.39.39 0 0 1-.28-.47l2.03-8.25c-.15-.1-.3-.22-.43-.34l-.25-.21a1.24 1.24 0 0 1 .05-1.89c-.48-.3-.68-.9-.49-1.44l.05-.14c.08-.23.23-.42.42-.57a1.37 1.37 0 0 1-.23-1.39c.12-.31.36-.56.66-.7-.14-.28-.18-.6-.08-.92l.04-.12a1.2 1.2 0 0 1 1.38-.83l.99.18 2.86-11.28a.4.4 0 0 1 .47-.29l13.06 3.35v-5.48h.77v5.68l6.32 1.62c.1.03.18.1.23.18.05.1.07.2.04.3L45 59.62c2.74.15 6.1-.17 7.2-.29l-.98-13.86a7.97 7.97 0 0 0-5.32-7 118 118 0 0 0-10-2.95c-.12.67-.66 2.05-2.62 5.1a89.78 89.78 0 0 1-2.9 4.24.37.37 0 0 1-.28.16h-.03c-.1 0-.2-.04-.27-.12-1.13-1.16-3.25-2.97-4.18-2.97a13 13 0 0 0-3.56 1.72.39.39 0 0 1-.23.08c-.05 0-.1 0-.13-.02a.4.4 0 0 1-.25-.28c-.13-.62-1.2-5.6-1.06-7.84-4.8 1.2-10.69 3.17-12.62 4.62-1.2.9-3.3 7.6-4.97 15.11.53.46 2.42 1.96 4.53 2.15l2.4-3.74c-.65-4.57-.78-8.7-.78-8.74l.77-.02c0 .04.1 3.61.65 7.77l2.28-3.54a7.88 7.88 0 0 1 .11-3.9l1.3-4.5a1.18 1.18 0 0 1 2.28.05c.17.71.35 1.81.27 3.16l3.46.1c.5 0 .97.24 1.29.64a1.63 1.63 0 0 1 .24 1.63c.2.2.47.54.57 1 .1.49.01 1-.28 1.51.18.53.25 1.42-.38 2.09.08.63-.1 1.6-1.3 2.01-.73.25-1.74.4-2.56.5l-6 14.64c.62 6.95-.13 14.71-.32 16.44 9.43 2.1 31 1.3 34.07 1.17Zm-3.8-40.4a28.45 28.45 0 0 0 8.28 6.83l-.37.69a29.07 29.07 0 0 1-8.5-7.03l.58-.5Zm-15.82-1.61a.5.5 0 0 1 0 1 .5.5 0 0 1-.5-.5c0-.27.23-.5.5-.5Zm0 39.2a.5.5 0 0 1-.5-.51c0-.28.23-.5.5-.5.28 0 .5.22.5.5a.5.5 0 0 1-.5.5Z"/><path fill="#FFE0DE" d="m31.3 25.83.46.61c-3.18 2.44-5.86 3.73-8.2 3.9v3.57c0 .4.06.79.19 1.16L25.79 41a22.47 22.47 0 0 0 6.61-5.4 3.5 3.5 0 0 0 .76-2.43l-.6-8.67a.38.38 0 0 1 .21-.37c.05-.02 4.3-2.3 3.98-4.9-.12-.9-.6-1.4-1.48-1.52a1.6 1.6 0 0 0-1.35.52l-1.33 1.44a.38.38 0 0 1-.67-.26v-3.78c-.06-.02-.12-.04-.18-.08-.96-.47-1.31-1.42-1.6-2.28-2.87.5-4.55-.23-6.19-.92a9.4 9.4 0 0 0-4-1.01c-1.57 0-3.02.41-4.23.93-.02.28-.03.57 0 .85.13 1.25.34 4.47.3 5.76-.1 4.08.37 8.12 4.44 10.11 2.78 1.38 6.23.37 10.83-3.16Zm2.92-4.95c-.13-.05-.29-.1-.43-.19-.39-.26-.54-.8-.37-1.3.12-.38.37-.65.63-.92l.55.54c-.2.21-.38.4-.46.63-.05.16-.02.35.08.42l.23.09c.22.07.52.16.68.47.1.2.1.42.03.61-.16.44-.68.66-1.13.85-.14.06-.32.14-.37.18l-.49-.6c.13-.11.33-.2.56-.29.2-.08.66-.28.71-.4a.82.82 0 0 0-.22-.09Zm-7.32-1.85c-.35 0-.64-.43-.64-.96s.3-.97.64-.97c.36 0 .65.44.65.97s-.29.96-.65.96Zm1.45-3.72-.22.74c-1.3-.4-2.43 0-2.44 0l-.26-.74a5.05 5.05 0 0 1 2.92 0Zm-9 3.72c-.36 0-.65-.43-.65-.96s.3-.97.64-.97c.36 0 .65.44.65.97s-.29.96-.65.96Zm-1.22-2.99-.26-.73c.06-.02 1.38-.48 2.92 0l-.22.73c-1.3-.38-2.43 0-2.44 0Zm3.07 4.65c.2.4.55.73.95.9l-.3.71a2.68 2.68 0 0 1-1.35-1.27l.7-.34Zm-.38 4.33.46-.62c.1.07 2.34 1.7 4.65-.75l.56.54a4.43 4.43 0 0 1-3.28 1.58 4.32 4.32 0 0 1-2.4-.75Z"/><path fill="#819CBB" d="M24.24 11.64c1.84.79 3.58 1.53 7.08.58-1.49-1.06-5.46-3.63-9.26-3.63-3.96 0-7.67 2.11-9.14 4.33 1.43-.97 4-2.35 7.02-2.35 1.8 0 3.07.55 4.3 1.07Z"/><path fill="#9A9589" d="M32.68 15.82v2.61l.67-.72a2.34 2.34 0 0 1 2-.77c.5.07.91.24 1.24.5.07-.22.13-.55.14-1.02l-4.64-3.61c-.43.13-.83.23-1.2.32.24.74.51 1.42 1.17 1.74.48.23 1.08.24 1.64.04l.27.72c-.35.13-.72.2-1.07.2l-.22-.01Z"/><path fill="#EC932D" d="m32.41 12.07 4.43 3.45c.71-5.16-.27-9.2-2.85-11.75-2.62-2.59-6.8-3.57-11.47-2.7-3.13.6-5.45 2.46-6.89 5.56a14.7 14.7 0 0 0-1.12 3.64 13.99 13.99 0 0 1 7.54-2.46c5.06 0 10.15 4.09 10.36 4.26Zm-11.8-6.6c0-.84 1-1.47 2.32-1.47 1.32 0 2.32.63 2.32 1.46s-1 1.46-2.32 1.46c-1.32 0-2.31-.63-2.31-1.46Z"/><path fill="#FFE07C" d="M24.48 5.46c0-.28-.6-.68-1.55-.68-.94 0-1.54.4-1.54.68s.6.69 1.54.69c.95 0 1.55-.4 1.55-.69Z"/><path fill="#FFE0DE" d="M46.52 60.45c-.58 0-1.15-.02-1.71-.05l-2.26 8.9c1.62.75 3.39 1.54 5.3 2.4l-.31.7c-7.41-3.3-16.51-7.47-17.8-8.48a.38.38 0 0 1-.09-.1s-.7-1.04-1.83-2.87c-.36-.59-.94-1.25-1.72-1.14-.65.1-1.22.35-1.78.76l2.1.4-.13.75-4.83-.9a.45.45 0 0 0-.5.3l-.05.13c-.06.21.04.45.24.54l2.54.93h.01l1.53.57-.26.73-1.56-.58-2.3-.83a.6.6 0 0 0-.48-.01.57.57 0 0 0-.32.32c-.12.28.01.6.29.74l.48.24 1.24.6 1.76.84-.33.7-1.47-.7-.29-.14-1.24-.6a.45.45 0 0 0-.36-.02.43.43 0 0 0-.25.27l-.05.14c-.07.2 0 .43.2.54l1.45.85.27.15.67.4-.38.66-1.48-.86a.44.44 0 0 0-.6.16.44.44 0 0 0 .09.57l.25.21a6.1 6.1 0 0 0 2.77 1.38l4.23.09c.1 0 .2.04.26.12.08.07 7.48 7.7 16.06 11.92a5.22 5.22 0 0 0 7.5-4.67l-.24-16.3c-1.19.12-2.9.24-4.62.24Z"/><path fill="#667FA3" d="M38.18 86.73c2.34 4.91 5.91 5.72 7 5.86-.2-3.15-.4-5.23-.5-6.04-1.3.05-3.62.13-6.5.18Z"/><path fill="#E8BE90" d="m27.38 69.92-4.1-.08h-.07a6.9 6.9 0 0 1-2.04-.77l-1.88 7.6 19.4 4.98.5-2.21a73.73 73.73 0 0 1-11.8-9.52Z"/><path fill="#667FA3" d="M23.1 96.4v-.77h4.06v-2.27a3.12 3.12 0 0 1-2.72-3.1v-3.61c-2.83-.1-5.6-.26-8.1-.52-.25 1.27-1.32 5.5-4.99 7.14l-1.54 12.9h14.76l1.7-9.76H23.1Z"/><path fill="#667FA3" d="M25.21 90.26c0 1.17.85 2.13 1.95 2.32v-5.85l-1.95-.05v3.58Zm12.13-3.52a282.98 282.98 0 0 1-9.41 0v8.89h.63c.21 0 .38.17.38.39v10.15H45.6c-.01-5.2-.18-9.52-.37-12.8-1.11-.1-5.28-.86-7.88-6.63Z"/><path fill="#E8BE90" d="M28.47 60.55a94.44 94.44 0 0 0 1.78 2.8c.87.63 4.91 2.6 11.6 5.64L45.5 54.5l-19.4-4.98-2.75 10.83c.02 0 .02-.02.04-.03a4.81 4.81 0 0 1 2.59-1.27c.93-.15 1.8.38 2.48 1.49Z"/><path fill="#667FA3" d="M26.61 41.44c1.25.58 2.75 1.96 3.42 2.6 2.74-3.78 5.35-8.06 5.11-8.89a5.8 5.8 0 0 0-1.22-2.06v.03a4.3 4.3 0 0 1-.93 2.99 22.87 22.87 0 0 1-6.38 5.33Z"/><path fill="#452C1A" d="M19.34 17.1c-.35 0-.64.44-.64.97s.3.96.64.96c.36 0 .65-.43.65-.96s-.29-.97-.65-.97Zm7.56 0c-.35 0-.64.44-.64.97s.3.96.64.96c.36 0 .65-.43.65-.96s-.29-.97-.65-.97Zm-.98 6.55c-2.3 2.45-4.55.82-4.65.75l-.46.62c.02.02 1 .74 2.39.74a4.4 4.4 0 0 0 3.27-1.58l-.55-.53Zm7.82-2.29c-.23.1-.43.18-.56.29l.48.6c.05-.04.24-.12.37-.18.46-.2.98-.41 1.14-.85.07-.2.06-.4-.04-.6-.15-.32-.45-.42-.67-.49a.6.6 0 0 1-.24-.09c-.09-.06-.13-.25-.07-.42.07-.21.25-.4.46-.62l-.56-.55c-.26.28-.51.55-.63.92-.16.5-.01 1.05.37 1.3.15.1.3.16.44.2l.23.08c-.07.13-.53.32-.72.4Zm-5.61-5.31.22-.74a5.01 5.01 0 0 0-2.92 0l.26.74c.01 0 1.14-.4 2.44 0Zm-7.33-.74a5.01 5.01 0 0 0-2.93 0l.26.74c.01 0 1.14-.4 2.44 0l.22-.74Zm1.06 6.99.3-.7a1.9 1.9 0 0 1-.95-.9l-.7.34c.28.56.77 1.02 1.35 1.27Z"/><path fill="#452C1A" d="M11.35 93.27c3.67-1.65 4.74-5.86 5-7.14 2.48.25 5.26.42 8.1.52v3.61c0 1.6 1.18 2.9 2.71 3.1v2.27H23.1v.78h3.18l-1.7 9.76h.77l1.7-9.76h1.13v9.76h.77V96.02a.38.38 0 0 0-.38-.39h-.63v-8.89a269.5 269.5 0 0 0 9.4 0c2.6 5.77 6.77 6.54 7.9 6.64.18 3.27.35 7.6.36 12.8h.77a196.49 196.49 0 0 0-.91-19.66l.36-.01a.4.4 0 0 0 .36-.4v-3.6a5.96 5.96 0 0 0 5.97-5.98l-.24-16.37.75-.08a.4.4 0 0 0 .34-.41l-1-14.23a8.75 8.75 0 0 0-5.83-7.68c-4.88-1.7-9.36-2.8-10.35-3.04a8.16 8.16 0 0 0-1.97-2.84l-.5-7.18c.96-.54 4.5-2.8 4.17-5.55-.06-.4-.17-.76-.35-1.06.16-.29.35-.84.35-1.82.92-5.7-.1-10.22-2.97-13.04C31.75.46 27.3-.6 22.4.33c-7.45 1.4-8.6 9.3-8.74 10.62a6.14 6.14 0 0 0-2.08 3.11.4.4 0 0 0 .18.43c.05.04.13.05.2.05a.4.4 0 0 0 .25-.1c.01-.01.52-.46 1.38-1.02a5.67 5.67 0 0 0 1.59 2.98c.05.97.08 1.91.07 2.48-.1 4.13.4 8.65 4.87 10.83.83.4 1.72.62 2.66.65v1.96a4.72 4.72 0 0 0-2.22 2.45c-4.14 1.02-10.92 3.1-13.24 4.84C5.01 41.34 1.27 56.97.05 66.26a5.85 5.85 0 0 0 5.77 6.63 5.8 5.8 0 0 0 5.16-3.18 96.53 96.53 0 0 1-.46 15.15c-.03.2.1.38.29.42l.7.16-2.48 20.75h.77l1.55-12.92Zm15.81-.69a2.35 2.35 0 0 1-1.95-2.32v-3.58l1.95.05v5.85Zm11.02-5.85c2.88-.05 5.2-.13 6.5-.18.09.81.3 2.89.5 6.04-1.1-.14-4.66-.95-7-5.86Zm10.74-5.8a5.16 5.16 0 0 1-5.04.26C35.3 76.98 27.9 69.34 27.82 69.27a.38.38 0 0 0-.26-.12l-4.23-.09a6.1 6.1 0 0 1-2.77-1.37l-.25-.22a.44.44 0 0 1-.1-.56c.13-.21.4-.29.61-.17l1.48.87.38-.67-.67-.4-.27-.15-1.46-.85a.45.45 0 0 1-.2-.54l.06-.14a.44.44 0 0 1 .25-.26.43.43 0 0 1 .36.01l1.24.6.29.14 1.47.7.33-.7-1.76-.84-1.24-.6-.48-.23a.59.59 0 0 1 .03-1.07c.15-.06.3-.05.48.02l2.3.82 1.56.58.26-.73-1.53-.56h-.01l-2.54-.94a.45.45 0 0 1-.24-.54l.04-.12a.44.44 0 0 1 .51-.3l4.83.9.14-.76-2.11-.4a4 4 0 0 1 1.78-.75c.78-.12 1.36.55 1.72 1.13a83.54 83.54 0 0 0 1.83 2.88l.08.09c1.3 1 10.4 5.17 17.8 8.49l.32-.71c-1.91-.85-3.68-1.65-5.3-2.39l2.26-8.91c.56.03 1.13.05 1.71.05 1.71 0 3.43-.12 4.62-.22l.24 16.3a5.2 5.2 0 0 1-2.46 4.4Zm-9.72-1.5-.52 2.22-19.39-4.97 1.88-7.61a6.9 6.9 0 0 0 2.04.76h.07l4.1.1c.8.8 5.65 5.6 11.82 9.5ZM23.36 60.37l2.75-10.83 19.4 4.98L41.84 69c-6.68-3.04-10.72-5-11.59-5.64-.15-.23-.8-1.21-1.78-2.8-.68-1.1-1.55-1.63-2.48-1.49-.96.15-1.79.55-2.6 1.28l-.03.02Zm10.56-27.24v-.04a5.89 5.89 0 0 1 1.23 2.06c.23.84-2.38 5.1-5.12 8.9a15.13 15.13 0 0 0-3.41-2.6A22.73 22.73 0 0 0 33 36.1c.67-.83 1-1.9.92-2.98ZM15.64 6.62c1.44-3.08 3.76-4.95 6.9-5.54 4.65-.88 8.83.1 11.46 2.69 2.58 2.54 3.56 6.6 2.85 11.75l-4.43-3.45c-.22-.17-5.3-4.26-10.36-4.26-2.46 0-5.39.95-7.54 2.46.15-.86.46-2.22 1.12-3.64ZM33.7 14.9c-.56.2-1.15.2-1.63-.04-.66-.32-.93-1-1.18-1.74.38-.09.78-.2 1.2-.32l4.65 3.61c-.02.48-.08.8-.14 1.01a2.55 2.55 0 0 0-1.23-.49c-.73-.1-1.49.2-2.02.77l-.67.73V15.8l.22.01c.36 0 .72-.06 1.08-.2l-.28-.72Zm-19.4-1.91c.2-.11.4-.23.63-.34a65.1 65.1 0 0 1 .18 2.46 5.1 5.1 0 0 1-.81-2.12Zm-1.37-.07c1.47-2.22 5.18-4.33 9.14-4.33 3.8 0 7.78 2.57 9.26 3.63-3.5.95-5.24.21-7.08-.58-1.23-.52-2.5-1.07-4.3-1.07-3.02 0-5.59 1.37-7.02 2.35ZM20.45 29c-4.07-1.99-4.54-6.04-4.44-10.12a70.3 70.3 0 0 0-.3-5.76 5.33 5.33 0 0 1 0-.85c1.21-.52 2.66-.93 4.23-.93 1.64 0 2.79.5 4 1.01 1.63.7 3.31 1.41 6.19.92.29.87.64 1.82 1.6 2.29l.18.07v3.78c0 .16.1.3.24.36.15.06.31.02.42-.1l1.34-1.44c.36-.39.86-.58 1.35-.52.88.12 1.37.61 1.48 1.53.31 2.58-3.93 4.87-3.98 4.9a.4.4 0 0 0-.2.36l.6 8.67c.05.9-.22 1.76-.77 2.44a22.47 22.47 0 0 1-6.62 5.4l-2.04-5.94c-.13-.37-.2-.76-.2-1.15v-3.57c2.35-.18 5.04-1.46 8.22-3.9l-.47-.62c-4.6 3.52-8.04 4.53-10.83 3.17Zm.78 6.18a3.66 3.66 0 0 1 1.55-1.97v.7c0 .48.08.96.23 1.4l2.05 5.99c-.63.21-1.92.7-2.98 1.4-.43-2.12-1.18-6.3-.85-7.52ZM10.48 68.96a5.02 5.02 0 0 1-8.58 1.27 5.07 5.07 0 0 1-1.1-3.87 126.1 126.1 0 0 1 1.8-10.17 9.62 9.62 0 0 0 4.26 2.02l-3 4.65.65.42 8.87-13.79a.4.4 0 0 0 .05-.3c-.3-1.2-.28-2.48.06-3.67l1.3-4.49c.05-.17.2-.29.38-.3.2.01.37.13.41.32.18.73.36 1.89.23 3.32 0 .1.03.21.1.3a.4.4 0 0 0 .28.13l3.86.1c.27.01.53.15.7.36.16.2.23.44.18.68-.03.14-.07.28-.14.4-.1.18-.04.4.13.51.17.1.94.7.22 1.82a.4.4 0 0 0-.03.38s.43.94-.28 1.52a.4.4 0 0 0-.13.4c.05.17.22.99-.75 1.32-1.32.45-3.77.59-3.8.59l.04.77a16 16 0 0 0 .58-.04l-6.3 15.35Zm.84 15.63c.18-1.72.94-9.49.32-16.44l6-14.64c.83-.1 1.83-.25 2.55-.5A1.79 1.79 0 0 0 21.5 51c.65-.67.57-1.55.4-2.09.28-.51.38-1.02.27-1.5-.1-.47-.36-.8-.57-1l.1-.33a1.7 1.7 0 0 0-1.62-1.95l-3.47-.1c.07-1.35-.1-2.45-.27-3.15a1.18 1.18 0 0 0-2.29-.06l-1.29 4.5a7.88 7.88 0 0 0-.11 3.9l-2.28 3.55a86.6 86.6 0 0 1-.66-7.78l-.76.02c0 .04.13 4.17.78 8.74l-2.4 3.74c-2.12-.2-4-1.69-4.53-2.15 1.67-7.51 3.77-14.2 4.97-15.11 1.93-1.44 7.82-3.42 12.62-4.62-.14 2.25.92 7.22 1.06 7.84a.4.4 0 0 0 .25.28c.04.01.08.03.13.03.08 0 .17-.03.23-.08a12.82 12.82 0 0 1 3.56-1.72c.93 0 3.05 1.8 4.18 2.96a.4.4 0 0 0 .27.12h.03c.1 0 .2-.07.27-.16.02-.02 1.5-2.04 2.9-4.23 1.97-3.06 2.5-4.43 2.63-5.1 1.36.33 5.5 1.39 10 2.95a7.97 7.97 0 0 1 5.32 7l.97 13.86c-1.1.11-4.45.43-7.2.3l1.35-5.32a.4.4 0 0 0-.04-.3.4.4 0 0 0-.23-.17l-6.32-1.63v-5.68h-.77v5.49L25.91 48.7a.38.38 0 0 0-.47.28l-2.86 11.29-1-.19a1.2 1.2 0 0 0-1.37.83l-.04.13c-.1.31-.07.63.08.9-.3.15-.54.4-.67.71-.2.49-.08 1.02.24 1.4a1.2 1.2 0 0 0-.42.56l-.05.14c-.19.54.01 1.14.49 1.44a1.22 1.22 0 0 0-.05 1.89l.25.21c.13.12.28.24.43.34l-2.04 8.25c-.05.2.07.42.28.47l20.15 5.16a.38.38 0 0 0 .3-.05c.09-.04.15-.14.17-.23l.54-2.35a45.2 45.2 0 0 0 3.66 2.03c.6.29 1.23.47 1.86.56v3.29c-3.06.12-24.63.93-34.07-1.17Zm.96.98c1 .18 2.11.34 3.3.48-.25 1.18-1.21 4.72-4.12 6.3l.82-6.78Z"/><path fill="#452C1A" d="m9.71 106.98.1-.8h-.78l-.09.7.77.1Zm35.89-.05h.76v-.76h-.77v.76Zm-16.66-.75h-.76v.75h.76v-.75Zm-4.49.68.76.14.14-.82h-.78l-.12.68Zm1.33-62.11a.5.5 0 0 0 .5-.5.5.5 0 0 0-.5-.5.5.5 0 0 0-.5.5c0 .27.23.5.5.5Zm0 37.17a.5.5 0 0 0-.5.5c0 .28.23.5.5.5a.5.5 0 0 0 .5-.5.5.5 0 0 0-.5-.5Zm23.73-29.05.37-.68c-3.14-1.7-6-4.07-8.29-6.84l-.59.5a29.53 29.53 0 0 0 8.51 7.02ZM25.25 5.46c0-.83-1-1.46-2.32-1.46-1.32 0-2.32.63-2.32 1.46s1 1.46 2.32 1.46c1.32 0 2.32-.63 2.32-1.46Zm-3.87 0c0-.28.6-.68 1.55-.68.94 0 1.54.4 1.54.68s-.6.69-1.54.69c-.94 0-1.55-.4-1.55-.69Z"/></svg>