<svg xmlns="http://www.w3.org/2000/svg" width="32" height="29" fill="none"><path d="M27.95 10.787V.828A.83.83 0 0 0 27.122 0h-4.195a.83.83 0 0 0-.828.828v4.529L16.564.221a.83.83 0 0 0-1.127 0L.877 13.732a.83.83 0 0 0-.044 1.171l2.361 2.545c.163.176.385.265.607.265.084 0 .168-.016.249-.041v10.501a.83.83 0 0 0 .828.828h22.243a.83.83 0 0 0 .828-.828v-10.5c.296.093.631.018.856-.224l2.361-2.545a.83.83 0 0 0-.044-1.171l-3.174-2.946zm-1.657-1.538l-2.539-2.355V1.656h2.539v7.593zM5.707 27.342V16.245L16 6.694l10.293 9.551v11.097H5.707h0zm22.448-11.629L16.563 4.958c-.159-.148-.361-.221-.563-.221s-.404.074-.563.221L3.845 15.713l-1.235-1.33L16 1.958 29.39 14.383l-1.235 1.331z" fill="#29333f"/><path d="M26.294 16.246v11.097H5.708V16.244l10.293-9.549 10.293 9.551z" fill="#e8be90"/><path d="M29.39 14.383l-1.234 1.329L16.564 4.958a.83.83 0 0 0-.563-.222c-.203 0-.406.075-.563.222L3.844 15.713l-1.234-1.33L16.001 1.957 29.39 14.383zM26.294 1.657V9.25l-2.538-2.356V1.657h2.538z" fill="#59686c"/><path d="M14.669 15a2.27 2.27 0 0 0-2.267 2.269c0 .174.141.315.314.315s.314-.141.314-.315a1.64 1.64 0 0 1 1.638-1.639c.174 0 .314-.141.314-.315S14.843 15 14.669 15zm5.538 5.833c.568-.892.898-1.95.898-3.083 0-3.171-2.578-5.75-5.747-5.75a5.71 5.71 0 0 0-3.081.898 5.79 5.79 0 0 0-1.767 1.768 5.72 5.72 0 0 0-.898 3.084c0 3.17 2.578 5.75 5.747 5.75a5.71 5.71 0 0 0 3.082-.899 5.79 5.79 0 0 0 1.767-1.768zm-2.985.549a4.06 4.06 0 0 1-1.863.451 4.09 4.09 0 0 1-4.081-4.083 4.06 4.06 0 0 1 .451-1.865 4.11 4.11 0 0 1 1.767-1.767 4.05 4.05 0 0 1 1.863-.451 4.09 4.09 0 0 1 4.081 4.083 4.06 4.06 0 0 1-.451 1.864 4.11 4.11 0 0 1-1.767 1.768zm7.024 3.484l-3.318-3.311a6.83 6.83 0 0 1-1.767 1.768l3.318 3.311c.244.244.564.366.883.366a1.25 1.25 0 0 0 .884-2.134z" fill="#1e2f68"/></svg>