<svg xmlns="http://www.w3.org/2000/svg" fill="none" viewBox="0 0 25 24"><path fill="#000" d="M13 24a12 12 0 1 0 0-24 12 12 0 0 0 0 24Z"/><g fill="#fff"><path d="M16.7 7.5a.8.8 0 1 0 .8.8c0-.5-.3-.8-.8-.8Zm-3.7 1a3.5 3.5 0 1 0 0 7 3.5 3.5 0 0 0 0-7Zm0 5.7a2.2 2.2 0 1 1 0-4.4 2.2 2.2 0 0 1 0 4.4Z"/><path d="M15.8 19h-5.6A4.2 4.2 0 0 1 6 14.8V9.2C6 6.8 7.9 5 10.2 5h5.6C18.1 5 20 6.8 20 9.2v5.6c0 2.3-1.9 4.2-4.2 4.2ZM10.2 6.3a2.9 2.9 0 0 0-3 2.9v5.6a3 3 0 0 0 3 2.9h5.6a3 3 0 0 0 2.9-3V9.3a3 3 0 0 0-3-3h-5.5Z"/></g></svg>