<svg xmlns="http://www.w3.org/2000/svg" fill="none" viewBox="0 0 26 24"><path fill="#fff" d="m25.9 20.4-2.4-8c-.3-1-1.2-1.6-2.2-1.6h-3.9A12 12 0 0 0 19.1 6 6 6 0 0 0 13 0a6.1 6.1 0 0 0-6.1 6c0 1.2.7 3 1.7 4.8H4.7c-1 0-1.9.7-2.2 1.6l-2.4 8c-.2.7 0 1.4.4 2 .4.5 1 .9 1.8.9h21.4c.7 0 1.4-.4 1.8-1 .5-.5.6-1.2.4-2ZM13 3a3 3 0 0 1 3 3 3 3 0 0 1-3 3 3 3 0 0 1-3-3 3 3 0 0 1 3-3Zm11 18.2-.3.1H2.3a.4.4 0 0 1-.3-.1c0-.1-.2-.2-.1-.4l2.4-8c0-.1.2-.3.4-.3h5a71.5 71.5 0 0 0 3.4 5l3.3-5h4.9c.2 0 .3.2.4.3l2.4 8v.4Z"/></svg>