<svg xmlns="http://www.w3.org/2000/svg" width="133" height="30" fill="none"><g clip-path="url(#A)"><path d="M24.522 0H5a5 5 0 0 0-5 5v20.315a5 5 0 0 0 5 5h19.522a5 5 0 0 0 5-5V5a5 5 0 0 0-5-5z" fill="#1e2f68"/><path d="M94.43 7.642c-.03.037-.097.03-.149-.015s-.075-.105-.045-.142.097-.03.149.015.075.105.045.143z" fill="#fff"/><g fill="#1e2f68"><path d="M45.795 10.335c0 3.653-2.496 5.288-7.442 5.288-4.961 0-7.442-1.635-7.442-5.287s2.481-5.273 7.442-5.273c4.946 0 7.442 1.62 7.442 5.273zm-3.138 0c0-2.198-1.143-2.61-4.304-2.61-3.168 0-4.311.412-4.311 2.61s1.143 2.625 4.311 2.625c3.161.008 4.304-.42 4.304-2.625zM36.769 2.01c.732 0 1.308.413 1.308 1.148 0 .705-.575 1.118-1.308 1.118-.717 0-1.293-.413-1.293-1.118 0-.735.575-1.147 1.293-1.147zm3.168 0c.732 0 1.308.413 1.308 1.148 0 .705-.575 1.118-1.308 1.118-.702 0-1.293-.413-1.293-1.118-.008-.735.59-1.147 1.293-1.147zm19.375 13.447h-9.654c-.792 0-1.464-.457-1.464-1.283 0-.473.261-.93.687-1.267l3.714-2.933 2.802-2.138c-.545.045-1.479.06-3.504.06H47.82l2.01-2.655h9.392c.792 0 1.465.458 1.465 1.282 0 .458-.261.93-.687 1.253l-3.758 2.993-2.772 2.123 4.05-.06h3.699l-1.905 2.625zm13.636-6.142c2.481 0 3.818.93 3.818 2.798 0 2.093-1.263 3.345-4.371 3.345h-9.474l2.025-2.625h7.703c.747 0 1.084-.217 1.084-.75 0-.518-.336-.735-1.084-.735h-5.537c-2.615 0-3.818-1.178-3.818-2.933 0-1.927 1.278-3.18 4.371-3.18h8.839L74.48 7.89h-7.061c-.732 0-1.083.18-1.083.705 0 .518.351.72 1.083.72h5.529zm-1.905 6.615l-1.248 3.42h-1.098v-3.42h2.346zm11.888-.472l1.905-2.625h2.555l1.808.03-1.031-1.485-1.823-2.707-4.782 6.78h-3.728l6.531-9.24c.426-.593 1.053-1.147 2.04-1.147.941 0 1.569.503 2.01 1.148l6.359 9.24H82.931v.008zm26.547-.001h-3.138v-3.945h-6.059v3.945h-3.169V5.235h3.169v3.622h6.059V5.235h3.138v10.223zm6.344 0h-3.153V5.235h3.153v10.223zM114.26 2.01c.733 0 1.308.413 1.308 1.148 0 .705-.575 1.118-1.308 1.118-.717 0-1.292-.413-1.292-1.118-.008-.735.575-1.147 1.292-1.147zm13.801 13.065l-6.239-5.625v6.008h-2.862V6.975c0-1.357.822-1.912 1.719-1.912.381 0 .762.09 1.263.548l6.239 5.625v-6h2.876v8.468c0 1.358-.822 1.928-1.733 1.928-.396-.008-.777-.098-1.263-.555zM49.591 27.45l-4.969-3.675v3.93h-2.279v-5.542c0-.893.657-1.253 1.367-1.253.306 0 .605.06 1.009.36l4.969 3.675v-3.93h2.294v5.535c0 .892-.657 1.26-1.382 1.26-.321 0-.62-.06-1.009-.36zm6.956.255l1.517-1.717h2.04l1.442.022-.822-.967-1.457-1.77-3.803 4.432h-2.966l5.2-6.045c.336-.39.837-.75 1.621-.75.755 0 1.248.33 1.599.75l5.066 6.045h-9.437zm20.556 0h-3.796l-2.451-1.755-1.502-1.117.037.96v1.92h-2.518V21.03h2.518v1.552l-.045 1.17 1.494-1.088 2.339-1.627h3.639l-3.101 1.92-2.1 1.23 2.129 1.328 3.355 2.19zm9.616-1.725l-1.621 1.717h-7.166v-6.682h2.511v4.965h6.276zm3.377 1.725h-2.511v-6.682h2.511v6.682zm-1.248-8.797c.583 0 1.039.27 1.039.75 0 .457-.463.728-1.039.728-.568 0-1.031-.27-1.031-.728 0-.48.463-.75 1.031-.75zm14.421 2.107l-4.812 4.477v2.205h-2.518v-2.22l-4.946-4.47h3.22l1.935 1.86 1.106 1.05c.157-.187.433-.48 1.016-1.058l1.845-1.845h3.153zm1.412 6.69l1.517-1.717h2.033l1.442.022-.822-.967-1.457-1.77-3.804 4.432h-2.966l5.201-6.045a2.04 2.04 0 0 1 1.621-.75c.755 0 1.248.33 1.599.75l5.066 6.045h-9.43zm17.806-6.69l-1.621 1.74h-2.9v4.942h-2.51v-4.942h-3.803l1.621-1.74h9.213zm-82.363 2.88h-9.213v1.418h9.213v-1.418zm90.933 0h-9.213v1.418h9.213v-1.418z"/></g><g fill="#fdd31f"><path d="M20.981 9.818c-.202.727-.471 1.035-.471 1.035.217-.397-.157-.885-.157-.885-.934 1.193-1.711.833-1.711.833.247.3 1.151.33 1.151.33-.53 0-2.114.757-2.114.757 1.465-.098 3.841.09 6.448 2.618 2.443 2.362 2.07 4.132 2.07 4.132.986-.6 3.325-2.722 2.264-5.692C27.549 10.38 24.807 9 24.807 9s.396.863-2.07.9c0 0 1.397.428 2.07 1.44 0 0-.904-1.057-3.243-1.418l-.583-.105zm-2.279-1.231c.187.015.374-.098.493-.18l-.403-.442-.232-.255c-.045.09-.194.15-.194.435 0 0 .03.412.336.443z"/></g><g fill="#fff"><path d="M18.814 9.105c-.53 0-.964-.42-.964-.93 0-.308.157-.578.389-.75-1.39-1.252-2.406-1.492-2.406-1.492 1.278.907 1.106 2.363 1.958 3.007.837.638 1.36.24 1.614-.03-.164.12-.366.195-.59.195zm-3.041 7.597c.411-.457 1.181-.45 1.181-.45-2.399 9.15 1.121 11.385 1.121 11.385l-3.564 1.215c-4.491-3.622-2.78-10.59-2.78-10.59-1.427 1.913-1.3 6.067-1.3 6.067-2.75-4.08.022-9.15.022-9.15-2.115 2.13-2.436 5.648-2.436 5.648l-1.24-.78c-.762-6.847 3.811-10.92 3.811-10.92-3.041 2.16-4.461 5.077-4.819 7.8-.306-.562-1.009-.885-1.285-1.462-.717-1.485-1.487-2.273-2.159-3.78.426-.75 1.614-3.382 4.184-5.017 0 0-2.996.975-4.767 4.582-.56-1.305-.351-3.78-.956-5.07 2.951-2.64 5.522-3.172 5.522-3.172-1.098-.39-2.07-.292-2.07-.292C9.377.39 16.386.697 21.467 3.322c4.072 2.1 3.684 4.583 2.653 5.573a1.5 1.5 0 0 0-.956-1.552s.657.773.463 1.365c-.127.375-.321.57-.62.638-3.213.188-2.854-2.115-6.314-3.833-3.377-1.673-5.148-.353-5.148-.353 2.122-.053 2.974.967 2.974.967-.956-.187-1.479.36-1.479.36 3.101.225 4.349 3.45 4.349 3.45-1.24-.24-2.354 1.665-2.354 1.665 1.92-1.905 2.944-.555 2.944-.555-1.442-.143-1.195 1.748-1.195 1.748s-1.883 1.11-1.009 3.908z"/></g><path d="M24.127 15.735s-1.995-3.398-6.448-3.398a.55.55 0 0 0-.157 0s.665.315-.53 1.073c0 0-.889.525-.859 2.332l.299-.075c.964-.24 4.199-.862 7.696.068z" fill="#fdd31f"/><g fill="#ec932d"><path d="M20.705 11.152c.344-.248.516-1.02.516-1.02a6.28 6.28 0 0 1 3.586 1.2l-.433-.367c-.478-.338-1.367-.825-2.809-1.05l-.583-.098c-.202.728-.471 1.035-.471 1.035.217-.397-.157-.885-.157-.885-.934 1.193-1.711.833-1.711.833.247.3 1.151.33 1.151.33-.53 0-2.114.758-2.114.758 1.465-.098 3.841.09 6.448 2.617 2.443 2.363 2.07 4.133 2.07 4.133 1.375-4.41-5.492-7.485-5.492-7.485zm2.817-.914c1.315-.195 1.45-.78 1.367-1.2L24.807 9s.396.863-2.07.9c-.008-.008.351.105.784.338zm-6.531 3.164s-.03.015-.075.053c-.149.27-.321.675-.284 1.035.06.615.09.72 1.263.622 1.106-.09 4.603-.39 6.172.6.022.007.045.007.067.015 0 0-1.995-3.397-6.448-3.397a.55.55 0 0 0-.157 0c-.007 0 .658.315-.538 1.072z"/></g><path d="M28.461 12.945C27.549 10.38 24.807 9 24.807 9c.814.66 3.527 2.858 3.385 5.377-.105 1.95-.762 3.083-1.913 4.215 1.039-.683 3.213-2.76 2.182-5.648z" fill="#fcecac"/><g fill="#b3b3b3"><path d="M8.085 7.095s-2.309.397-3.452 3.367c0 0 .62-1.23 2.526-1.83 0 0-2.152 1.043-2.817 5.482l.531.975s-.306-5.925 4.902-7.372c0 0-2.204-.12-3.407.773 0 .008.516-.735 1.719-1.395zm6.672 6.165s-2.369 3.233-2.339 7.358c0 0 .239-1.102.837-2.258 0 0-.105 4.02 1.502 7.177 0 0-.971-5.475.403-9.337 0 0-.725.893-1.375 3.615.008 0-.179-4.08.971-6.555zM1.793 7.957s1.367-2.79 8.085-3.81c0 0-4.311-.21-8.331 3.03l.247.78zm11.238-1.47s.523-.548 1.479-.36c0 0-.852-1.02-2.974-.967 0 0 .934.225 1.704.773 0 0-.956.112-2.122 1.47 0 0 3.572-1.357 6.254 2.528 0 .008-1.24-3.217-4.341-3.442zm8.57 2.213c-1.823-1.313-4.61-4.905-8.705-3.998.867-.105 2.13-.008 3.781.81 3.46 1.71 3.101 4.02 6.314 3.833.299-.068.501-.262.62-.637.015-.045.022-.083.03-.128-.224.518-.777 1.035-2.04.12z"/></g><path d="M19.128 8.422c-.321.248-.575.06-.643-.105-.052-.12 0-.45.194-.48l-.12-.128c-.045.09-.194.15-.194.435 0 0 .03.42.336.443.187.015.374-.098.493-.18l-.067.015z" fill="#ec932d"/><path d="M18.717 8.31a.28.28 0 0 0 .389-.03c.097-.113.09-.277-.03-.375a.28.28 0 0 0-.389.03c-.097.112-.082.285.03.375z" fill="#000"/><path d="M18.814 8.092c-.037.045-.134.037-.209-.022s-.097-.143-.06-.188.134-.037.209.022.105.143.06.188z" fill="#fff"/></g><defs><clipPath id="A"><path fill="#fff" d="M0 0h133v30H0z"/></clipPath></defs></svg>