<svg xmlns="http://www.w3.org/2000/svg" fill="none" viewBox="0 0 133 30"><g clip-path="url(#a)"><path fill="#1e2f68" d="M24.5 0H5a5 5 0 0 0-5 5v20.3a5 5 0 0 0 5 5h19.5a5 5 0 0 0 5-5V5a5 5 0 0 0-5-5z"/><path fill="#fff" d="M94.4 7.6h-.1c-.1 0 0 0 0-.1l.1.1z"/><path fill="#1e2f68" d="M45.8 10.3c0 3.7-2.5 5.3-7.4 5.3-5 0-7.5-1.6-7.5-5.3s2.5-5.2 7.5-5.2c4.9 0 7.4 1.6 7.4 5.2zm-3.1 0c0-2.2-1.2-2.6-4.3-2.6-3.2 0-4.4.4-4.4 2.6s1.2 2.7 4.4 2.7c3.1 0 4.3-.5 4.3-2.7zm-6-8.3c.8 0 1.4.4 1.4 1.2 0 .7-.6 1-1.3 1-.7 0-1.3-.3-1.3-1 0-.8.6-1.2 1.3-1.2zM40 2c.8 0 1.3.4 1.3 1.2 0 .7-.5 1-1.3 1-.7 0-1.3-.3-1.3-1 0-.8.6-1.2 1.3-1.2zm19.4 13.5h-9.6c-.8 0-1.5-.5-1.5-1.3 0-.5.3-1 .7-1.3l3.7-3 2.8-2H48l2-2.7h9.3c.8 0 1.5.5 1.5 1.3 0 .5-.3 1-.7 1.3l-3.8 3-2.7 2h7.7l-1.9 2.7zM73 9.3c2.5 0 3.9 1 3.9 2.8 0 2.1-1.3 3.4-4.4 3.4H63l2-2.7h7.7c.8 0 1.1-.2 1.1-.7 0-.5-.3-.8-1-.8H67c-2.6 0-3.8-1.1-3.8-2.9 0-2 1.3-3.2 4.4-3.2h8.8l-2 2.7h-7c-.8 0-1.2.2-1.2.7 0 .5.4.7 1.1.7H73zM71 16l-1.2 3.4h-1.1V16H71zm12-.4 1.8-2.7h4.4l-1-1.4-1.9-2.7-4.7 6.8h-3.8l6.6-9.3c.4-.6 1-1.1 2-1.1s1.6.5 2 1.1l6.4 9.3H82.9zm26.5 0h-3.2v-4h-6v4H97V5.2h3.2V9h6V5.2h3.2v10.3zm6.3 0h-3.1V5.2h3.1v10.3zM114.3 2c.7 0 1.3.4 1.3 1.2 0 .7-.6 1-1.3 1-.8 0-1.3-.3-1.3-1 0-.8.5-1.2 1.3-1.2zM128 15l-6.3-5.6v6H119V7c0-1.4.8-2 1.7-2 .4 0 .7.2 1.2.6l6.3 5.6v-6h2.9v8.5c0 1.4-.9 2-1.8 2-.4 0-.8-.2-1.2-.6zM49.6 27.5l-5-3.6v3.9h-2.3v-5.5c0-1 .7-1.3 1.4-1.3.3 0 .6 0 1 .4l5 3.6v-4H52v5.5c0 1-.7 1.3-1.4 1.3-.3 0-.6 0-1-.4zm7 .3L58 26h3.4l-.8-1-1.4-1.7-3.8 4.4h-3l5.2-6a2 2 0 0 1 1.6-.8 2 2 0 0 1 1.6.8l5 6h-9.4zm20.5 0h-3.8L71 25.9l-1.5-1v2.9H67V21h2.5v2.8l1.4-1.1 2.4-1.7h3.6l-3 2-2.2 1.2 2.1 1.3 3.4 2.2zm9.6-1.7-1.6 1.7h-7.2V21h2.5v5h6.3zm3.4 1.7h-2.5V21H90v6.7zM88.8 19c.6 0 1 .3 1 .8 0 .4-.4.7-1 .7-.5 0-1-.3-1-.7 0-.5.5-.8 1-.8zm14.5 2.1-4.8 4.5v2.2h-2.6v-2.2L91 21h3.3l2 1.9 1 1 1-1 2-1.9h3zm1.4 6.7 1.5-1.7h3.5l-.8-1-1.5-1.7-3.8 4.4h-3l5.2-6a2 2 0 0 1 1.6-.8 2 2 0 0 1 1.6.8l5.1 6h-9.4zm17.8-6.7-1.6 1.8h-3v4.9h-2.4v-5h-3.8l1.6-1.7h9.2zM40 24h-9v1.4h9.2V24zm91 0h-9.3v1.4h9.3V24z"/><path fill="#fdd31f" d="M21 9.8c-.2.7-.5 1-.5 1 .2-.3-.1-.8-.1-.8-1 1.2-1.8.8-1.8.8.3.3 1.2.3 1.2.3-.5 0-2.1.8-2.1.8a8 8 0 0 1 6.4 2.6c2.5 2.4 2.1 4.1 2.1 4.1 1-.6 3.3-2.7 2.3-5.7-1-2.5-3.7-3.9-3.7-3.9s.4.9-2 .9c0 0 1.3.4 2 1.4 0 0-.9-1-3.2-1.4H21zm-2.3-1.2.5-.2-.4-.4-.2-.3-.2.4s0 .5.3.5z"/><path fill="#fff" d="M18.8 9.1a1 1 0 0 1-1-1l.4-.7C16.8 6.2 15.8 6 15.8 6c1.3 1 1.1 2.4 2 3 .8.7 1.4.3 1.6 0a1 1 0 0 1-.6.2zm-3 7.6c.4-.5 1.2-.4 1.2-.4-2.4 9.1 1 11.3 1 11.3L14.6 29c-4.5-3.7-2.8-10.6-2.8-10.6-1.4 1.9-1.3 6-1.3 6-2.7-4 0-9.1 0-9.1-2 2.1-2.4 5.6-2.4 5.6L6.8 20C6 13.2 10.6 9.1 10.6 9.1c-3 2.2-4.5 5.1-4.8 7.8-.3-.5-1-.9-1.3-1.4-.7-1.5-1.5-2.3-2.2-3.8.5-.8 1.6-3.4 4.2-5 0 0-3 1-4.8 4.5-.5-1.3-.3-3.7-1-5C3.8 3.5 6.4 3 6.4 3c-1-.4-2-.3-2-.3a21 21 0 0 1 17.2.6C25.5 5.4 25.2 8 24 9a1.5 1.5 0 0 0-1-1.6s.7.8.5 1.4c-.1.4-.3.6-.6.6-3.2.2-2.8-2-6.3-3.8-3.4-1.7-5.2-.3-5.2-.3 2.2 0 3 1 3 1-1-.3-1.5.3-1.5.3 3.1.2 4.4 3.4 4.4 3.4-1.3-.2-2.4 1.7-2.4 1.7 2-1.9 3-.6 3-.6-1.5-.1-1.2 1.8-1.2 1.8s-1.9 1.1-1 3.9z"/><path fill="#fdd31f" d="M24.1 15.7s-2-3.4-6.4-3.4a.6.6 0 0 0-.2 0s.7.4-.5 1.1c0 0-.9.5-.9 2.3h.3c1-.3 4.2-.9 7.7 0z"/><path fill="#ec932d" d="M20.7 11.2c.3-.3.5-1 .5-1a6.3 6.3 0 0 1 3.6 1.1l-.4-.3a5 5 0 0 0-2.8-1l-.6-.2c-.2.7-.5 1-.5 1 .2-.3-.1-.8-.1-.8-1 1.2-1.8.8-1.8.8.3.3 1.2.3 1.2.3-.5 0-2.1.8-2.1.8a8 8 0 0 1 6.4 2.6c2.5 2.4 2.1 4.1 2.1 4.1 1.4-4.4-5.5-7.4-5.5-7.4zm2.8-1C24.8 10 25 9.5 25 9s.3.9-2.2.9l.8.3zM17 13.4a2 2 0 0 0-.4 1c0 .7.1.8 1.3.7 1.1 0 4.6-.4 6.2.6 0 0-2-3.4-6.4-3.4a.6.6 0 0 0-.2 0s.7.3-.5 1.1z"/><path fill="#fcecac" d="M28.5 13c-1-2.6-3.7-4-3.7-4 .8.7 3.5 2.9 3.4 5.4-.1 2-.8 3-2 4.2 1.1-.7 3.3-2.8 2.3-5.7z"/><path fill="#b3b3b3" d="M8 7s-2.2.5-3.4 3.5c0 0 .7-1.3 2.6-1.9 0 0-2.2 1-2.9 5.5l.6 1s-.3-6 4.9-7.4c0 0-2.2-.1-3.4.8 0 0 .5-.7 1.7-1.4zm6.8 6.3s-2.4 3.2-2.4 7.3c0 0 .3-1 .9-2.2 0 0-.1 4 1.5 7.1 0 0-1-5.4.4-9.3 0 0-.8.9-1.4 3.6 0 0-.2-4 1-6.5zM1.8 8s1.4-2.8 8-3.9c0 0-4.2-.2-8.3 3l.3.9zM13 6.5s.6-.6 1.5-.4c0 0-.8-1-3-1 0 0 1 .3 1.7.8 0 0-1 .1-2 1.5 0 0 3.5-1.4 6.2 2.5 0 0-1.3-3.2-4.4-3.4zm8.6 2.2c-1.8-1.3-4.6-5-8.7-4a7 7 0 0 1 3.8.8c3.4 1.7 3 4 6.3 3.8.3 0 .5-.2.6-.6v-.1c-.2.5-.7 1-2 .1z"/><path fill="#ec932d" d="M19.1 8.4c-.3.3-.5 0-.6 0 0-.2 0-.5.2-.6h-.1s-.2 0-.2.3c0 0 0 .5.3.5l.5-.2z"/><path fill="#000" d="M18.7 8.3a.3.3 0 0 0 .4 0c.1-.1.1-.3 0-.4a.3.3 0 0 0-.4 0c-.1.1-.1.3 0 .4z"/><path fill="#fff" d="M18.8 8c0 .1-.1.1-.2 0 0-.1 0 0 .2 0s0 .1 0 .2z"/></g><defs><clipPath id="a"><path fill="#fff" d="M0 0h133v30H0z"/></clipPath></defs></svg>