<svg xmlns="http://www.w3.org/2000/svg" fill="none" viewBox="0 0 36 37"><path fill="#fff" d="M34.5 18.5a16.5 16.5 0 1 1-33 0 16.5 16.5 0 0 1 33 0z"/><path fill="#1e2f68" d="M17.93 19.36c-3.03 0-5.5 2.43-5.5 5.43s2.46 5.44 5.5 5.44 5.5-2.44 5.5-5.44-2.47-5.43-5.5-5.43zm2.14 6.29.52 2.84-2.6-1.32-2.56 1.36.46-2.85-2.1-2 2.88-.43 1.26-2.6 1.32 2.57 2.9.4-2.08 2.02zM18 .5a18 18 0 1 0 0 36 18 18 0 0 0 0-36zm-5.77 10.08a5.83 5.83 0 0 1 11.67 0v1.08a5.83 5.83 0 0 1-11.67 0v-1.08zm16.96 19.09c-12.67 2.78-22.45 0-22.45 0V24.5c0-3.84 2.78-7.1 6.53-8.07 1.12 1.28 2.81 2.09 4.7 2.09s3.56-.82 4.69-2.09c3.75.97 6.53 4.23 6.53 8.07v5.16z"/></svg>