<svg xmlns="http://www.w3.org/2000/svg" fill="none" viewBox="0 0 26 27"><path fill="#fff" d="M6.19.26A6.2 6.2 0 0 0 0 6.46v13.61a6.2 6.2 0 0 0 6.19 6.2h13.62a6.2 6.2 0 0 0 6.19-6.2V6.45A6.2 6.2 0 0 0 19.81.26H6.19Zm2.48 4.98c.39.02.75.24.96.57l1.12 1.75c.45.71.49 1.62.08 2.36l-.9 1.29c-.25.35-.3.8-.13 1.19a7.68 7.68 0 0 0 4.07 4.07c.4.17.84.12 1.19-.13l1.29-.9c.74-.4 1.65-.37 2.35.08l1.76 1.12c.33.21.55.57.57.96.1 2.2-1.62 3.1-2.11 3.1-.35 0-4.49.47-9.15-4.2-4.67-4.66-4.2-8.8-4.2-9.15 0-.5.9-2.2 3.1-2.1Z"/></svg>