<svg xmlns="http://www.w3.org/2000/svg" width="18" height="18" fill="#fff" xmlns:v="https://vecta.io/nano"><path d="M7.757 10.242l2.175 2.175c.195.195.494.239.737.109l2.607-1.399a.62.62 0 0 1 .614.013l3.803 2.257c.271.161.381.498.254.787l-1.152 2.695c-.049.126-.123.242-.225.33-2.535 2.197-7.578-.48-11.438-4.34S-1.406 3.965.791 1.43c.089-.102.204-.176.33-.225A103.59 103.59 0 0 0 3.816.053c.289-.127.626-.018.787.254L6.86 4.11a.62.62 0 0 1 .013.614L5.474 7.33c-.13.243-.086.542.109.737l2.175 2.175zM18 9.9h-1.8a8.11 8.11 0 0 0-8.1-8.1V0C13.558 0 18 4.441 18 9.9zm-3.5 0h-1.8c0-2.536-2.063-4.6-4.6-4.6V3.5a6.41 6.41 0 0 1 6.4 6.4z"/></svg>