<svg xmlns="http://www.w3.org/2000/svg" width="30" height="29" fill="none"><path fill-rule="evenodd" d="M11.738 13.327a.67.67 0 0 1-.204-.031l-8.563-2.698a.68.68 0 0 1-.027-1.287l12.813-4.631L28.571.048a.68.68 0 0 1 .118-.035h.001l.041-.007.014-.002.014-.001.014-.001.014-.001h.014.014.014l.014.001h.014.001l.013.001h.001l.013.001h.002a.68.68 0 0 1 .297.103l.052.037.001.001.007.005.004.004.001.001c.077.063.137.14.18.226l.001.002.005.011v.002l.005.011v.001l.005.012.005.013.005.013.005.014.004.013.008.027.003.014.004.014.01.056v.001l.002.012.001.011v.003.001l.001.013v.001l.001.013v.001.013.001.013.001.013.014l-.001.014v.014l-.001.014-.002.014-.002.014-.002.014-.002.014-.003.014v.001l-.002.012v.002l-.002.012V.84a.63.63 0 0 1-.024.079l-4.633 12.818-4.633 12.818a.68.68 0 0 1-.639.449c-.306-.006-.561-.197-.649-.476l-2.698-8.563a.68.68 0 0 1-.023-.31l.807-5.144-5.145.806a.71.71 0 0 1-.105.008zM3.355 26.825c.174 0 .348-.066.48-.199l2.672-2.672a.68.68 0 0 0 0-.961.68.68 0 0 0-.961 0l-2.672 2.671a.68.68 0 0 0 .481 1.16zm5.569-5.569a.68.68 0 0 0 .481-.199l2.671-2.671a.68.68 0 0 0 0-.961.68.68 0 0 0-.961 0l-2.671 2.671a.68.68 0 0 0 0 .961c.133.133.307.199.481.199zM8.427 29c.174 0 .348-.066.48-.199l5.343-5.343a.68.68 0 0 0 0-.961.68.68 0 0 0-.961 0L7.947 27.84A.68.68 0 0 0 8.427 29zM1.18 21.752c.174 0 .348-.066.481-.199l5.342-5.343a.68.68 0 0 0 0-.961.68.68 0 0 0-.961 0L.699 20.592a.68.68 0 0 0 0 .961c.133.133.307.199.481.199z" fill="#1e2f68"/></svg>