<svg xmlns="http://www.w3.org/2000/svg" fill="none" viewBox="0 0 30 29"><path fill="#1e2f68" fill-rule="evenodd" d="M11.74 13.33a.67.67 0 0 1-.2-.03l-8.57-2.7a.68.68 0 0 1-.03-1.29l12.82-4.63L28.57.05A.68.68 0 0 1 28.7 0h.19a.68.68 0 0 1 .3.1l.06.03v.01c.09.07.15.15.19.23V.4l.01.02v.01l.01.01v.02l.01.01v.01l.01.03v.03l.02.05v.23l-.01.01v.02a.63.63 0 0 1-.03.08l-4.63 12.82-4.63 12.81a.68.68 0 0 1-.64.45.7.7 0 0 1-.65-.47l-2.7-8.56a.68.68 0 0 1-.02-.31l.8-5.15-5.14.8a.71.71 0 0 1-.1.02zm-8.38 13.5a.7.7 0 0 0 .48-.2l2.67-2.68a.68.68 0 0 0 0-.96.68.68 0 0 0-.96 0l-2.68 2.67a.68.68 0 0 0 .48 1.16zm5.56-5.57a.68.68 0 0 0 .48-.2l2.68-2.67a.68.68 0 0 0 0-.97.68.68 0 0 0-.97 0L8.44 20.1a.68.68 0 0 0 0 .96c.14.13.31.2.48.2zM8.42 29c.18 0 .35-.07.49-.2l5.34-5.34a.68.68 0 0 0 0-.96.68.68 0 0 0-.96 0l-5.34 5.34A.68.68 0 0 0 8.43 29zm-7.24-7.25c.17 0 .35-.06.48-.2L7 16.21a.68.68 0 0 0 0-.96.68.68 0 0 0-.96 0L.7 20.59a.68.68 0 0 0 0 .96c.13.14.3.2.48.2z"/></svg>