<svg xmlns="http://www.w3.org/2000/svg" fill="none" viewBox="0 0 86 126"><g clip-path="url(#a)"><path fill="url(#b)" d="m56 81-2-1V11l2 1v69Z"/><path fill="url(#c)" d="m56 12-2-1 2-2 3 2-3 1Z"/><path fill="url(#d)" d="M59 11v69l-3 1V12l3-1Z"/><path fill="url(#e)" d="M26 126 1 111l59-34 25 15-59 34Z" opacity=".1"/><path fill="url(#f)" d="M28 113 5 100v-4l22 13 1 4Z"/><path fill="url(#g)" d="M27 109 5 96l54-31 22 13-54 31Z"/><path fill="url(#h)" d="M81 78v4l-53 31-1-4 54-31Z"/><path fill="#D3993C" d="m67 86 10-6V69l-10 6v11Z"/><path fill="#FFD097" d="m67 75 10-6-17-9-10 6 17 9Z"/><path fill="#AA7322" d="M50 66v10l17 10V75l-17-9Z"/><path fill="#fff" d="m71 73 2-1-17-10-2 2 17 9Z" opacity=".7"/><path fill="#fff" d="m73 75-2 1v-3l2-1v3Z" opacity=".5"/><g fill="#fff"><path d="m51 70 2 1v-3l-2-1v3Z" opacity=".5"/><path d="m51 68 2 1-2-1Zm0 1 2 1v-1h-2Zm0 0 2 1-2-1Z"/></g><path fill="#D3993C" d="m67 75 10-6V58l-10 6v11Z"/><path fill="#FFD097" d="m67 64 10-6-17-9-10 6 17 9Z"/><path fill="#AA7322" d="M50 55v10l17 10V64l-17-9Z"/><path fill="#fff" d="m71 62 2-1-17-10-2 2 17 9Z" opacity=".7"/><path fill="#fff" d="m73 64-2 1v-3l2-1v3Z" opacity=".5"/><g fill="#fff"><path d="m51 59 2 1v-3l-2-1v3Z" opacity=".5"/><path d="m51 57 2 1-2-1Zm0 1 2 1v-1h-2Zm0 0 2 1-2-1Z"/></g><path fill="#D3993C" d="m56 92 10-6V76l-10 6v10Z"/><path fill="#FFD097" d="m56 82 10-6-17-10-10 6 17 10Z"/><path fill="#AA7322" d="M39 72v11l17 9V82L39 72Z"/><path fill="#fff" d="m60 79 2-1-17-9-2 1 17 9Z" opacity=".7"/><path fill="#fff" d="m62 81-2 1v-3l2-1v3Z" opacity=".5"/><g fill="#fff"><path d="m40 76 2 2v-3l-2-2v3Z" opacity=".5"/><path d="M40 75h2l-2-1v1Zm0 0 2 1-2-1Zm0 1 2 1v-1h-2Z"/></g><path fill="#D3993C" d="m44 98 10-6V82l-10 6v10Z"/><path fill="#FFD097" d="m44 88 10-6-16-9-10 6 16 9Z"/><path fill="#AA7322" d="M28 79v10l16 9V88l-16-9Z"/><path fill="#fff" d="m48 86 2-2-16-9-2 1 16 10Z" opacity=".7"/><path fill="#fff" d="m50 87-2 2v-3l2-2v3Z" opacity=".5"/><g fill="#fff"><path d="m29 83 2 1v-3l-2-1v3Z" opacity=".5"/><path d="m29 81 1 1v-1h-1Zm0 0 1 1-1-1Zm0 1 1 1-1-1Z"/></g><path fill="#D3993C" d="m56 81 10-6V65l-10 6v10Z"/><path fill="#FFD097" d="m56 71 10-6-17-9-10 6 17 9Z"/><path fill="#AA7322" d="M39 62v10l17 9V71l-17-9Z"/><path fill="#fff" d="m60 69 2-2-17-9-2 1 17 10Z" opacity=".7"/><path fill="#fff" d="m62 70-2 2v-3l2-2v3Z" opacity=".5"/><g fill="#fff"><path d="m40 66 2 1v-3l-2-1v3Z" opacity=".5"/><path d="m40 64 2 1v-1h-2Zm0 0 2 1-2-1Zm0 1 2 1-2-1Z"/></g><path fill="#D3993C" d="m44 88 10-6V71l-10 6v11Z"/><path fill="#FFD097" d="m44 77 10-6-16-9-10 6 16 9Z"/><path fill="#AA7322" d="M28 68v10l16 10V77l-16-9Z"/><path fill="#fff" d="m48 75 2-1-16-10-2 2 16 9Z" opacity=".7"/><path fill="#fff" d="m50 77-2 1v-3l2-1v3Z" opacity=".5"/><g fill="#fff"><path d="m29 72 2 1v-3l-2-1v3Z" opacity=".5"/><path d="m29 70 1 1-1-1Zm0 1 1 1v-1h-1Zm0 0 1 1-1-1Z"/></g><path fill="#D3993C" d="m34 105 10-6V88l-10 6v11Z"/><path fill="#FFD097" d="m34 94 10-6-17-9-10 6 17 9Z"/><path fill="#AA7322" d="M17 85v10l17 10V94l-17-9Z"/><path fill="#fff" d="m38 92 2-1-17-10-2 2 17 9Z" opacity=".7"/><path fill="#fff" d="m40 94-2 1v-3l2-1v3Z" opacity=".5"/><g fill="#fff"><path d="m18 89 2 1v-3l-2-1v3Z" opacity=".5"/><path d="m18 87 1 1h1-1l-1-1Zm0 1 1 1h1l-1-1h-1Z"/><path d="m18 88 1 1h1-1l-1-1Z"/></g><path fill="url(#i)" d="M28 85 5 72v-3l22 13 1 3Z"/><path fill="url(#j)" d="M27 82 5 69l54-31 22 13-54 31Z"/><path fill="url(#k)" d="M81 51v4L28 85l-1-3 54-31Z"/><path fill="url(#l)" d="m15 71 57-18 3 1-45 27-16-9 1-1Z" opacity=".3"/><path fill="#D3993C" d="m67 58 10-6V41l-10 6v11Z"/><path fill="#FFD097" d="m67 47 10-6-16-9-10 6 16 9Z"/><path fill="#AA7322" d="M51 38v10l16 10V47l-16-9Z"/><path fill="#fff" d="m71 45 2-2-16-9-2 1 16 10Z" opacity=".7"/><path fill="#fff" d="m73 47-2 1v-3l2-2v4Z" opacity=".5"/><g fill="#fff"><path d="m51 42 2 1v-3l-2-1v3Z" opacity=".5"/><path d="m51 40 2 1-2-1Zm0 1h2l-2-1v1Zm0 0 2 1-2-1Z"/></g><path fill="#D3993C" d="m67 47 10-6V30l-10 6v11Z"/><path fill="#FFD097" d="m67 36 10-6-16-9-10 6 16 9Z"/><path fill="#AA7322" d="M51 27v10l16 10V36l-16-9Z"/><path fill="#fff" d="m71 34 2-1-16-10-2 2 16 9Z" opacity=".7"/><path fill="#fff" d="m73 36-2 1v-3l2-1v3Z" opacity=".5"/><g fill="#fff"><path d="m51 31 2 1v-3l-2-1v3Z" opacity=".5"/><path d="m51 29 2 1-2-1Zm0 1 2 1-2-1Zm0 1h2l-2-1v1Z"/></g><path fill="#D3993C" d="m56 64 10-6V47l-10 6v11Z"/><path fill="#FFD097" d="m56 53 10-6-16-9-10 6 16 9Z"/><path fill="#AA7322" d="M40 44v11l16 9V53l-16-9Z"/><path fill="#fff" d="m60 51 2-1-16-9-2 1 16 9Z" opacity=".7"/><path fill="#fff" d="m62 53-2 1v-3l2-1v3Z" opacity=".5"/><g fill="#fff"><path d="m40 48 2 1v-3l-2-1v3Z" opacity=".5"/><path d="m41 46 1 1-1-1h-1 1Zm0 1 1 1-1-1h-1 1Z"/><path d="M41 48h1l-1-1h-1l1 1Z"/></g><path fill="#EFAE52" d="m38 73-10-6V56l10 6v11Z"/><path fill="#FFD097" d="m38 62-10-6 10-6 10 6-10 6Z"/><path fill="#D3993C" d="M48 56v11l-10 6V62l10-6Z"/><path fill="#fff" d="m34 60-2-1 10-6 2 1-10 6Z" opacity=".7"/><path fill="#fff" d="m32 62 2 1v-3l-2-1v3Z" opacity=".5"/><g fill="#fff"><path d="m48 61-2 1v-3l2-2v4Z" opacity=".5"/><path d="m48 59-2 1v-1h2c0-1 0 0 0 0Zm0 0-2 1 2-1Zm0 1-2 1 2-1Z"/></g><path fill="#AA7322" d="m28 79-10-6V62l10 6v11Z"/><path fill="#FFD097" d="m28 68-10-6 10-6 10 6-10 6Z"/><path fill="#D3993C" d="M38 62v11l-10 6V68l10-6Z"/><path fill="#fff" d="m24 66-2-1 10-6 2 1-10 6Z" opacity=".7"/><path fill="#fff" d="m22 68 2 1v-3l-2-1v3Z" opacity=".5"/><g fill="#fff"><path d="m37 67-2 1v-3l2-2v4Z" opacity=".5"/><path d="m37 65-1 1v-1h1c0-1 0 0 0 0Zm0 0-1 1 1-1Zm0 1-1 1 1-1Z"/></g><path fill="#AA7322" d="m34 65-10-6V48l10 6v11Z"/><path fill="#FFD097" d="m34 54-10-6 10-6 10 6-10 6Z"/><path fill="#D3993C" d="M44 48v11l-10 6V54l10-6Z"/><path fill="#fff" d="m30 52-2-1 10-6 2 1-10 6Z" opacity=".7"/><path fill="#fff" d="m28 54 2 1v-3l-2-1v3Z" opacity=".5"/><g fill="#fff"><path d="m44 52-2 2v-3l2-2v3Z" opacity=".5"/><path d="M44 51h-2l2-1v1Zm0 0-2 1 2-1Zm0 1-2 1v-1h2Z"/></g><path fill="url(#m)" d="m5 111-2-2V40l2 1v70Z"/><path fill="url(#n)" d="m5 41-2-1 2-2 3 2-3 1Z"/><path fill="url(#o)" d="M8 40v69l-3 2V41l3-1Z"/><path fill="url(#p)" d="M28 58 5 45v-4l22 13 1 4Z"/><path fill="url(#q)" d="M27 54 5 41l54-31 22 14-54 30Z"/><path fill="url(#r)" d="M81 24v3L28 58l-1-4 54-30Z"/><path fill="url(#s)" d="m30 125-3-2V54l3 1v70Z"/><path fill="url(#t)" d="m30 55-3-1 3-1 2 1-2 1Z"/><path fill="url(#u)" d="M32 54v69l-2 2V55l2-1Z"/><path fill="url(#v)" d="m81 96-3-2V25l3 1v70Z"/><path fill="url(#w)" d="m81 26-3-1 3-2 2 2-2 1Z"/><path fill="url(#x)" d="M83 25v69l-2 2V26l2-1Z"/><path fill="url(#y)" d="m15 43 57-18 3 1-45 27-16-9 1-1Z" opacity=".3"/><path fill="#EFAE52" d="m61 31-10-6V14l10 6v11Z"/><path fill="#FFD097" d="m61 20-10-6 11-6 10 6-11 6Z"/><path fill="#D3993C" d="M72 14v11l-11 6V20l11-6Z"/><path fill="#fff" d="m57 18-2-1 11-6 2 1-11 6Z" opacity=".7"/><path fill="#fff" d="m55 20 2 1v-3l-2-1v3Z" opacity=".5"/><g fill="#fff"><path d="m71 18-2 2v-3l2-2v3Z" opacity=".5"/><path d="m71 16-2 1 2-1Zm0 1-2 1 2-1Zm0 1-2 1v-1h2Z"/></g><path fill="#AA7322" d="m51 37-10-6V20l10 6v11Z"/><path fill="#FFD097" d="m51 26-10-6 10-6 10 6-10 6Z"/><path fill="#D3993C" d="M61 20v11l-10 6V26l10-6Z"/><path fill="#fff" d="m47 24-2-1 10-6 2 1-10 6Z" opacity=".7"/><path fill="#fff" d="m45 26 2 1v-3l-2-1v3Z" opacity=".5"/><g fill="#fff"><path d="m61 24-2 2v-3l2-2v3Z" opacity=".5"/><path d="m60 22-1 1 1-1h1-1Zm0 1-1 1 1-1h1-1Zm0 1-1 1v-1h2-1Z"/></g><path fill="#AA7322" d="m57 22-10-6V6l10 6v10Z"/><path fill="#FFD097" d="M57 12 47 6l11-6 10 6-11 6Z"/><path fill="#D3993C" d="M68 6v11l-11 5V12l11-6Z"/><path fill="#fff" d="m53 10-2-2 11-6 2 2-11 6Z" opacity=".7"/><path fill="#fff" d="m51 11 2 2v-3l-2-2v3Z" opacity=".5"/><g fill="#fff"><path d="m67 10-2 1V8l2-1v3Z" opacity=".5"/><path d="m67 8-2 1 2-1Zm0 1-2 1 2-1Zm0 1h-2l2-1v1Z"/></g><path fill="#D3993C" d="m40 45 10-6V28l-10 6v11Z"/><path fill="#FFD097" d="m40 34 10-6-16-9-11 6 17 9Z"/><path fill="#AA7322" d="M23 25v11l17 9V34l-17-9Z"/><path fill="#fff" d="m44 32 2-1-16-10-3 2 17 9Z" opacity=".7"/><path fill="#fff" d="m46 34-2 1v-3l2-1v3Z" opacity=".5"/><g fill="#fff"><path d="m24 29 2 1v-3l-2-1v3Z" opacity=".5"/><path d="m24 27 2 1-2-1Zm0 1 2 1-2-1Zm0 1h2l-2-1v1Z"/></g><path fill="#D3993C" d="m40 34 10-6V18l-10 6v10Z"/><path fill="#FFD097" d="m40 24 10-6L34 8l-11 6 17 10Z"/><path fill="#AA7322" d="M23 14v11l17 9V24L23 14Z"/><path fill="#fff" d="m44 21 2-1-16-9-3 1 17 9Z" opacity=".7"/><path fill="#fff" d="m46 23-2 1v-3l2-1v3Z" opacity=".5"/><g fill="#fff"><path d="m24 18 2 2v-3l-2-2v3Z" opacity=".5"/><path d="M24 17h2l-2-1v1Zm0 0 2 1-2-1Zm0 1 2 1v-1h-2Z"/></g><path fill="#D3993C" d="m29 51 9-5v-9l-9 5v9Z"/><path fill="#FFD097" d="m29 42 9-5-14-8-9 5 14 8Z"/><path fill="#AA7322" d="M15 34v9l14 8v-9l-14-8Z"/><path fill="#fff" d="m33 40 2-1-14-8-2 1 14 8Z" opacity=".7"/><path fill="#fff" d="m35 42-2 1v-3l2-1v3Z" opacity=".5"/><g fill="#fff"><path d="m16 38 2 1v-3l-2-1v3Z" opacity=".5"/><path d="m16 36 1 1-1-1Zm0 1 1 1v-1h-1Zm0 0 1 1-1-1Z"/></g></g><defs><linearGradient id="b" x1="54.2" x2="56.4" y1="46" y2="46" gradientUnits="userSpaceOnUse"><stop stop-color="#636363"/><stop offset="1" stop-color="#727272"/></linearGradient><linearGradient id="c" x1="54.2" x2="58.6" y1="10.6" y2="10.6" gradientUnits="userSpaceOnUse"><stop stop-color="#F9F9F9"/><stop offset="1" stop-color="#F6F6F6"/></linearGradient><linearGradient id="d" x1="57.5" x2="57.5" y1="75.7" y2="23.5" gradientUnits="userSpaceOnUse"><stop stop-color="#B0B0B0"/><stop offset="1" stop-color="#DCDCDC"/></linearGradient><linearGradient id="e" x1=".9" x2="85.1" y1="101.5" y2="101.5" gradientUnits="userSpaceOnUse"><stop stop-color="#303030"/><stop offset="1" stop-color="#231A1A"/></linearGradient><linearGradient id="f" x1="5.4" x2="27.5" y1="104.4" y2="104.4" gradientUnits="userSpaceOnUse"><stop stop-color="#B0B0B0"/><stop offset="1" stop-color="#DCDCDC"/></linearGradient><linearGradient id="g" x1="5.4" x2="80.6" y1="87.3" y2="87.3" gradientUnits="userSpaceOnUse"><stop stop-color="#F9F9F9"/><stop offset="1" stop-color="#F6F6F6"/></linearGradient><linearGradient id="h" x1="27.4" x2="80.6" y1="95.6" y2="95.6" gradientUnits="userSpaceOnUse"><stop stop-color="#A5A5A5"/><stop offset="1" stop-color="#7C7C7C"/></linearGradient><linearGradient id="i" x1="5.4" x2="27.5" y1="76.9" y2="76.9" gradientUnits="userSpaceOnUse"><stop stop-color="#B0B0B0"/><stop offset="1" stop-color="#DCDCDC"/></linearGradient><linearGradient id="j" x1="5.4" x2="80.6" y1="59.8" y2="59.8" gradientUnits="userSpaceOnUse"><stop stop-color="#F9F9F9"/><stop offset="1" stop-color="#F6F6F6"/></linearGradient><linearGradient id="k" x1=".9" x2="1" y1="68.1" y2="68.1" gradientUnits="userSpaceOnUse"><stop stop-color="#A5A5A5"/><stop offset="1" stop-color="#7C7C7C"/></linearGradient><linearGradient id="l" x1="14.5" x2="75" y1="66.8" y2="66.8" gradientUnits="userSpaceOnUse"><stop stop-color="#303030"/><stop offset="1" stop-color="#231A1A"/></linearGradient><linearGradient id="m" x1="3.3" x2="5.4" y1="75.2" y2="75.2" gradientUnits="userSpaceOnUse"><stop stop-color="#B0B0B0"/><stop offset="1" stop-color="#DCDCDC"/></linearGradient><linearGradient id="n" x1="3.3" x2="7.6" y1="39.8" y2="39.8" gradientUnits="userSpaceOnUse"><stop stop-color="#F9F9F9"/><stop offset="1" stop-color="#F6F6F6"/></linearGradient><linearGradient id="o" x1="6.5" x2="6.5" y1="104.9" y2="52.7" gradientUnits="userSpaceOnUse"><stop stop-color="#B0B0B0"/><stop offset="1" stop-color="#DCDCDC"/></linearGradient><linearGradient id="p" x1="5.4" x2="27.5" y1="49.5" y2="49.5" gradientUnits="userSpaceOnUse"><stop stop-color="#B0B0B0"/><stop offset="1" stop-color="#DCDCDC"/></linearGradient><linearGradient id="q" x1="5.4" x2="80.6" y1="32.4" y2="32.4" gradientUnits="userSpaceOnUse"><stop stop-color="#F9F9F9"/><stop offset="1" stop-color="#F6F6F6"/></linearGradient><linearGradient id="r" x1=".9" x2="1" y1="40.7" y2="40.7" gradientUnits="userSpaceOnUse"><stop stop-color="#A5A5A5"/><stop offset="1" stop-color="#7C7C7C"/></linearGradient><linearGradient id="s" x1="27.4" x2="29.6" y1="89.3" y2="89.3" gradientUnits="userSpaceOnUse"><stop stop-color="#B0B0B0"/><stop offset="1" stop-color="#DCDCDC"/></linearGradient><linearGradient id="t" x1="27.4" x2="31.8" y1="54" y2="54" gradientUnits="userSpaceOnUse"><stop stop-color="#F9F9F9"/><stop offset="1" stop-color="#F6F6F6"/></linearGradient><linearGradient id="u" x1="26.7" x2="33.2" y1="52.8" y2="112.5" gradientUnits="userSpaceOnUse"><stop stop-color="#A5A5A5"/><stop offset="1" stop-color="#7C7C7C"/></linearGradient><linearGradient id="v" x1="78.4" x2="80.5" y1="60.2" y2="60.2" gradientUnits="userSpaceOnUse"><stop stop-color="#B0B0B0"/><stop offset="1" stop-color="#DCDCDC"/></linearGradient><linearGradient id="w" x1="78.4" x2="82.7" y1="24.8" y2="24.8" gradientUnits="userSpaceOnUse"><stop stop-color="#F9F9F9"/><stop offset="1" stop-color="#F6F6F6"/></linearGradient><linearGradient id="x" x1="81.6" x2="81.6" y1="89.8" y2="37.7" gradientUnits="userSpaceOnUse"><stop stop-color="#A5A5A5"/><stop offset="1" stop-color="#7C7C7C"/></linearGradient><linearGradient id="y" x1="14.5" x2="75" y1="38.7" y2="38.7" gradientUnits="userSpaceOnUse"><stop stop-color="#303030"/><stop offset="1" stop-color="#231A1A"/></linearGradient><clipPath id="a"><path fill="#fff" d="M0 0h84v126H0z" transform="translate(1)"/></clipPath></defs></svg>