<svg xmlns="http://www.w3.org/2000/svg" fill="none" viewBox="0 0 25 24"><path fill="#000" d="M12.99 24a12 12 0 1 0 0-24 12 12 0 0 0 0 24Z"/><path fill="#fff" d="M19.62 7.89c-.42.18-.88.3-1.33.37.21-.03.53-.42.65-.58.19-.24.35-.5.44-.8 0-.02.02-.05 0-.07-.04 0-.05 0-.07.02a6.8 6.8 0 0 1-1.56.6c-.05 0-.08 0-.11-.04a3 3 0 0 0-.9-.61 2.63 2.63 0 0 0-2.28.13 2.88 2.88 0 0 0-1.43 1.8A3 3 0 0 0 13 9.86c.01.06 0 .07-.05.06a8.38 8.38 0 0 1-5.4-2.75c-.06-.07-.1-.07-.15.02-.64.95-.33 2.48.47 3.22l.33.3c-.05 0-.57-.05-1.04-.3-.07-.04-.1-.02-.1.06a2.74 2.74 0 0 0 2.08 2.61c-.2.05-.43.08-1.02.03-.08 0-.1.03-.08.1.45 1.23 1.43 1.59 2.15 1.8l.3.04-.03.02c-.24.37-1.07.65-1.46.78a5.1 5.1 0 0 1-2.22.28c-.12-.02-.15 0-.18 0-.03.03 0 .05.03.08l.46.27c.47.26.98.45 1.5.6 2.66.73 5.67.2 7.67-1.8 1.57-1.56 2.12-3.72 2.12-5.88 0-.1.1-.14.17-.18.4-.3.74-.68 1.05-1.08.06-.09.06-.18.06-.21v-.01c.01-.06.01-.04-.04-.02Z"/></svg>