<svg xmlns="http://www.w3.org/2000/svg" width="19" height="19" fill="none"><path d="M16.349 3.017A9 9 0 0 0 9.94.361C4.947.361.883 4.424.881 9.418a9.04 9.04 0 0 0 1.209 4.528L.805 18.639l4.803-1.259c1.323.721 2.813 1.102 4.329 1.102h.004c4.993 0 9.058-4.063 9.06-9.057a9 9 0 0 0-2.651-6.407zM9.94 16.952h-.003a7.52 7.52 0 0 1-3.833-1.049l-.275-.163-2.85.747.761-2.778-.179-.285A7.51 7.51 0 0 1 2.41 9.418c.002-4.15 3.38-7.527 7.533-7.527a7.48 7.48 0 0 1 5.324 2.208 7.48 7.48 0 0 1 2.204 5.326 7.54 7.54 0 0 1-7.53 7.528zm4.13-5.638c-.226-.113-1.339-.661-1.547-.736s-.358-.113-.509.113-.585.736-.717.887-.264.17-.49.057-.956-.352-1.82-1.123c-.673-.6-1.127-1.341-1.259-1.568s-.014-.349.099-.462c.102-.101.226-.264.34-.396s.151-.227.226-.378.038-.283-.019-.396-.509-1.227-.698-1.68c-.184-.441-.37-.382-.509-.389-.132-.007-.283-.008-.434-.008s-.396.057-.604.283-.792.774-.792 1.888.811 2.19.924 2.341 1.596 2.437 3.867 3.417c.54.233.962.372 1.29.477.542.172 1.036.148 1.426.09.435-.065 1.339-.547 1.528-1.076s.189-.982.132-1.076-.207-.151-.434-.264z" fill="#000"/></svg>