<svg xmlns="http://www.w3.org/2000/svg" width="29" height="28" fill="none" xmlns:v="https://vecta.io/nano"><path d="M20.981 8.818c-.202.727-.471 1.035-.471 1.035.217-.397-.157-.885-.157-.885-.934 1.193-1.711.833-1.711.833.247.3 1.151.33 1.151.33-.53 0-2.114.757-2.114.757 1.465-.098 3.841.09 6.448 2.618 2.443 2.362 2.07 4.132 2.07 4.132.986-.6 3.325-2.722 2.264-5.692C27.549 9.38 24.807 8 24.807 8s.396.863-2.07.9c0 0 1.397.428 2.07 1.44 0 0-.904-1.057-3.243-1.418l-.583-.105zm-2.279-1.231c.187.015.374-.098.493-.18l-.403-.442-.232-.255c-.045.09-.194.15-.194.435 0 0 .03.412.336.442z" fill="#fdd31f"/><path d="M18.814 8.105c-.53 0-.964-.42-.964-.93a.94.94 0 0 1 .389-.75c-1.39-1.252-2.406-1.492-2.406-1.492 1.278.907 1.106 2.363 1.958 3.008.837.638 1.36.24 1.614-.03-.164.12-.366.195-.59.195zm-3.041 7.597c.411-.457 1.181-.45 1.181-.45-2.399 9.15 1.121 11.385 1.121 11.385l-3.564 1.215c-4.491-3.622-2.78-10.59-2.78-10.59-1.427 1.913-1.3 6.067-1.3 6.067-2.75-4.08.022-9.15.022-9.15-2.115 2.13-2.436 5.648-2.436 5.648l-1.24-.78c-.762-6.847 3.811-10.92 3.811-10.92-3.041 2.16-4.461 5.077-4.819 7.8-.306-.562-1.009-.885-1.285-1.463-.717-1.485-1.487-2.273-2.159-3.78.426-.75 1.614-3.382 4.184-5.017 0 0-2.996.975-4.767 4.582-.56-1.305-.351-3.78-.956-5.07 2.951-2.64 5.522-3.172 5.522-3.172-1.098-.39-2.07-.292-2.07-.292 5.141-2.325 12.149-2.017 17.23.607 4.072 2.1 3.684 4.583 2.653 5.573a1.5 1.5 0 0 0-.956-1.552s.657.773.463 1.365c-.127.375-.321.57-.62.638-3.213.188-2.854-2.115-6.314-3.833-3.377-1.673-5.148-.353-5.148-.353 2.122-.053 2.974.967 2.974.967-.956-.187-1.479.36-1.479.36 3.101.225 4.349 3.45 4.349 3.45-1.24-.24-2.354 1.665-2.354 1.665 1.92-1.905 2.944-.555 2.944-.555-1.442-.142-1.195 1.748-1.195 1.748s-1.883 1.11-1.009 3.907z" fill="#fff"/><path d="M24.127 14.735s-1.995-3.398-6.448-3.398a.55.55 0 0 0-.157 0s.665.315-.53 1.073c0 0-.889.525-.859 2.332l.299-.075c.964-.24 4.199-.862 7.696.068z" fill="#fdd31f"/><path d="M20.705 10.152c.344-.248.516-1.02.516-1.02a6.28 6.28 0 0 1 3.586 1.2l-.433-.368c-.478-.338-1.367-.825-2.809-1.05l-.583-.098c-.202.727-.471 1.035-.471 1.035.217-.398-.157-.885-.157-.885-.934 1.193-1.711.832-1.711.832.247.3 1.151.33 1.151.33-.53 0-2.114.758-2.114.758 1.465-.098 3.841.09 6.448 2.617 2.443 2.363 2.07 4.133 2.07 4.133 1.375-4.41-5.492-7.485-5.492-7.485zm2.817-.914c1.315-.195 1.45-.78 1.367-1.2L24.807 8s.396.863-2.07.9c-.008-.008.351.105.784.338zm-6.531 3.164s-.03.015-.075.053c-.149.27-.321.675-.284 1.035.06.615.09.72 1.263.622 1.106-.09 4.603-.39 6.172.6.022.007.045.007.067.015 0 0-1.995-3.397-6.448-3.397a.55.55 0 0 0-.157 0c-.007 0 .658.315-.538 1.072z" fill="#ec932d"/><path d="M28.461 11.945C27.549 9.38 24.807 8 24.807 8c.814.66 3.527 2.858 3.385 5.377-.105 1.95-.762 3.083-1.913 4.215 1.039-.683 3.213-2.76 2.182-5.648z" fill="#fcecac"/><path d="M8.085 6.095s-2.309.397-3.452 3.367c0 0 .62-1.23 2.526-1.83 0 0-2.152 1.043-2.817 5.482l.531.975s-.306-5.925 4.902-7.372c0 0-2.204-.12-3.407.773 0 .008.516-.735 1.719-1.395zm6.672 6.165s-2.369 3.233-2.339 7.358c0 0 .239-1.102.837-2.258 0 0-.105 4.02 1.502 7.177 0 0-.971-5.475.403-9.337 0 0-.725.893-1.375 3.615.008 0-.179-4.08.971-6.555zM1.793 6.957s1.367-2.79 8.085-3.81c0 0-4.311-.21-8.331 3.03l.247.78zm11.238-1.47s.523-.548 1.479-.36c0 0-.852-1.02-2.974-.967 0 0 .934.225 1.704.773 0 0-.956.112-2.122 1.47 0 0 3.572-1.357 6.254 2.528 0 .008-1.24-3.217-4.341-3.442zm8.57 2.213c-1.823-1.312-4.61-4.905-8.705-3.997.867-.105 2.13-.007 3.781.81 3.46 1.71 3.101 4.02 6.314 3.833.299-.068.501-.262.62-.638.015-.045.022-.082.03-.127-.224.517-.777 1.035-2.04.12z" fill="#b3b3b3"/><path d="M19.128 7.422c-.321.247-.575.06-.643-.105-.052-.12 0-.45.194-.48l-.12-.128c-.045.09-.194.15-.194.435 0 0 .03.42.336.442.187.015.374-.098.493-.18l-.067.015z" fill="#ec932d"/><path d="M18.717 7.31a.28.28 0 0 0 .389-.03c.097-.112.09-.277-.03-.375a.28.28 0 0 0-.389.03c-.097.112-.082.285.03.375z" fill="#000"/><path d="M18.814 7.092c-.037.045-.134.038-.209-.022s-.097-.143-.06-.187.134-.037.209.022.105.143.06.188z" fill="#fff"/></svg>